<?xml version="1.0" standalone="no"?>
<!DOCTYPE svg PUBLIC "-//W3C//DTD SVG 1.1//EN" "http://www.w3.org/Graphics/SVG/1.1/DTD/svg11.dtd" >
<svg xmlns="http://www.w3.org/2000/svg">
<metadata></metadata>
<defs>
<font id="proxima_nova_light_italicItLt" horiz-adv-x="1169" >
<font-face units-per-em="2048" ascent="1638" descent="-410" />
<missing-glyph horiz-adv-x="530" />
<glyph horiz-adv-x="2048" />
<glyph horiz-adv-x="2048" />
<glyph unicode="&#xd;" horiz-adv-x="681" />
<glyph unicode=" "  horiz-adv-x="530" />
<glyph unicode="&#x09;" horiz-adv-x="530" />
<glyph unicode="&#xa0;" horiz-adv-x="530" />
<glyph unicode="!" horiz-adv-x="448" d="M39 63q0 42 29 69q30 28 69 28q35 0 59 -24q23 -23 23 -58q0 -41 -29 -70q-28 -28 -69 -28q-35 0 -59 24q-23 23 -23 59zM150 356l196 1010h137l-250 -1010h-83z" />
<glyph unicode="&#x22;" horiz-adv-x="649" d="M242 874q4 30 24 201q3 26 9 76q1 11 4.5 34t4.5 34q3 30 6 51t3 26q5 43 26 66q23 24 60 24q27 0 46 -19t19 -48q0 -12 -4 -23l-6 -18q0 -2 -6 -20q-9 -27 -15 -46l-22 -65l-24 -74l-66 -199h-59zM510 874q11 84 25 201q3 26 9 76q7 60 8 68q3 30 6 51t3 26q5 42 27 66 t59 24q29 0 47 -19q19 -21 19 -48q0 -12 -4 -23l-7 -18q0 -2 -6 -20q-9 -27 -15 -46l-22 -65l-24 -74l-66 -199h-59z" />
<glyph unicode="#" horiz-adv-x="1185" d="M23 381l43 84h229l244 436h-230l41 84h236l209 381h96l-209 -381h240l208 381h99l-213 -381h227l-41 -84h-231l-244 -436h236l-43 -84h-238l-213 -381h-96l215 381h-244l-211 -381h-96l211 381h-225zM391 465h238l245 436h-239z" />
<glyph unicode="$" horiz-adv-x="1196" d="M53 215l86 84q55 -77 140 -132q84 -54 188 -75l127 567q-59 24 -127 59q-61 32 -111 72q-47 38 -78 93q-30 53 -30 125q0 77 36 146t97 121q63 54 145 83q87 31 183 31h23l24 -3l41 187h94l-45 -199q109 -22 197 -75q90 -54 137 -123l-88 -82q-45 67 -118 112 q-71 44 -151 62l-114 -514q44 -19 128 -61q61 -30 111 -73q50 -42 80 -98q31 -57 31 -129q0 -75 -31 -152q-29 -73 -92 -133q-61 -58 -152 -96q-89 -37 -209 -37h-20q-6 0 -20 2l-39 -182h-95l43 193q-134 22 -237 83q-104 61 -154 144zM375 1020q0 -44 19 -76 q20 -34 53 -60q37 -29 79 -50q54 -27 97 -46l108 492q-10 2 -16 2h-17q-67 0 -127 -21q-58 -20 -103 -59q-46 -40 -69 -84q-24 -46 -24 -98zM559 82h27q89 0 156 28q66 28 107 70q41 43 61 96q20 54 20 103q0 45 -21 81q-21 37 -54 65q-35 31 -79 54q-40 21 -96 46z" />
<glyph unicode="%" horiz-adv-x="1474" d="M152 0l1173 1366h94l-1175 -1366h-92zM184 989q0 89 30 162q30 74 79 126q49 53 114 81q63 28 136 28q63 0 114 -19q55 -20 94 -55q37 -33 63 -86q24 -50 24 -112q0 -91 -30 -163q-31 -74 -80 -126q-50 -53 -115 -82q-63 -28 -134 -28q-62 0 -115 19q-55 20 -95 57 q-39 36 -62 87t-23 111zM279 997q0 -88 57 -145t147 -57q54 0 99 23q47 24 83 65q36 40 57 98q21 57 21 123q0 88 -57 145q-58 58 -147 58q-53 0 -99 -24q-48 -25 -83 -64q-36 -40 -57 -98q-21 -57 -21 -124zM715 250q0 91 29 162q30 73 80 126q47 50 115 80q66 29 134 29 q63 0 116 -19t94 -57q40 -37 64 -87q23 -47 23 -111q0 -91 -30 -163q-31 -74 -79 -125q-49 -52 -115 -81t-134 -29q-61 0 -116 20t-94 56q-40 37 -64 87q-23 47 -23 112zM809 258q0 -88 58 -145q60 -58 147 -58q52 0 98 24q48 25 83 64q36 40 57 98q22 60 22 124 q0 88 -57 145t-146 57q-53 0 -98 -23q-47 -24 -84 -66q-39 -44 -59 -98q-21 -57 -21 -122z" />
<glyph unicode="&#x26;" horiz-adv-x="1308" d="M43 309q0 102 34 173q37 76 90 127q56 53 130 94q68 37 152 73q-25 65 -38 124q-14 62 -14 120q0 76 30 142q32 70 79 117q52 52 115 79q65 28 137 28q59 0 110 -15t89 -44q40 -30 60 -72q21 -44 21 -100q0 -91 -39 -154q-40 -65 -101 -110q-66 -49 -143 -83 q-85 -38 -163 -69q25 -55 54 -107q28 -51 65 -110l73 -121l70 -108q81 87 142 177q62 92 89 144l89 -51q-51 -83 -117 -174t-146 -176q37 -51 78 -102l88 -111h-147l-48 62l-55 71q-88 -72 -180 -114q-97 -44 -207 -44q-80 0 -155 22q-72 21 -126 63q-56 43 -85 105 q-31 65 -31 144zM166 324q0 -66 23 -112q24 -49 63 -80q40 -32 91 -47q53 -15 108 -15q84 0 166 41q81 41 153 102l-90 135q-42 63 -66 107l-71 125q-39 71 -60 114q-72 -31 -123 -62q-56 -34 -100 -78t-69 -100t-25 -130zM512 1022q0 -90 45 -203q69 27 140 59 q74 34 118 66q54 40 82 86q31 51 31 115q0 75 -50 113t-118 38q-44 0 -85 -17q-45 -19 -80 -52q-34 -32 -59 -86q-24 -51 -24 -119z" />
<glyph unicode="'" horiz-adv-x="382" d="M242 874q4 30 24 201q3 26 9 76q1 11 4.5 34t4.5 34q3 30 6 51t3 26q5 43 26 66q23 24 60 24q27 0 46 -19t19 -48q0 -12 -4 -23l-6 -18q0 -2 -6 -20q-9 -27 -15 -46l-22 -65l-24 -74l-66 -199h-59z" />
<glyph unicode="(" horiz-adv-x="464" d="M51 172q0 319 131 632q130 312 383 599l53 -53q-206 -274 -331 -585q-121 -300 -121 -642q0 -117 21 -245q18 -107 53 -245l-74 -41q-55 129 -84 269q-31 150 -31 311z" />
<glyph unicode=")" horiz-adv-x="464" d="M-156 -354q209 279 332 584q121 300 121 642q0 111 -22 245q-19 118 -52 245l74 41q56 -130 84 -268q31 -150 31 -312q0 -319 -131 -632q-130 -312 -383 -599z" />
<glyph unicode="*" horiz-adv-x="686" d="M186 1024l236 84l-186 129l51 61l172 -149l41 237h78l-66 -241l229 104l23 -69l-236 -84l187 -129l-53 -62l-170 150l-41 -238h-80l67 244l-229 -107z" />
<glyph unicode="+" horiz-adv-x="1015" d="M92 647l19 86h403l94 432h92l-94 -432h404l-21 -86h-403l-99 -444h-90l99 444h-404z" />
<glyph unicode="," horiz-adv-x="448" d="M-37 -184q61 30 102 76q42 46 58 96h-14q-29 0 -50 21q-20 20 -20 52q0 41 29 70t67 29q37 0 63 -26q25 -25 25 -73q0 -46 -17 -88q-19 -47 -47 -85q-26 -35 -68 -72q-36 -32 -79 -54z" />
<glyph unicode="-" horiz-adv-x="614" d="M49 446l21 99h491l-20 -99h-492z" />
<glyph unicode="." horiz-adv-x="448" d="M39 63q0 42 29 69q30 28 69 28q35 0 59 -24q23 -23 23 -58q0 -41 -29 -70q-28 -28 -69 -28q-35 0 -59 24q-23 23 -23 59z" />
<glyph unicode="/" horiz-adv-x="577" d="M-121 -41l805 1448h96l-807 -1448h-94z" />
<glyph unicode="0" horiz-adv-x="1245" d="M133 500q0 152 43 306q44 159 124 286q82 130 198 212t266 82q110 0 186 -36q82 -39 133 -106q53 -70 80 -165q27 -96 27 -215q0 -93 -19 -204q-18 -106 -55 -203q-37 -98 -90 -187q-48 -82 -123 -153q-70 -67 -154 -104q-87 -38 -184 -38q-105 0 -187 38 q-80 37 -135 107q-56 71 -82 165q-28 100 -28 215zM256 492q0 -90 17 -161q18 -73 56 -130q37 -55 98 -87t146 -32q116 0 207 76q94 79 157 191t98 255q34 137 34 268q0 90 -17 161q-18 73 -56 130q-38 56 -98 86q-62 31 -146 31q-76 0 -144 -35q-69 -35 -122 -94 q-54 -60 -97 -137q-43 -76 -73 -166q-30 -89 -45 -179q-15 -91 -15 -177z" />
<glyph unicode="1" horiz-adv-x="630" d="M174 1049l371 317h106l-301 -1366h-117l265 1206l-269 -233z" />
<glyph unicode="2" horiz-adv-x="1191" d="M4 0l29 123l379 248q179 119 310 232q134 116 209 223q77 110 77 216q0 113 -88 176q-87 62 -228 62q-115 0 -205 -38q-87 -37 -149 -99l-64 82q70 70 185 116q113 45 237 45q87 0 163 -20q81 -21 139 -62q60 -42 98 -106q37 -62 37 -151q0 -123 -78 -243 q-77 -119 -207 -238q-128 -118 -295 -232l-344 -228h719l-23 -106h-901z" />
<glyph unicode="3" horiz-adv-x="1114" d="M2 260l94 62q47 -111 155 -176q107 -64 241 -64q81 0 150 25q68 25 114 68q47 44 71 104q25 63 25 131q0 109 -89 175t-237 66q-50 0 -70 -1q-29 -1 -46 -3l26 111q14 0 28 -1t49 -1h56h49q72 0 133 17q64 18 113 52t79 87q30 52 30 124q0 102 -89 173t-243 71 q-89 0 -177 -33q-91 -34 -173 -110l-58 82q76 76 188 122q110 45 226 45q95 0 176 -22q82 -22 142 -66q58 -42 93 -106q34 -62 34 -145q0 -84 -34 -146q-34 -63 -87 -108q-53 -46 -119 -71q-66 -26 -131 -30q49 -12 94 -36q47 -25 79 -60t54 -85q21 -48 21 -108 q0 -86 -34 -163q-36 -81 -96 -137q-63 -59 -151 -93q-90 -35 -194 -35q-84 0 -162 21q-80 21 -144 58q-64 36 -113 90t-73 116z" />
<glyph unicode="4" horiz-adv-x="1107" d="M43 373l27 112l790 881h166l-197 -887h201l-22 -106h-201l-82 -373h-117l82 373h-647zM186 479h527l170 770z" />
<glyph unicode="5" horiz-adv-x="1191" d="M86 252l94 67q52 -122 151 -180q97 -57 234 -57q75 0 145 29q66 27 120 78q51 48 82 118q30 68 30 148q0 70 -24 124q-23 52 -70 91q-42 35 -106 56q-58 19 -130 19q-87 0 -156 -25q-70 -25 -143 -77l-77 45l149 678h789l-23 -106h-672l-112 -506q46 34 122 64 q77 30 170 30q77 0 154 -25q73 -24 129 -72q54 -47 89 -120q34 -71 34 -166q0 -100 -37 -187q-39 -93 -104 -156q-68 -67 -162 -107q-93 -40 -207 -40q-176 0 -290 69q-113 68 -179 208z" />
<glyph unicode="6" horiz-adv-x="1196" d="M125 467q0 93 16 193q18 110 50 206q35 104 87 196q54 96 124 166q71 71 164 115q90 43 206 43q144 0 241 -56q101 -58 152 -156l-88 -76q-39 86 -119 134t-192 48q-111 0 -194 -53t-143 -138q-59 -85 -100 -190t-63 -207q-5 -16 -6 -23l-4 -16q27 30 71 65q40 32 97 61 q56 29 115 46q65 19 127 19q86 0 164 -25q75 -24 129 -69q53 -44 84 -112q30 -66 30 -149q0 -102 -39 -195q-40 -95 -106 -164q-68 -71 -161 -113t-204 -42q-212 0 -325 128t-113 364zM238 436q0 -156 84 -255t245 -99q85 0 155 33q72 34 121 87q51 56 79 125t28 146 q0 125 -88 197q-87 71 -233 71q-109 0 -209 -53q-97 -52 -178 -143q-2 -16 -3 -51q-1 -25 -1 -58z" />
<glyph unicode="7" horiz-adv-x="1028" d="M137 0l848 1260h-749l22 106h895l-18 -82l-863 -1284h-135z" />
<glyph unicode="8" d="M76 317q0 80 32 147q33 69 88 118q59 53 135 86q80 35 173 51q-48 18 -89 43q-48 30 -80 63q-37 39 -59 84t-22 103q0 96 42 167q42 70 107 116q66 46 149 69q81 22 163 22q88 0 166 -22t141 -65q61 -42 97 -103q36 -62 36 -139t-30 -139t-84 -108q-52 -45 -128 -76 q-73 -30 -159 -42q41 -17 90 -47t87 -68t65 -94q26 -54 26 -118q0 -83 -38 -156q-37 -71 -102 -124q-64 -52 -152 -81q-89 -29 -185 -29q-98 0 -185 23q-89 23 -149 65q-63 43 -99 107q-36 63 -36 147zM201 338q0 -64 27 -112t76 -80q48 -32 111 -48q61 -16 132 -16 q68 0 129 19q65 20 115 57q51 38 81 91q31 56 31 124q0 55 -27 102t-71 83q-41 34 -93 59q-48 23 -94 36q-90 -6 -165 -31q-71 -24 -132 -67q-58 -41 -89 -96t-31 -121zM373 1006q0 -51 25 -91q25 -39 66 -73q42 -34 87 -56q42 -21 90 -32q87 6 155 28q69 22 123 59 q50 34 81 87q30 51 30 116q0 50 -25 93q-24 42 -69 74q-45 33 -101 50q-55 17 -124 17q-65 0 -127 -18q-60 -18 -109 -54q-48 -36 -75 -85t-27 -115z" />
<glyph unicode="9" horiz-adv-x="1196" d="M111 190l86 76q40 -87 118 -134q79 -48 195 -48q110 0 193 53t143 138q57 81 99 190q42 108 65 207q5 16 6 23q2 12 2 16q-30 -32 -72 -65t-96 -61q-56 -29 -116 -46q-67 -19 -126 -19q-87 0 -165 25q-75 24 -129 69t-84 111q-29 64 -29 149q0 103 39 196q40 96 107 164 q70 71 162 113q93 42 202 42q212 0 325 -128t113 -364q0 -94 -16 -194q-16 -103 -51 -205q-37 -109 -86 -196q-54 -96 -124 -166q-73 -73 -163 -116t-207 -43q-141 0 -240 57t-151 156zM324 891q0 -125 88 -197q87 -71 233 -71q110 0 210 53q98 52 177 143q2 16 3 51 q1 25 1 58q0 78 -21 142q-21 63 -63 112q-40 46 -102 73q-61 27 -143 27q-85 0 -154 -33q-71 -34 -121 -87q-52 -55 -80 -125q-28 -69 -28 -146z" />
<glyph unicode=":" horiz-adv-x="444" d="M39 63q0 42 29 69q30 28 69 28q35 0 59 -24q23 -23 23 -58q0 -41 -29 -70q-28 -28 -69 -28q-35 0 -59 24q-23 23 -23 59zM225 907q0 42 29 69q30 28 70 28q34 0 58 -24t24 -58q0 -42 -29 -69q-30 -28 -70 -28q-34 0 -58 24t-24 58z" />
<glyph unicode=";" horiz-adv-x="448" d="M-37 -184q61 30 102 76q42 46 58 96h-14q-29 0 -50 21q-20 20 -20 52q0 41 29 70t67 29q37 0 63 -26q25 -25 25 -73q0 -46 -17 -88q-19 -47 -47 -85q-26 -35 -68 -72q-36 -32 -79 -54zM225 907q0 42 29 69q30 28 70 28q34 0 58 -24t24 -58q0 -42 -29 -69q-30 -28 -70 -28 q-34 0 -58 24t-24 58z" />
<glyph unicode="&#x3c;" horiz-adv-x="1015" d="M90 647l19 76l999 465l-25 -107l-876 -401l698 -399l-20 -97z" />
<glyph unicode="=" horiz-adv-x="1015" d="M45 442l21 84h897l-19 -84h-899zM135 842l19 86h897l-19 -86h-897z" />
<glyph unicode="&#x3e;" horiz-adv-x="1015" d="M-12 184l24 107l881 397l-703 404l21 96l795 -465l-17 -76z" />
<glyph unicode="?" horiz-adv-x="950" d="M195 1212q95 95 191 134q98 40 216 40q90 0 164 -21q76 -22 127 -61q53 -41 83 -95t30 -122q0 -92 -40 -154q-40 -63 -102 -108q-58 -43 -131 -79q-90 -45 -131 -68q-57 -32 -101 -76q-40 -40 -40 -98q0 -19 8 -45q7 -23 31 -47l-92 -52q-54 69 -54 148q0 74 39 124 q41 52 96 88q60 39 126 71q72 34 126 70q57 38 97 88q39 49 39 124q0 93 -74 150t-209 57q-200 0 -344 -147zM270 63q0 42 29 69q30 28 70 28q34 0 58 -24t24 -58q0 -41 -29 -70q-28 -28 -70 -28q-34 0 -58 24t-24 59z" />
<glyph unicode="@" horiz-adv-x="1603" d="M113 500q0 167 67 313q68 147 179 257t259 173q149 64 308 64q141 0 263 -52q119 -51 204 -140t131 -210q47 -123 47 -258q0 -113 -28 -205q-26 -85 -74 -147q-47 -60 -106 -90q-62 -31 -124 -31q-84 0 -131 53q-48 54 -49 121l-2 12q-50 -73 -143 -131q-88 -55 -193 -55 q-141 0 -227 89t-86 239q0 112 42 206t111 165q68 70 157 111q86 40 179 40q105 0 171 -51t95 -119l27 133h100l-121 -577q-2 -14 -3 -20t-1 -19q0 -52 31 -83q30 -30 72 -30q30 0 71 18q39 17 78 64q37 45 63 120q25 74 25 189q0 129 -43 236t-120 187q-76 79 -184 124 t-238 45q-151 0 -285 -61t-237 -164q-97 -97 -160 -237q-60 -133 -60 -277q0 -122 44 -230q43 -105 123 -185t187 -123q109 -44 238 -44q112 0 206 32q90 30 177 85l35 -51q-96 -62 -204 -96q-103 -33 -222 -33q-141 0 -258 49q-120 50 -206 136q-87 86 -136 205 q-49 117 -49 253zM514 506q0 -108 59 -176q61 -70 168 -70q56 0 108 19q49 18 93 48q43 30 77 65t58 73l66 303q-8 22 -29 56q-18 30 -47 56q-28 25 -68 42q-38 16 -90 16q-82 0 -153 -37q-73 -38 -126 -97q-56 -62 -85 -138q-31 -81 -31 -160z" />
<glyph unicode="A" horiz-adv-x="1325" d="M-80 0l860 1366h146l258 -1366h-129l-62 336h-723l-209 -336h-141zM332 442h647l-148 799z" />
<glyph unicode="B" horiz-adv-x="1259" d="M59 0l301 1366h527q69 0 131 -21q57 -19 107 -63q45 -39 73 -98q27 -57 27 -127q0 -73 -26 -137q-25 -62 -70 -113q-44 -50 -101 -80q-60 -32 -121 -39q42 -10 79 -38q35 -26 63 -65q27 -37 42 -84t15 -95q0 -76 -28 -151q-27 -72 -85 -130q-56 -56 -144 -91 q-86 -34 -206 -34h-584zM199 107h450q83 0 145 25q60 24 105 69t65 98q21 55 21 113q0 102 -65 168q-66 67 -185 67h-416zM344 754h447q88 0 144 26q57 26 94 68q36 40 51 93q16 56 16 103q0 42 -19 85q-18 40 -50 69q-31 28 -75 45q-45 17 -92 17h-405z" />
<glyph unicode="C" horiz-adv-x="1374" d="M137 567q0 185 65 338q64 151 171 259q106 108 242 166q138 59 280 59q180 0 319 -76q141 -77 218 -217l-113 -52q-73 131 -185 184q-114 54 -247 54q-117 0 -229 -50q-108 -48 -199 -142q-89 -92 -142 -224t-53 -295q0 -109 35 -200q34 -90 98 -155q63 -64 155 -99 q93 -35 206 -35q98 0 197 38q97 37 190 118l82 -70q-104 -99 -229 -146q-126 -47 -246 -47q-136 0 -248 42q-113 42 -194 120q-80 77 -127 188q-46 108 -46 242z" />
<glyph unicode="D" horiz-adv-x="1417" d="M59 0l301 1366h426q115 0 216 -43q103 -44 177 -121t118 -184q44 -108 44 -234q0 -141 -52 -281q-53 -142 -157 -252q-106 -112 -265 -181q-161 -70 -373 -70h-435zM199 106h319h-4q159 0 292 55q130 54 222 146q91 91 141 215t50 258q0 104 -35 192q-34 85 -95 151 q-60 64 -144 101q-83 36 -181 36h-309z" />
<glyph unicode="E" horiz-adv-x="1155" d="M59 0l301 1366h867l-23 -106h-749l-111 -506h733l-24 -107h-734l-120 -541h749l-22 -106h-867z" />
<glyph unicode="F" horiz-adv-x="1110" d="M59 0l301 1366h867l-23 -106h-749l-111 -506h733l-24 -107h-734l-143 -647h-117z" />
<glyph unicode="G" horiz-adv-x="1456" d="M137 567q0 177 62 330t166 260q107 110 243 170q141 62 293 62q185 0 318 -76q131 -75 208 -205l-104 -53q-63 114 -180 171q-115 56 -256 56q-123 0 -234 -52q-113 -52 -198 -147q-87 -96 -139 -225t-52 -287q0 -112 36 -202q37 -92 100 -154q65 -64 156 -98 q93 -35 202 -35q131 0 229 49q100 50 168 115l72 327h-516l22 107h635l-108 -490q-103 -102 -235 -159q-129 -56 -273 -56q-140 0 -255 44t-194 123t-123 188q-43 107 -43 237z" />
<glyph unicode="H" horiz-adv-x="1439" d="M59 0l301 1366h117l-133 -610h864l135 610h119l-301 -1366h-119l144 649h-867l-143 -649h-117z" />
<glyph unicode="I" horiz-adv-x="456" d="M59 0l301 1366h117l-301 -1366h-117z" />
<glyph unicode="J" horiz-adv-x="962" d="M-39 156l80 82q39 -73 107 -114q69 -42 165 -42q142 0 225 87q83 88 113 226l215 971h117l-213 -971q-46 -214 -163 -317t-288 -103q-117 0 -211 45q-96 46 -147 136z" />
<glyph unicode="K" horiz-adv-x="1200" d="M59 0l301 1366h117l-162 -733l813 733h158l-725 -651l479 -715h-139l-426 649l-192 -172l-107 -477h-117z" />
<glyph unicode="L" horiz-adv-x="991" d="M31 0l301 1366h119l-279 -1260h659l-20 -106h-780z" />
<glyph unicode="M" horiz-adv-x="1617" d="M59 0l301 1366h168l213 -1137l717 1137h180l-301 -1366h-118l268 1219l-766 -1219h-45l-230 1219l-270 -1219h-117z" />
<glyph unicode="N" horiz-adv-x="1431" d="M59 0l301 1366h119l596 -1167l260 1167h117l-301 -1366h-115l-598 1184l-262 -1184h-117z" />
<glyph unicode="O" horiz-adv-x="1564" d="M137 567q0 171 61 324q59 148 162 260q101 110 241 174t294 64q128 0 239 -39q113 -40 194 -115q84 -78 131 -185q48 -109 48 -253q0 -175 -59 -323q-60 -151 -163 -261t-241 -174q-139 -64 -292 -64q-128 0 -240 39q-114 40 -196 114q-84 76 -131 185q-48 111 -48 254z M264 571q0 -121 39 -212q38 -89 107 -152q68 -61 156 -93q90 -32 192 -32q121 0 235 53q113 53 199 148q87 96 137 224q51 131 51 286q0 121 -40 211q-41 93 -107 153q-67 61 -158 93t-190 32q-124 0 -238 -53q-109 -51 -197 -148t-136 -224q-50 -132 -50 -286z" />
<glyph unicode="P" d="M59 0l301 1366h490q74 0 139 -28q63 -27 110 -74q43 -44 72 -110q27 -63 27 -130q0 -77 -28 -161q-26 -79 -89 -146q-62 -66 -157 -108q-96 -42 -232 -42h-389l-127 -567h-117zM326 674h381h-2q91 0 160 27q67 26 115 76q45 47 70 110q23 59 23 129q0 50 -18 93t-53 78 q-34 34 -79 53q-48 20 -102 20h-366z" />
<glyph unicode="Q" horiz-adv-x="1564" d="M137 567q0 171 61 324q59 148 162 260q101 110 241 174t294 64q128 0 239 -39q113 -40 194 -115q84 -78 131 -185q48 -109 48 -253q0 -210 -86 -385t-229 -285l92 -123l-94 -59l-90 121q-77 -43 -166 -67q-88 -24 -182 -24q-128 0 -240 39q-114 40 -196 114 q-84 76 -131 185q-48 111 -48 254zM264 571q0 -121 39 -212q38 -89 107 -152q68 -61 156 -93q90 -32 192 -32q74 0 141 19t133 55l-176 239l94 60l174 -238q119 97 187 243q69 147 69 333q0 121 -40 211q-41 93 -107 153q-67 61 -158 93t-190 32q-124 0 -238 -53 q-109 -51 -197 -148t-136 -224q-50 -132 -50 -286z" />
<glyph unicode="R" horiz-adv-x="1216" d="M59 0l301 1366h469q70 0 137 -23q65 -22 118 -66q52 -43 84 -109t32 -146q0 -96 -33 -177q-33 -80 -94 -140t-147 -96q-87 -37 -193 -38l268 -571h-133l-258 565h-309l-125 -565h-117zM326 672h376h5q89 0 158 27q66 26 115 75q45 45 70 110q23 60 23 132q0 53 -21 98 q-21 44 -58 77t-82 50q-49 19 -95 19h-362z" />
<glyph unicode="S" horiz-adv-x="1189" d="M49 215l86 84q72 -101 186 -159q113 -58 261 -58q89 0 156 28q66 28 107 70q41 43 61 96q20 54 20 103q0 75 -50 125t-126 87q-86 42 -165 73q-89 34 -165 78q-76 43 -126 107t-50 159q0 77 36 146t97 121q63 54 145 83q87 31 183 31q156 0 282 -59q127 -60 189 -154 l-89 -82q-65 98 -171 143q-105 45 -222 45q-67 0 -127 -21q-58 -20 -103 -59q-46 -40 -69 -84q-24 -46 -24 -98q0 -70 50 -115t127 -83q76 -38 165 -72q84 -33 165 -82q78 -47 127 -113q50 -67 50 -162q0 -75 -31 -152q-29 -73 -92 -133q-61 -58 -152 -96q-89 -37 -209 -37 q-83 0 -169 19q-78 17 -148 50q-67 31 -121 76q-55 45 -84 95z" />
<glyph unicode="T" horiz-adv-x="1155" d="M240 1260l22 106h1012l-23 -106h-446l-279 -1260h-118l278 1260h-446z" />
<glyph unicode="U" horiz-adv-x="1404" d="M166 420q0 33 3 60q3 31 7 44l184 842h119l-184 -840q-2 -7 -8 -38q-4 -23 -4 -54q0 -156 101 -254t288 -98q98 0 175 31q74 30 128 88t89 139q36 82 58 186l185 840h118l-184 -842q-27 -119 -73 -228q-43 -100 -110 -172q-66 -70 -162 -110q-94 -39 -224 -39 q-116 0 -212 31q-92 30 -159 89q-65 58 -100 141q-35 84 -35 184z" />
<glyph unicode="V" horiz-adv-x="1325" d="M221 1366h129l223 -1235l770 1235h142l-860 -1366h-146z" />
<glyph unicode="W" horiz-adv-x="1775" d="M229 1366h129l62 -1202l602 1202h106l70 -1202l594 1202h135l-690 -1366h-131l-70 1174l-585 -1174h-132z" />
<glyph unicode="X" horiz-adv-x="1320" d="M-72 0l701 709l-369 657h135l322 -580l565 580h160l-662 -672l391 -694h-133l-348 618l-604 -618h-158z" />
<glyph unicode="Y" horiz-adv-x="1265" d="M221 1366h131l314 -672l608 672h151l-714 -782l-129 -584h-119l131 584z" />
<glyph unicode="Z" horiz-adv-x="1189" d="M-8 0l22 102l1069 1158h-811l21 106h971l-21 -100l-1071 -1160h827l-22 -106h-985z" />
<glyph unicode="[" horiz-adv-x="466" d="M-121 -389l393 1778h357l-21 -89h-264l-356 -1601h264l-19 -88h-354z" />
<glyph unicode="\" horiz-adv-x="577" d="M201 1407h92l164 -1448h-92z" />
<glyph unicode="]" horiz-adv-x="466" d="M-162 -389l21 88h262l356 1601h-266l20 89h357l-395 -1778h-355z" />
<glyph unicode="^" horiz-adv-x="876" d="M78 682l508 684h86l205 -684h-93l-168 600l-434 -600h-104z" />
<glyph unicode="_" horiz-adv-x="1155" d="M-154 -170l21 88h1165l-20 -88h-1166z" />
<glyph unicode="`" horiz-adv-x="442" d="M207 1434h127l250 -295h-90z" />
<glyph unicode="a" d="M92 381q0 128 37 240q39 117 105 201q70 88 165 140t213 52q122 0 214 -53q90 -52 143 -140l35 168h108l-219 -989h-109l35 150q-61 -78 -147 -126q-87 -49 -193 -49q-83 0 -156 28q-71 27 -122 80q-52 54 -80 127q-29 76 -29 171zM209 401q0 -153 82 -241t217 -88 q52 0 101 15q48 14 93 41q41 24 80 60q38 35 62 74l104 475q-39 76 -122 127q-88 54 -205 54q-90 0 -169 -45q-78 -44 -130 -116q-53 -72 -83 -165q-30 -92 -30 -191z" />
<glyph unicode="b" d="M55 0l301 1366h107l-115 -526q60 78 147 126t193 48q82 0 155 -28q71 -27 122 -80q51 -52 79 -128q29 -78 29 -170q0 -127 -37 -239q-39 -119 -105 -202q-68 -86 -164 -139q-95 -53 -212 -53q-120 0 -214 54q-90 52 -142 139l-37 -168h-107zM217 252q39 -76 122 -127 q86 -53 206 -53q93 0 170 44q76 43 129 116q53 72 83 165q29 88 29 191q0 154 -81 241q-83 89 -218 89q-49 0 -102 -16q-48 -14 -92 -42q-47 -29 -79 -60q-34 -33 -62 -73z" />
<glyph unicode="c" horiz-adv-x="1011" d="M94 414q0 123 42 231t116 191q73 82 174 130q100 48 217 48q128 0 216 -47q86 -46 138 -133l-82 -62q-44 77 -114 111q-73 35 -154 35q-101 0 -184 -42q-79 -40 -138 -113q-57 -71 -87 -162q-31 -95 -31 -189q0 -86 25 -148t72 -106t108 -65q62 -21 133 -21q84 0 152 34 t116 93l61 -74q-67 -67 -146 -108q-81 -42 -193 -42q-96 0 -177 29q-80 29 -139 85t-92 138q-33 83 -33 187z" />
<glyph unicode="d" d="M92 381q0 128 37 240q39 117 105 201q70 88 165 140t213 52q122 0 214 -53q90 -52 143 -140l118 545h109l-303 -1366h-109l35 150q-61 -78 -147 -126q-87 -49 -193 -49q-83 0 -156 28q-71 27 -122 80q-52 54 -80 127q-29 76 -29 171zM209 401q0 -153 82 -241t217 -88 q52 0 101 15q48 14 93 41q41 24 80 60q38 35 62 74l104 475q-39 76 -122 127q-88 54 -205 54q-90 0 -169 -45q-78 -44 -130 -116q-53 -72 -83 -165q-30 -92 -30 -191z" />
<glyph unicode="e" horiz-adv-x="1161" d="M94 412q0 124 43 232q43 110 117 192q73 82 174 130q100 48 215 48q97 0 177 -33t132 -90q54 -59 82 -136q29 -81 29 -169q0 -32 -6 -70q-7 -42 -10 -55h-836q-1 -11 -3 -27q-1 -11 -1 -31q0 -69 22 -129q22 -59 68 -107q44 -46 114 -73q66 -26 158 -26q78 0 155 26 q76 26 144 80l41 -78q-68 -53 -155 -86q-91 -35 -189 -35q-108 0 -198 32q-88 31 -149 89t-92 138q-32 82 -32 178zM221 545h731h6q3 15 3 21v24q0 69 -22 133q-21 61 -63 105q-44 46 -104 69q-64 25 -141 25q-72 0 -143 -31q-64 -28 -123 -82q-57 -53 -94 -120 q-39 -71 -50 -144z" />
<glyph unicode="f" horiz-adv-x="542" d="M90 0l199 895h-164l20 94h164l19 90q29 141 103 224t204 83q64 0 108 -17q49 -19 88 -58l-65 -76q-25 26 -52 40q-30 15 -77 15q-86 0 -132 -55q-47 -55 -69 -156l-20 -90h202l-22 -94h-201l-196 -895h-109z" />
<glyph unicode="g" horiz-adv-x="1167" d="M8 -233l76 79q52 -79 141 -115t209 -36q61 0 115 16t102 55q49 39 82 97q35 62 53 145l31 150q-61 -79 -149 -126q-90 -48 -201 -48q-78 0 -146 25q-67 25 -120 76q-51 50 -80 128q-29 79 -29 182q0 120 36 231q36 112 102 197q66 86 162 139q94 52 214 52q54 0 106 -15 q56 -16 99 -41q48 -28 87 -61q38 -32 67 -76l39 168h108l-219 -981q-23 -109 -70 -190q-44 -77 -105 -127t-132 -71q-72 -21 -152 -21q-142 0 -245 34q-104 34 -181 134zM207 410q0 -156 81 -243t218 -87q97 0 186 52q93 54 148 124l108 479q-45 83 -138 133q-94 50 -200 50 q-92 0 -169 -46q-75 -45 -127 -116q-54 -73 -80 -163q-27 -91 -27 -183z" />
<glyph unicode="h" horiz-adv-x="1105" d="M55 0l301 1366h107l-115 -526q34 34 73 63q47 35 86 55q53 27 95 40q53 16 103 16q126 0 207 -60t81 -182q0 -16 -4 -40q-6 -38 -8 -44l-152 -688h-106l147 672q5 16 9 37q4 20 4 34q0 93 -63 134q-64 41 -158 41q-48 0 -94 -15q-44 -14 -89 -39q-40 -22 -82 -56 q-37 -30 -69 -65l-166 -743h-107z" />
<glyph unicode="i" horiz-adv-x="438" d="M55 0l219 989h107l-219 -989h-107zM295 1217q0 40 31 65t61 25q32 0 54 -22t22 -50q0 -41 -31 -66q-30 -24 -63 -24q-32 0 -53 21t-21 51z" />
<glyph unicode="j" horiz-adv-x="438" d="M-371 -313l64 82q25 -33 60 -53q37 -21 83 -21q72 0 120 42q49 43 71 138l247 1114h107l-248 -1114q-30 -138 -98 -208q-67 -68 -187 -68q-70 0 -127 21t-92 67zM295 1217q0 40 31 65t61 25q32 0 54 -22t22 -50q0 -41 -31 -66q-30 -24 -63 -24q-32 0 -53 21t-21 51z" />
<glyph unicode="k" horiz-adv-x="1034" d="M55 0l301 1366h107l-207 -934l700 557h150l-561 -446l340 -543h-131l-297 477l-230 -180l-65 -297h-107z" />
<glyph unicode="l" horiz-adv-x="438" d="M55 0l301 1366h107l-301 -1366h-107z" />
<glyph unicode="m" horiz-adv-x="1615" d="M55 0l219 989h107l-33 -149q24 27 52 54q26 24 73 56q40 27 89 45q51 19 102 19q60 0 108 -20q49 -21 79 -49q33 -31 47 -64q15 -35 15 -64v-4q27 33 68 73q38 36 80 64t91 46q48 18 101 18q46 0 96 -16q41 -13 79 -46q34 -29 55 -75q20 -43 20 -105q0 -19 -4 -39l-8 -45 l-152 -688h-106l151 688q0 1 1.5 5t2.5 8.5t2 9.5q3 16 3 32q0 86 -55 130q-56 45 -126 45q-38 0 -79 -15q-46 -17 -80 -38q-42 -26 -74 -55q-37 -34 -64 -65l-163 -745h-109l154 688q4 22 6 35q2 16 2 33q-1 68 -48 115q-46 46 -136 46q-79 0 -156 -52q-76 -51 -137 -120 l-166 -745h-107z" />
<glyph unicode="n" horiz-adv-x="1105" d="M55 0l219 989h107l-33 -149q34 34 73 63q47 35 86 55q53 27 95 40q53 16 103 16q126 0 207 -60t81 -182q0 -17 -4 -41q-6 -35 -8 -43l-152 -688h-106l147 672q5 17 9 34t4 37q0 93 -63 134q-64 41 -158 41q-48 0 -94 -15q-44 -14 -89 -39q-37 -20 -82 -55 q-36 -28 -69 -64l-166 -745h-107z" />
<glyph unicode="o" d="M92 410q0 115 41 226q39 106 114 193q74 86 173 135q102 50 217 50q98 0 180 -31q79 -30 137 -88t88 -137q31 -82 31 -178q0 -116 -41 -227q-40 -108 -113 -193q-72 -84 -174 -134q-104 -51 -217 -51q-97 0 -181 31q-78 29 -137 88q-57 57 -87 137q-31 82 -31 179z M209 414q0 -156 84 -249t237 -93q92 0 171 43q80 44 136 113t88 161q31 89 31 186q0 156 -84 249q-85 94 -237 94q-91 0 -171 -44q-78 -43 -135 -113q-56 -69 -88 -161q-32 -91 -32 -186z" />
<glyph unicode="p" horiz-adv-x="1161" d="M-29 -377l303 1366h107l-33 -149q60 78 147 126t193 48q82 0 155 -28q71 -27 122 -80q51 -52 79 -128q29 -78 29 -170q0 -127 -37 -239q-39 -119 -105 -202q-68 -86 -164 -139q-95 -53 -212 -53q-120 0 -214 54q-90 52 -142 139l-121 -545h-107zM217 252q39 -76 122 -127 q86 -53 206 -53q93 0 170 44q76 43 129 116q53 72 83 165q29 88 29 191q0 154 -81 241q-83 89 -218 89q-49 0 -102 -16q-48 -14 -92 -42q-47 -29 -79 -60q-34 -33 -62 -73z" />
<glyph unicode="q" horiz-adv-x="1161" d="M92 381q0 128 37 240q39 117 105 201q70 88 165 140t213 52q122 0 214 -53q90 -52 143 -140l35 168h108l-303 -1366h-109l119 527q-61 -78 -147 -126q-87 -49 -193 -49q-83 0 -156 28q-71 27 -122 80q-52 54 -80 127q-29 76 -29 171zM209 401q0 -153 82 -241t217 -88 q52 0 101 15q48 14 93 41q41 24 80 60q38 35 62 74l104 475q-39 76 -122 127q-88 54 -205 54q-90 0 -169 -45q-78 -44 -130 -116q-53 -72 -83 -165q-30 -92 -30 -191z" />
<glyph unicode="r" horiz-adv-x="649" d="M55 0l219 989h107l-37 -160q77 89 160 135t217 46l-27 -115q-2 0 -7 1l-10 2t-10 1q-24 2 -44 2q-45 0 -89 -15q-43 -15 -83 -41q-38 -25 -72 -59q-36 -36 -57 -65l-160 -721h-107z" />
<glyph unicode="s" horiz-adv-x="940" d="M16 150l76 73q39 -61 124 -109q86 -48 200 -48q64 0 109 17q47 18 82 45q33 26 52 65q19 40 19 77q0 54 -39 88q-43 38 -98 64q-66 31 -127 53q-66 23 -127 57q-59 33 -99 77q-38 42 -38 112q0 63 23 113q24 53 70 93q44 39 113 63q68 24 154 24q130 0 224 -48 q96 -49 136 -114l-69 -70q-18 31 -46 55q-31 26 -70 45q-34 16 -87 30q-46 12 -96 12q-111 0 -178 -52q-66 -51 -66 -127q0 -50 39 -83q40 -34 98 -60q56 -25 127 -52q66 -25 127 -60q62 -35 99 -80q38 -45 38 -117q0 -62 -24 -119q-23 -56 -72 -101q-46 -43 -117 -71 q-69 -27 -159 -27q-273 0 -398 175z" />
<glyph unicode="t" horiz-adv-x="563" d="M111 139q0 4 2 24q1 15 6 30l155 702h-163l20 94h164l59 271h109l-60 -271h201l-22 -94h-201l-152 -686q-2 -14 -3 -20t-1 -23q0 -94 101 -94q31 0 57 11q32 13 47 26l21 -86q-26 -19 -64 -34q-36 -14 -78 -14q-93 0 -145 39q-53 39 -53 125z" />
<glyph unicode="u" horiz-adv-x="1105" d="M111 217q0 17 4 41q6 35 8 43l149 688h109l-150 -670q-4 -14 -7 -34q-3 -21 -3 -39q0 -92 63 -133q64 -41 156 -41q95 0 184 53q88 52 152 121l166 743h107l-220 -989h-106l33 150q-38 -38 -73 -64q-47 -35 -86 -55q-51 -26 -96 -40q-53 -16 -102 -16q-127 0 -208 60 q-80 59 -80 182z" />
<glyph unicode="v" horiz-adv-x="985" d="M123 989h115l165 -864l551 864h125l-637 -989h-120z" />
<glyph unicode="w" horiz-adv-x="1472" d="M143 989h109l78 -839l465 839h90l92 -839l450 839h119l-540 -989h-103l-90 846l-465 -846h-102z" />
<glyph unicode="x" horiz-adv-x="980" d="M-76 0l502 508l-260 481h121l215 -407l395 407h135l-477 -481l281 -508h-121l-232 436l-424 -436h-135z" />
<glyph unicode="y" horiz-adv-x="985" d="M-94 -381l41 102q20 -9 42 -13q28 -5 54 -5q41 0 76 24q37 26 80 89l118 178l-194 995h115l165 -864l551 864h125l-780 -1206q-61 -93 -125 -138q-65 -46 -151 -46q-29 0 -62 5q-32 5 -55 15z" />
<glyph unicode="z" horiz-adv-x="960" d="M4 0l19 88l757 807h-577l20 94h723l-18 -86l-764 -809h590l-19 -94h-731z" />
<glyph unicode="{" horiz-adv-x="509" d="M-31 -190q0 31 8 55l101 448q2 14 3 19t1 18q0 44 -22 77q-21 32 -58 32l18 82q62 0 95 44q33 43 45 101l100 449q28 126 104 190t181 64h127l-21 -89h-127q-66 0 -112 -44t-62 -121l-104 -465q-15 -65 -45 -112q-29 -44 -86 -66q32 -16 46 -47q13 -29 13 -64 q0 -10 -2 -34q-2 -18 -6 -36l-98 -446q-2 -14 -3 -22q-2 -16 -2 -21q0 -54 34 -88q35 -35 85 -35h115l-21 -88h-100q-40 0 -76 13t-66 40q-28 25 -47 63q-18 36 -18 83z" />
<glyph unicode="|" horiz-adv-x="425" d="M211 -41v1448h88v-1448h-88z" />
<glyph unicode="}" horiz-adv-x="509" d="M-164 -389l21 88h125q68 0 114 44q45 44 62 122l102 465q16 62 47 111q30 46 86 69q-32 16 -46 45q-13 27 -13 63q0 10 2 34q2 18 6 36l98 447q0 2 1 6t1.5 7.5t0.5 7.5q1 8 1 22q0 55 -33 88q-34 34 -85 34h-115l20 89h101q37 0 76 -14q37 -13 65 -40q29 -27 46 -63 q18 -38 18 -82q0 -20 -1 -30q-1 -14 -6 -25l-100 -449q-2 -10 -3 -18q-1 -5 -1 -19q0 -45 21 -77q21 -31 59 -31l-19 -82q-61 0 -94 -44q-33 -43 -45 -102l-100 -448q-29 -128 -104 -191t-181 -63h-127z" />
<glyph unicode="~" horiz-adv-x="1021" d="M141 887q20 91 53 180q32 87 75 152q41 63 100 104q55 39 127 39q69 0 105 -30q35 -29 55 -75q20 -45 27 -97q9 -64 18 -97q12 -46 34 -75q23 -30 70 -30q81 0 149 108q69 111 115 300l86 -10q-22 -88 -53 -179q-30 -88 -74 -154q-45 -68 -100 -107t-129 -39 q-71 0 -106 29q-36 30 -54 75q-19 47 -26 96q-10 66 -18 97q-12 44 -34 74q-23 30 -69 30q-82 0 -151 -107q-69 -106 -114 -299z" />
<glyph unicode="&#xa1;" horiz-adv-x="448" d="M-39 -377l250 1010h84l-197 -1010h-137zM225 911q0 41 29 70t70 29q33 0 58 -25q24 -24 24 -59q0 -42 -29 -69q-30 -28 -70 -28q-34 0 -58 24t-24 58z" />
<glyph unicode="&#xa2;" horiz-adv-x="1011" d="M94 414q0 121 42 229t116 191q71 80 173 131q98 49 214 49l33 143h90l-35 -149q93 -15 162 -59q68 -44 108 -115l-82 -62q-34 61 -89 96q-54 35 -119 45l-187 -841h25q84 0 152 34t116 93l61 -74q-67 -67 -146 -108q-81 -42 -193 -42h-19q-4 0 -18 2l-39 -182h-90l43 195 q-143 30 -231 139q-87 108 -87 285zM207 412q0 -136 62 -216q64 -82 163 -110l186 829q-94 -6 -172 -50q-76 -43 -129 -113q-52 -69 -81 -158q-29 -90 -29 -182z" />
<glyph unicode="&#xa3;" horiz-adv-x="1032" d="M2 84q69 27 144 76q69 45 119 98q49 52 80 114q30 60 30 120q0 26 -6 55h-322l19 86h270q-15 31 -42 70q-22 31 -44 71q-19 33 -35 79q-14 39 -14 93q0 86 37 164q39 82 102 141q66 61 153 99q84 36 189 36q70 0 131 -16q63 -17 118 -47q54 -30 92 -74t54 -94l-108 -49 q-21 79 -100 128q-80 50 -183 50q-74 0 -136 -23q-64 -24 -114 -69q-49 -44 -79 -108q-29 -61 -29 -142q0 -54 14 -92q17 -45 34 -77q18 -33 42 -70q28 -43 41 -70h301l-19 -86h-258l3 -21q1 -7 1 -20q0 -58 -22 -109q-23 -54 -58 -99q-33 -43 -78 -83q-40 -36 -81 -61 q27 8 48 12q19 4 50 4q53 0 94 -14q45 -16 83 -31q27 -11 79 -31q36 -14 86 -14q64 0 113 24q47 23 84 60l33 -96q-53 -43 -107 -69q-59 -28 -127 -28q-66 0 -119 16q-59 18 -93 32q-42 17 -92 33q-51 16 -116 16q-52 0 -113 -23q-67 -25 -124 -59z" />
<glyph unicode="&#xa4;" horiz-adv-x="1413" d="M70 496l18 84h94q0 58 7 107q6 45 20 101h-74l19 84h79q44 119 117 215q75 98 168 163q98 68 202 103q108 36 220 36q181 0 320 -76t217 -217l-113 -52q-73 131 -185 184q-114 54 -247 54q-82 0 -171 -28q-83 -26 -160 -80q-72 -50 -136 -130q-61 -76 -100 -172h694 l-21 -84h-702q-14 -56 -20 -101q-7 -49 -7 -107h684l-18 -84h-662q23 -191 152 -302q130 -112 338 -112q98 0 197 38q97 37 190 118l82 -70q-104 -99 -229 -146q-126 -47 -246 -47q-127 0 -232 37q-106 37 -187 105q-80 66 -130 164q-50 97 -62 215h-116z" />
<glyph unicode="&#xa5;" horiz-adv-x="1265" d="M-10 258l18 84h537l55 242h-537l17 86h479l-332 696h131l314 -672l608 672h152l-637 -696h465l-19 -86h-524l-53 -242h522l-19 -84h-522l-57 -258h-119l57 258h-536z" />
<glyph unicode="&#xa6;" horiz-adv-x="425" d="M211 -41v647h88v-647h-88zM211 760v647h88v-647h-88z" />
<glyph unicode="&#xa7;" horiz-adv-x="944" d="M-33 -2l78 68q47 -70 137 -109t201 -39q116 0 188 63t72 152q0 55 -39 91t-96 63t-126 51t-126 57q-56 33 -96 80q-39 47 -39 121q0 98 79 177q78 78 234 99q-88 32 -146 87q-57 54 -57 141q0 51 24 103q23 50 68 92q44 41 109 66t152 25q134 0 230 -40t157 -113l-74 -62 q-53 72 -138 102q-86 30 -169 30q-109 0 -181 -55q-71 -54 -71 -132q0 -58 39 -92t98 -61q62 -28 127 -51q71 -25 127 -56q59 -32 98 -82t39 -125q0 -93 -62 -171q-62 -79 -200 -118q89 -47 119 -98q31 -53 31 -117q0 -56 -25 -114q-24 -55 -72 -100q-46 -43 -114 -70 q-67 -27 -156 -27q-146 0 -250 43t-170 121zM229 612q0 -40 20 -71q21 -33 56 -55t89 -44q37 -15 116 -43q136 39 191 103t55 127q0 39 -18 69q-20 34 -46 54q-31 25 -68 41q-39 17 -83 34q-164 -23 -238 -83t-74 -132z" />
<glyph unicode="&#xa8;" horiz-adv-x="536" d="M143 1223q0 35 26 59q27 25 60 25q29 0 49 -20q19 -19 19 -48q0 -35 -26 -59q-27 -25 -60 -25q-28 0 -48 20t-20 48zM561 1223q0 35 26 59q27 25 60 25q28 0 48 -20t20 -48q0 -34 -25 -59t-59 -25q-27 0 -49 20q-21 19 -21 48z" />
<glyph unicode="&#xa9;" horiz-adv-x="1593" d="M131 684q0 149 55 275q56 128 151 225q93 95 224 151q130 56 275 56q146 0 276 -56t225 -151q96 -96 152 -225q55 -126 55 -275q0 -146 -55 -274q-56 -130 -152 -226q-95 -95 -225 -151t-276 -56q-145 0 -275 56q-131 56 -224 151q-96 97 -151 226q-55 128 -55 274z M188 684q0 -131 52 -252q51 -119 139 -207t206 -139q119 -51 251 -51q134 0 253 51q118 51 206 139q91 91 141 207q51 118 51 252t-51 253q-49 114 -141 206q-88 88 -206 139t-253 51q-132 0 -251 -51q-118 -51 -206 -139t-139 -206q-52 -121 -52 -253zM403 629 q0 105 41 196q41 90 109 157t155 104q88 38 179 38q107 0 187 -40q82 -41 130 -123l-55 -39q-38 69 -106 105q-69 36 -156 36q-77 0 -150 -33t-133 -90q-57 -54 -96 -137q-37 -78 -37 -174q0 -65 24 -124q26 -63 66 -103q44 -44 103 -69q61 -26 133 -26q63 0 130 28 q62 26 107 68l35 -51q-57 -48 -123 -77q-65 -29 -149 -29q-95 0 -166 29q-76 31 -124 82q-50 53 -77 122t-27 150z" />
<glyph unicode="&#xaa;" horiz-adv-x="837" d="M186 928q0 78 27 150q28 74 73 128q46 55 109 88t140 33q81 0 143 -32q61 -31 96 -85l23 101h88l-144 -643h-88l23 102q-45 -58 -104 -89q-57 -30 -128 -30q-50 0 -97 18q-48 19 -82 51q-37 35 -57 86q-22 55 -22 122zM279 934q0 -105 53 -158t139 -53q71 0 126 35 q53 34 95 82l70 311q-28 48 -85 76t-130 28q-58 0 -107 -25q-48 -25 -85 -71q-35 -43 -56 -103q-20 -56 -20 -122z" />
<glyph unicode="&#xab;" horiz-adv-x="823" d="M59 498l410 362h125l-418 -373l238 -358h-109zM315 498l410 362h125l-418 -373l238 -358h-109z" />
<glyph unicode="&#xac;" horiz-adv-x="1021" d="M135 842l19 86h897l-107 -486h-90l88 400h-807z" />
<glyph unicode="&#xad;" horiz-adv-x="614" d="M49 446l21 99h491l-20 -99h-492z" />
<glyph unicode="&#xae;" horiz-adv-x="1011" d="M172 952q0 92 34 170q36 84 93 139q59 58 138 92q76 33 169 33q94 0 170 -33q81 -35 138 -92q58 -58 93 -139q33 -76 33 -170q0 -93 -33 -169q-34 -78 -94 -138q-58 -58 -139 -93q-78 -34 -170 -34q-91 0 -169 34q-80 35 -137 93q-58 59 -92 138q-34 78 -34 169zM227 952 q0 -77 30 -146q30 -68 81 -121q50 -52 120 -82q69 -30 146 -30q79 0 148 30t121 82t82 121t30 146q0 80 -30 149q-30 70 -82 120q-53 51 -121 81q-67 29 -148 29q-79 0 -146 -29q-69 -30 -120 -81t-81 -120t-30 -149zM387 702l109 498h186q54 0 97 -33q44 -33 44 -98 q0 -37 -15 -69t-39 -53q-27 -23 -52 -34q-29 -12 -58 -12l91 -199h-74l-86 197h-98l-43 -197h-62zM504 958h141q47 0 80 30t33 73q0 40 -26 61t-60 21h-127z" />
<glyph unicode="&#xaf;" horiz-adv-x="743" d="M158 1210l16 78h741l-16 -78h-741z" />
<glyph unicode="&#xb0;" horiz-adv-x="577" d="M193 1147q0 49 18 93q19 45 51 76q33 32 76 51q42 19 92 19q51 0 93 -19q45 -20 76 -51t51 -76t20 -93q0 -47 -20 -92q-20 -43 -51 -75q-32 -32 -76 -50q-46 -19 -93 -19q-46 0 -92 19q-42 17 -76 50q-33 32 -51 75t-18 92zM274 1147q0 -65 44 -111q43 -45 110 -45 q66 0 114 45t48 111q0 33 -13 62q-14 31 -35 52t-50 33q-31 13 -62 13q-66 0 -111 -47q-45 -46 -45 -113z" />
<glyph unicode="&#xb1;" horiz-adv-x="1015" d="M-51 0l18 84h897l-18 -84h-897zM94 662l21 83h401l96 435h90l-94 -435h404l-19 -83h-403l-98 -447h-93l99 447h-404z" />
<glyph unicode="&#xb2;" horiz-adv-x="786" d="M186 862l19 80l237 147q113 72 188 133q79 64 124 127t45 126q0 35 -17 63q-15 25 -42 44t-59 26q-37 8 -69 8q-146 0 -231 -96l-45 61q51 53 122 83t154 30q50 0 99 -12q53 -13 90 -36q39 -25 66 -67q26 -41 26 -100q0 -76 -46 -144q-48 -71 -123 -136 q-77 -67 -176 -131l-206 -128h436l-16 -78h-576z" />
<glyph unicode="&#xb3;" horiz-adv-x="786" d="M213 995l66 52q40 -61 102 -91q63 -30 141 -30q95 0 148 53t53 131q0 60 -59 98q-60 39 -154 39h-32q-11 0 -25 -2l16 78q23 -1 57 -3q23 -1 64 -1q91 0 148 42t57 116q0 64 -61 102q-59 37 -140 37q-63 0 -118 -22q-51 -21 -105 -68l-41 59q45 42 119 76q72 33 149 33 q53 0 110 -13q52 -12 92 -37q38 -24 63 -65q24 -39 24 -90q0 -97 -66 -152t-162 -63q30 -6 58 -21q32 -17 51 -36q22 -22 36 -53q13 -29 13 -66q0 -46 -19 -90t-58 -80t-92 -58t-124 -22q-107 0 -189 38t-122 109z" />
<glyph unicode="&#xb4;" horiz-adv-x="442" d="M137 1139l381 295h129l-418 -295h-92z" />
<glyph unicode="&#xb5;" horiz-adv-x="1105" d="M-29 -377l303 1366h107l-154 -696q-3 -11 -5 -34q-1 -12 -1 -34q0 -92 52 -125q51 -32 141 -32q51 0 97 14q54 16 98 37q46 22 90 53q42 30 73 64l170 753h107l-220 -989h-106l31 145q-76 -67 -181 -118q-107 -52 -213 -52q-128 0 -192 52l-90 -404h-107z" />
<glyph unicode="&#xb6;" horiz-adv-x="919" d="M162 981q0 74 29 141q30 70 83 124q51 53 126 87q72 33 159 33h385l-348 -1571h-78l332 1493h-191l-331 -1493h-78l192 867q-59 0 -108 23q-53 25 -89 67q-40 46 -61 101q-22 57 -22 128z" />
<glyph unicode="&#xb7;" horiz-adv-x="448" d="M133 494q0 41 30 68q31 28 70 28q35 0 59 -24q23 -23 23 -58q0 -42 -28 -69q-29 -27 -70 -27q-36 0 -59 23q-25 25 -25 59z" />
<glyph unicode="&#xb8;" horiz-adv-x="405" d="M-182 -311l47 61q33 -33 80 -52q43 -17 90 -17q69 0 102 30t33 74q0 30 -22 50t-60 20q-46 0 -76 -37l-49 32l100 173h78l-84 -138q31 23 70 23q52 0 86 -31q33 -30 33 -86q0 -78 -59 -128t-156 -50q-73 0 -125 21t-88 55z" />
<glyph unicode="&#xb9;" horiz-adv-x="438" d="M250 1479l244 202h81l-180 -819h-94l152 690l-158 -135z" />
<glyph unicode="&#xba;" horiz-adv-x="829" d="M190 940q0 77 29 149q29 71 78 123q52 55 116 84q68 31 144 31q134 0 216 -80q81 -79 81 -209q0 -76 -29 -148q-30 -74 -77 -124q-52 -55 -116 -84q-68 -31 -145 -31q-134 0 -216 80q-81 79 -81 209zM283 940q0 -95 56 -154t150 -59q61 0 113 26t87 68q35 43 55 100 q20 58 20 117q0 94 -57 153q-57 58 -150 58q-63 0 -113 -25q-51 -26 -87 -69t-55 -98q-19 -54 -19 -117z" />
<glyph unicode="&#xbb;" horiz-adv-x="823" d="M-23 129l418 373l-237 358h108l246 -368l-410 -363h-125zM231 129l420 373l-237 358h108l246 -368l-410 -363h-127z" />
<glyph unicode="&#xbc;" horiz-adv-x="1519" d="M86 0l1174 1366h94l-1176 -1366h-92zM180 1163l244 203h82l-180 -819h-95l152 690l-158 -135zM758 219l16 72l483 528h125l-116 -524h123l-15 -76h-123l-49 -219h-90l47 219h-401zM870 295h306l96 432z" />
<glyph unicode="&#xbd;" horiz-adv-x="1599" d="M86 0l1174 1366h94l-1176 -1366h-92zM180 1163l244 203h82l-180 -819h-95l152 690l-158 -135zM809 0l18 80l238 146q109 69 187 133q79 64 124 127t45 126q0 38 -16 64q-15 25 -42 44q-25 18 -59 25q-41 9 -69 9q-145 0 -231 -97l-46 62q51 53 122 83q68 29 155 29 q53 0 98 -11q51 -12 90 -37q42 -27 67 -66q26 -41 26 -101q0 -73 -47 -143q-49 -73 -122 -136q-74 -64 -177 -131l-205 -128h436l-17 -78h-575z" />
<glyph unicode="&#xbe;" horiz-adv-x="1759" d="M143 680l66 51q39 -60 102 -90q65 -31 142 -31q93 0 147 54q53 53 53 131q0 60 -59 98q-60 39 -154 39h-31q-12 0 -26 -2l16 78q21 -1 58 -3q23 -1 63 -1q92 0 149 42q56 41 56 115q0 65 -60 103q-58 36 -141 36q-64 0 -117 -21q-51 -20 -106 -69l-41 60q45 42 119 76 q70 32 149 32q58 0 110 -12q50 -11 92 -38q40 -25 64 -64q23 -37 23 -90q0 -97 -65 -152q-67 -57 -162 -64q32 -7 57 -20q30 -16 51 -37q23 -23 36 -52q14 -31 14 -67q0 -44 -20 -90t-57 -80t-92 -57t-124 -23q-108 0 -190 38q-81 38 -122 110zM326 0l1173 1366h94 l-1175 -1366h-92zM997 219l17 72l483 528h125l-117 -524h123l-14 -76h-123l-49 -219h-90l47 219h-402zM1110 295h305l96 432z" />
<glyph unicode="&#xbf;" horiz-adv-x="802" d="M-57 -100q0 92 40 154q41 63 101 109q57 43 131 80q90 45 131 68q59 33 101 75q40 40 40 99q0 21 -9 45q-10 26 -32 48l95 49q53 -67 53 -146q0 -75 -39 -124q-41 -52 -97 -88q-55 -35 -126 -70q-68 -33 -126 -72q-57 -38 -97 -89q-39 -50 -39 -124q0 -92 74 -148 q75 -57 210 -57q200 0 342 148l58 -80q-92 -93 -193 -133q-102 -41 -217 -41q-91 0 -164 21t-127 61q-55 41 -82 94q-28 55 -28 121zM496 911q0 42 28 69q30 28 70 28q34 0 58 -24t24 -58q0 -42 -29 -69q-30 -28 -69 -28q-35 0 -59 24q-23 23 -23 58z" />
<glyph unicode="&#xc0;" horiz-adv-x="1325" d="M-80 0l860 1366h146l258 -1366h-129l-62 336h-723l-209 -336h-141zM332 442h647l-148 799zM629 1786h127l250 -295h-91z" />
<glyph unicode="&#xc1;" horiz-adv-x="1325" d="M-80 0l860 1366h146l258 -1366h-129l-62 336h-723l-209 -336h-141zM332 442h647l-148 799zM758 1491l381 295h129l-418 -295h-92z" />
<glyph unicode="&#xc2;" horiz-adv-x="1325" d="M-80 0l860 1366h146l258 -1366h-129l-62 336h-723l-209 -336h-141zM332 442h647l-148 799zM629 1491l264 295h111l137 -295h-78l-127 231l-221 -231h-86z" />
<glyph unicode="&#xc3;" horiz-adv-x="1325" d="M-80 0l860 1366h146l258 -1366h-129l-62 336h-723l-209 -336h-141zM332 442h647l-148 799zM571 1499q12 57 32 108q19 49 48 87q28 37 66 58q39 22 84 22q58 0 85 -33q28 -35 47 -72q18 -35 41 -72q20 -32 66 -32q48 0 82 46q36 48 62 150h73q-13 -63 -32 -107 q-22 -51 -49 -87q-28 -37 -67 -59q-37 -21 -83 -21q-58 0 -85 33q-30 36 -47 71q-18 35 -41 72q-21 33 -67 33q-47 0 -81 -46q-37 -50 -60 -151h-74z" />
<glyph unicode="&#xc4;" horiz-adv-x="1325" d="M-80 0l860 1366h146l258 -1366h-129l-62 336h-723l-209 -336h-141zM332 442h647l-148 799zM616 1567q0 35 26 59q27 25 60 25q29 0 49 -20q19 -19 19 -48q0 -35 -26 -59q-27 -25 -60 -25q-28 0 -48 20t-20 48zM1034 1567q0 35 26 59q27 25 60 25q28 0 48 -20t20 -48 q0 -34 -25 -59t-59 -25q-27 0 -49 20q-21 19 -21 48z" />
<glyph unicode="&#xc5;" horiz-adv-x="1325" d="M-80 0l860 1366h146l258 -1366h-129l-62 336h-723l-209 -336h-141zM332 442h647l-148 799zM711 1595q0 45 17 82q18 40 46 69q27 28 69 47q38 17 83 17q78 0 128 -50t50 -128q0 -42 -18 -83q-18 -40 -47 -68q-30 -28 -68 -46q-39 -18 -82 -18q-78 0 -128 50t-50 128z M776 1602q0 -52 31 -86q30 -33 84 -33q59 0 103 42t44 101q0 54 -31 86q-32 33 -83 33q-60 0 -104 -42t-44 -101z" />
<glyph unicode="&#xc6;" horiz-adv-x="1923" d="M-82 0l1163 1366h910l-23 -106h-747l-113 -506h733l-22 -107h-736l-118 -541h747l-22 -106h-867l74 336h-555l-283 -336h-141zM426 442h496l174 789z" />
<glyph unicode="&#xc7;" horiz-adv-x="1374" d="M137 567q0 185 65 338q64 151 171 259q106 108 242 166q138 59 280 59q180 0 319 -76q141 -77 218 -217l-113 -52q-73 131 -185 184q-114 54 -247 54q-117 0 -229 -50q-108 -48 -199 -142q-89 -92 -142 -224t-53 -295q0 -109 35 -200q34 -90 98 -155q63 -64 155 -99 q93 -35 206 -35q98 0 197 38q97 37 190 118l82 -70q-104 -99 -229 -146q-126 -47 -246 -47h-20q-5 0 -19 2l-56 -92q31 23 70 23q52 0 86 -31q33 -30 33 -86q0 -78 -59 -128t-156 -50q-73 0 -125 21t-88 55l47 61q33 -33 80 -52q43 -17 90 -17q69 0 102 30t33 74 q0 31 -21 50q-22 20 -61 20q-46 0 -76 -37l-49 32l78 134q-115 17 -205 64q-93 49 -158 124q-67 78 -104 175q-37 98 -37 220z" />
<glyph unicode="&#xc8;" horiz-adv-x="1155" d="M59 0l301 1366h867l-23 -106h-749l-111 -506h733l-24 -107h-734l-120 -541h749l-22 -106h-867zM567 1786h127l250 -295h-90z" />
<glyph unicode="&#xc9;" horiz-adv-x="1155" d="M59 0l301 1366h867l-23 -106h-749l-111 -506h733l-24 -107h-734l-120 -541h749l-22 -106h-867zM696 1491l381 295h129l-418 -295h-92z" />
<glyph unicode="&#xca;" horiz-adv-x="1155" d="M59 0l301 1366h867l-23 -106h-749l-111 -506h733l-24 -107h-734l-120 -541h749l-22 -106h-867zM563 1491l264 295h111l137 -295h-78l-127 231l-221 -231h-86z" />
<glyph unicode="&#xcb;" horiz-adv-x="1155" d="M59 0l301 1366h867l-23 -106h-749l-111 -506h733l-24 -107h-734l-120 -541h749l-22 -106h-867zM551 1567q0 35 26 59q27 25 60 25q28 0 48 -20t20 -48q0 -35 -26 -59q-27 -25 -60 -25q-29 0 -49 20q-19 19 -19 48zM969 1567q0 35 25 59q27 25 61 25q28 0 48 -20 q19 -19 19 -48q0 -35 -24 -59q-25 -25 -60 -25q-27 0 -49 20q-20 19 -20 48z" />
<glyph unicode="&#xcc;" horiz-adv-x="456" d="M59 0l301 1366h117l-301 -1366h-117zM195 1786h127l249 -295h-90z" />
<glyph unicode="&#xcd;" horiz-adv-x="456" d="M59 0l301 1366h117l-301 -1366h-117zM324 1491l381 295h129l-418 -295h-92z" />
<glyph unicode="&#xce;" horiz-adv-x="456" d="M59 0l301 1366h117l-301 -1366h-117zM195 1491l264 295h110l138 -295h-78l-127 231l-221 -231h-86z" />
<glyph unicode="&#xcf;" horiz-adv-x="456" d="M59 0l301 1366h117l-301 -1366h-117zM180 1567q0 35 26 59q27 25 60 25q28 0 48 -20t20 -48q0 -35 -26 -59q-27 -25 -60 -25q-28 0 -48 20t-20 48zM598 1567q0 35 26 59q27 25 60 25q28 0 48 -20t20 -48q0 -34 -25 -59t-59 -25q-28 0 -50 20q-20 19 -20 48z" />
<glyph unicode="&#xd0;" horiz-adv-x="1476" d="M51 633l23 102h207l139 631h426q115 0 216 -43t176 -121q76 -79 119 -184q44 -108 44 -234q0 -141 -52 -281t-158 -252q-107 -113 -264 -181q-161 -70 -374 -70h-434l139 633h-207zM258 106h315q159 0 292 55q130 54 222 146q93 93 142 215t49 258q0 104 -35 192 q-34 85 -95 151q-60 65 -143 101t-182 36h-309l-117 -525h367l-23 -102h-366z" />
<glyph unicode="&#xd1;" horiz-adv-x="1431" d="M59 0l301 1366h119l596 -1167l260 1167h117l-301 -1366h-115l-598 1184l-262 -1184h-117zM621 1499q13 63 31 108q20 49 48 87q28 37 66 58q39 22 84 22q58 0 85 -33q28 -35 47 -72q18 -35 41 -72q20 -32 67 -32t81 46q36 48 62 150h74q-12 -58 -33 -107q-22 -51 -49 -87 q-28 -37 -67 -59q-38 -21 -83 -21q-58 0 -85 33q-30 36 -47 71q-18 35 -41 72q-21 33 -66 33q-48 0 -82 -46q-37 -50 -60 -151h-73z" />
<glyph unicode="&#xd2;" horiz-adv-x="1564" d="M137 567q0 171 61 324q59 148 162 260q101 110 241 174t294 64q128 0 239 -39q113 -40 194 -115q84 -78 131 -185q48 -109 48 -253q0 -175 -59 -323q-60 -151 -163 -261t-241 -174q-139 -64 -292 -64q-128 0 -240 39q-114 40 -196 114q-84 76 -131 185q-48 111 -48 254z M264 571q0 -121 39 -212q38 -89 107 -152q68 -61 156 -93q90 -32 192 -32q121 0 235 53q113 53 199 148q87 96 137 224q51 131 51 286q0 121 -40 211q-41 93 -107 153q-67 61 -158 93t-190 32q-124 0 -238 -53q-109 -51 -197 -148t-136 -224q-50 -132 -50 -286zM756 1786 h127l250 -295h-91z" />
<glyph unicode="&#xd3;" horiz-adv-x="1564" d="M137 567q0 171 61 324q59 148 162 260q101 110 241 174t294 64q128 0 239 -39q113 -40 194 -115q84 -78 131 -185q48 -109 48 -253q0 -175 -59 -323q-60 -151 -163 -261t-241 -174q-139 -64 -292 -64q-128 0 -240 39q-114 40 -196 114q-84 76 -131 185q-48 111 -48 254z M264 571q0 -121 39 -212q38 -89 107 -152q68 -61 156 -93q90 -32 192 -32q121 0 235 53q113 53 199 148q87 96 137 224q51 131 51 286q0 121 -40 211q-41 93 -107 153q-67 61 -158 93t-190 32q-124 0 -238 -53q-109 -51 -197 -148t-136 -224q-50 -132 -50 -286zM879 1491 l381 295h129l-418 -295h-92z" />
<glyph unicode="&#xd4;" horiz-adv-x="1564" d="M137 567q0 171 61 324q59 148 162 260q101 110 241 174t294 64q128 0 239 -39q113 -40 194 -115q84 -78 131 -185q48 -109 48 -253q0 -175 -59 -323q-60 -151 -163 -261t-241 -174q-139 -64 -292 -64q-128 0 -240 39q-114 40 -196 114q-84 76 -131 185q-48 111 -48 254z M264 571q0 -121 39 -212q38 -89 107 -152q68 -61 156 -93q90 -32 192 -32q121 0 235 53q113 53 199 148q87 96 137 224q51 131 51 286q0 121 -40 211q-41 93 -107 153q-67 61 -158 93t-190 32q-124 0 -238 -53q-109 -51 -197 -148t-136 -224q-50 -132 -50 -286zM750 1491 l264 295h110l138 -295h-78l-127 231l-221 -231h-86z" />
<glyph unicode="&#xd5;" horiz-adv-x="1564" d="M137 567q0 171 61 324q59 148 162 260q101 110 241 174t294 64q128 0 239 -39q113 -40 194 -115q84 -78 131 -185q48 -109 48 -253q0 -175 -59 -323q-60 -151 -163 -261t-241 -174q-139 -64 -292 -64q-128 0 -240 39q-114 40 -196 114q-84 76 -131 185q-48 111 -48 254z M264 571q0 -121 39 -212q38 -89 107 -152q68 -61 156 -93q90 -32 192 -32q121 0 235 53q113 53 199 148q87 96 137 224q51 131 51 286q0 121 -40 211q-41 93 -107 153q-67 61 -158 93t-190 32q-124 0 -238 -53q-109 -51 -197 -148t-136 -224q-50 -132 -50 -286zM690 1499 q12 57 32 108q20 49 48 87q28 37 66 58q39 22 84 22q58 0 85 -33q28 -35 47 -72q18 -35 41 -72q20 -32 66 -32q48 0 82 46q36 48 62 150h73q-12 -58 -33 -107q-22 -51 -49 -87q-29 -38 -66 -59q-38 -21 -83 -21q-58 0 -85 33q-30 36 -47 71q-18 35 -41 72q-21 33 -67 33 q-48 0 -82 -46q-35 -48 -59 -151h-74z" />
<glyph unicode="&#xd6;" horiz-adv-x="1564" d="M137 567q0 171 61 324q59 148 162 260q101 110 241 174t294 64q128 0 239 -39q113 -40 194 -115q84 -78 131 -185q48 -109 48 -253q0 -175 -59 -323q-60 -151 -163 -261t-241 -174q-139 -64 -292 -64q-128 0 -240 39q-114 40 -196 114q-84 76 -131 185q-48 111 -48 254z M264 571q0 -121 39 -212q38 -89 107 -152q68 -61 156 -93q90 -32 192 -32q121 0 235 53q113 53 199 148q87 96 137 224q51 131 51 286q0 121 -40 211q-41 93 -107 153q-67 61 -158 93t-190 32q-124 0 -238 -53q-109 -51 -197 -148t-136 -224q-50 -132 -50 -286zM731 1567 q0 35 26 59q27 25 60 25q28 0 48 -20t20 -48q0 -35 -26 -59q-27 -25 -60 -25q-28 0 -48 20t-20 48zM1149 1567q0 35 26 59q27 25 60 25q28 0 48 -20t20 -48q0 -34 -25 -59t-59 -25q-28 0 -50 20q-20 19 -20 48z" />
<glyph unicode="&#xd7;" horiz-adv-x="1015" d="M106 375l383 315l-239 307l67 56l238 -310l385 314l51 -64l-383 -315l238 -307l-66 -54l-239 308l-381 -314z" />
<glyph unicode="&#xd8;" horiz-adv-x="1564" d="M137 567q0 171 61 324q59 148 162 260q101 110 241 174t294 64q107 0 205 -29q93 -28 174 -82l76 88h106l-119 -139q78 -76 124 -184q46 -107 46 -246q0 -175 -59 -323q-60 -151 -163 -261t-241 -174q-139 -64 -292 -64q-109 0 -210 29q-98 28 -177 86l-78 -90h-105 l121 141q-79 77 -122 183q-44 108 -44 243zM264 571q0 -105 31 -192q30 -84 86 -146l815 955q-130 94 -311 94q-124 0 -238 -53q-109 -51 -197 -148t-136 -224q-50 -132 -50 -286zM440 180q67 -50 146 -74t172 -24q121 0 235 53q113 53 199 148q87 96 137 224q51 131 51 286 q0 113 -32 194q-33 83 -91 146z" />
<glyph unicode="&#xd9;" horiz-adv-x="1404" d="M166 420q0 33 3 60q3 31 7 44l184 842h119l-184 -840q-2 -7 -8 -38q-4 -23 -4 -54q0 -156 101 -254t288 -98q98 0 175 31q74 30 128 88t89 139q36 82 58 186l185 840h118l-184 -842q-27 -119 -73 -228q-43 -100 -110 -172q-66 -70 -162 -110q-94 -39 -224 -39 q-116 0 -212 31q-92 30 -159 89q-65 58 -100 141q-35 84 -35 184zM672 1786h127l250 -295h-91z" />
<glyph unicode="&#xda;" horiz-adv-x="1404" d="M166 420q0 33 3 60q3 31 7 44l184 842h119l-184 -840q-2 -7 -8 -38q-4 -23 -4 -54q0 -156 101 -254t288 -98q98 0 175 31q74 30 128 88t89 139q36 82 58 186l185 840h118l-184 -842q-27 -119 -73 -228q-43 -100 -110 -172q-66 -70 -162 -110q-94 -39 -224 -39 q-116 0 -212 31q-92 30 -159 89q-65 58 -100 141q-35 84 -35 184zM795 1491l381 295h129l-418 -295h-92z" />
<glyph unicode="&#xdb;" horiz-adv-x="1404" d="M166 420q0 33 3 60q3 31 7 44l184 842h119l-184 -840q-2 -7 -8 -38q-4 -23 -4 -54q0 -156 101 -254t288 -98q98 0 175 31q74 30 128 88t89 139q36 82 58 186l185 840h118l-184 -842q-27 -119 -73 -228q-43 -100 -110 -172q-66 -70 -162 -110q-94 -39 -224 -39 q-116 0 -212 31q-92 30 -159 89q-65 58 -100 141q-35 84 -35 184zM674 1491l264 295h111l137 -295h-78l-127 231l-221 -231h-86z" />
<glyph unicode="&#xdc;" horiz-adv-x="1404" d="M166 420q0 33 3 60q3 31 7 44l184 842h119l-184 -840q-2 -7 -8 -38q-4 -23 -4 -54q0 -156 101 -254t288 -98q98 0 175 31q74 30 128 88t89 139q36 82 58 186l185 840h118l-184 -842q-27 -119 -73 -228q-43 -100 -110 -172q-66 -70 -162 -110q-94 -39 -224 -39 q-116 0 -212 31q-92 30 -159 89q-65 58 -100 141q-35 84 -35 184zM655 1567q0 35 26 59q27 25 60 25q29 0 49 -20q19 -19 19 -48q0 -35 -26 -59q-27 -25 -60 -25q-28 0 -48 20t-20 48zM1073 1567q0 35 26 59q27 25 60 25q28 0 48 -20t20 -48q0 -34 -25 -59t-59 -25 q-27 0 -49 20q-21 19 -21 48z" />
<glyph unicode="&#xdd;" horiz-adv-x="1265" d="M221 1366h131l314 -672l608 672h151l-714 -782l-129 -584h-119l131 584zM735 1491l381 295h129l-418 -295h-92z" />
<glyph unicode="&#xde;" d="M59 0l301 1366h117l-55 -254h371q74 0 137 -27q67 -29 110 -72q50 -49 75 -109q28 -65 28 -134q0 -79 -29 -161q-28 -79 -90 -146q-61 -66 -158 -108q-96 -42 -231 -42h-389l-70 -313h-117zM270 420h377q94 0 164 29q71 29 115 76t67 110t23 127q0 51 -21 96 q-22 48 -54 78q-35 34 -80 51q-49 19 -97 19h-365z" />
<glyph unicode="&#xdf;" horiz-adv-x="1183" d="M55 0l230 1042q18 77 50 136q35 64 83 109q50 47 114 73t146 26q63 0 120 -16q58 -16 104 -46q48 -31 74 -73q28 -45 28 -96q0 -63 -31 -108q-29 -43 -78 -74q-44 -28 -100 -54q-59 -27 -101 -50q-49 -27 -78 -60q-30 -35 -30 -86q0 -49 38 -81t95 -56q51 -21 124 -48 q66 -24 124 -56t95 -78q38 -47 38 -115q0 -57 -24 -114q-25 -58 -69 -100q-50 -46 -115 -72q-72 -28 -161 -28q-137 0 -233 44q-92 43 -174 141l75 67q51 -67 133 -115q79 -46 201 -46q63 0 113 18q49 18 82 48q32 29 49 68q16 36 16 74q0 53 -38 86q-38 34 -95 59 q-56 25 -125 48q-66 22 -125 53q-56 29 -95 75q-38 44 -38 114q0 67 31 115q29 45 77 79q51 36 100 58q36 16 100 49q48 25 77 54q31 31 31 75q0 37 -21 64q-22 28 -51 47q-30 19 -68 30q-36 10 -75 10q-103 0 -180 -65q-78 -66 -105 -183l-231 -1042h-107z" />
<glyph unicode="&#xe0;" d="M92 381q0 128 37 240q39 117 105 201q70 88 165 140t213 52q122 0 214 -53q90 -52 143 -140l35 168h108l-219 -989h-109l35 150q-61 -78 -147 -126q-87 -49 -193 -49q-83 0 -156 28q-71 27 -122 80q-52 54 -80 127q-29 76 -29 171zM209 401q0 -153 82 -241t217 -88 q52 0 101 15q48 14 93 41q41 24 80 60q38 35 62 74l104 475q-39 76 -122 127q-88 54 -205 54q-90 0 -169 -45q-78 -44 -130 -116q-53 -72 -83 -165q-30 -92 -30 -191zM440 1434h127l250 -295h-90z" />
<glyph unicode="&#xe1;" d="M92 381q0 128 37 240q39 117 105 201q70 88 165 140t213 52q122 0 214 -53q90 -52 143 -140l35 168h108l-219 -989h-109l35 150q-61 -78 -147 -126q-87 -49 -193 -49q-83 0 -156 28q-71 27 -122 80q-52 54 -80 127q-29 76 -29 171zM209 401q0 -153 82 -241t217 -88 q52 0 101 15q48 14 93 41q41 24 80 60q38 35 62 74l104 475q-39 76 -122 127q-88 54 -205 54q-90 0 -169 -45q-78 -44 -130 -116q-53 -72 -83 -165q-30 -92 -30 -191zM569 1139l381 295h129l-417 -295h-93z" />
<glyph unicode="&#xe2;" d="M92 381q0 128 37 240q39 117 105 201q70 88 165 140t213 52q122 0 214 -53q90 -52 143 -140l35 168h108l-219 -989h-109l35 150q-61 -78 -147 -126q-87 -49 -193 -49q-83 0 -156 28q-71 27 -122 80q-52 54 -80 127q-29 76 -29 171zM209 401q0 -153 82 -241t217 -88 q52 0 101 15q48 14 93 41q41 24 80 60q38 35 62 74l104 475q-39 76 -122 127q-88 54 -205 54q-90 0 -169 -45q-78 -44 -130 -116q-53 -72 -83 -165q-30 -92 -30 -191zM442 1139l265 295h110l137 -295h-77l-127 231l-222 -231h-86z" />
<glyph unicode="&#xe3;" d="M92 381q0 128 37 240q39 117 105 201q70 88 165 140t213 52q122 0 214 -53q90 -52 143 -140l35 168h108l-219 -989h-109l35 150q-61 -78 -147 -126q-87 -49 -193 -49q-83 0 -156 28q-71 27 -122 80q-52 54 -80 127q-29 76 -29 171zM209 401q0 -153 82 -241t217 -88 q52 0 101 15q48 14 93 41q41 24 80 60q38 35 62 74l104 475q-39 76 -122 127q-88 54 -205 54q-90 0 -169 -45q-78 -44 -130 -116q-53 -72 -83 -165q-30 -92 -30 -191zM383 1147q12 55 32 107q19 50 48 87q30 39 65 59q38 21 84 21q59 0 85 -32q28 -35 47 -72q18 -35 41 -72 q21 -33 67 -33q47 0 82 47q34 46 61 150h74q-12 -58 -33 -107q-23 -53 -49 -88q-28 -37 -66 -58q-37 -21 -83 -21q-59 0 -85 32q-28 35 -47 72q-18 35 -41 72q-20 32 -67 32q-48 0 -82 -46q-36 -48 -59 -150h-74z" />
<glyph unicode="&#xe4;" d="M92 381q0 128 37 240q39 117 105 201q70 88 165 140t213 52q122 0 214 -53q90 -52 143 -140l35 168h108l-219 -989h-109l35 150q-61 -78 -147 -126q-87 -49 -193 -49q-83 0 -156 28q-71 27 -122 80q-52 54 -80 127q-29 76 -29 171zM209 401q0 -153 82 -241t217 -88 q52 0 101 15q48 14 93 41q41 24 80 60q38 35 62 74l104 475q-39 76 -122 127q-88 54 -205 54q-90 0 -169 -45q-78 -44 -130 -116q-53 -72 -83 -165q-30 -92 -30 -191zM432 1223q0 35 26 59q27 25 60 25q28 0 48 -20t20 -48q0 -35 -26 -59q-27 -25 -60 -25q-28 0 -48 20 t-20 48zM850 1223q0 35 26 59q27 25 60 25q28 0 48 -20t20 -48q0 -34 -25 -59t-59 -25q-28 0 -50 20q-20 19 -20 48z" />
<glyph unicode="&#xe5;" d="M92 381q0 128 37 240q39 117 105 201q70 88 165 140t213 52q122 0 214 -53q90 -52 143 -140l35 168h108l-219 -989h-109l35 150q-61 -78 -147 -126q-87 -49 -193 -49q-83 0 -156 28q-71 27 -122 80q-52 54 -80 127q-29 76 -29 171zM209 401q0 -153 82 -241t217 -88 q52 0 101 15q48 14 93 41q41 24 80 60q38 35 62 74l104 475q-39 76 -122 127q-88 54 -205 54q-90 0 -169 -45q-78 -44 -130 -116q-53 -72 -83 -165q-30 -92 -30 -191zM545 1305q0 44 17 81q18 40 46 69q27 28 69 47q41 18 83 18q77 0 128 -51q50 -50 50 -128q0 -44 -17 -82 q-18 -41 -48 -69t-68 -46q-39 -18 -82 -18q-77 0 -128 51q-50 50 -50 128zM610 1311q0 -52 31 -86q30 -33 84 -33q59 0 103 42t44 101q0 54 -31 86q-31 33 -83 33q-60 0 -104 -42t-44 -101z" />
<glyph unicode="&#xe6;" horiz-adv-x="1939" d="M92 381q0 128 37 240q39 117 105 201q69 87 164 140q94 52 212 52q123 0 215 -53q91 -52 142 -140l37 168h108l-41 -186q72 97 169 153q99 58 212 58q99 0 171 -33q75 -34 121 -89q50 -59 73 -134q24 -78 24 -168q0 -31 -5 -73q-5 -38 -9 -56h-826q-1 -11 -3 -27 q-1 -11 -1 -31q0 -66 23 -129q22 -61 67 -107q44 -46 114 -73q66 -26 159 -26q78 0 149 26q73 27 140 80l41 -78q-67 -52 -152 -86q-87 -35 -178 -35q-171 0 -274 83q-101 81 -134 212l-59 -270h-109l33 150q-61 -79 -146 -126q-89 -49 -192 -49q-83 0 -156 28 q-71 27 -122 80q-52 54 -80 127q-29 76 -29 171zM209 401q0 -153 82 -241t217 -88q52 0 101 15q48 14 93 41q42 25 79 60q35 34 63 74l104 475q-39 76 -122 127q-88 54 -205 54q-90 0 -169 -45q-78 -44 -130 -116q-53 -72 -83 -165q-30 -92 -30 -191zM1012 545h725l3 21 q1 9 1 24q0 72 -21 133q-22 64 -60 105q-44 47 -99 69q-62 25 -140 25q-71 0 -142 -31q-66 -29 -124 -82q-55 -51 -93 -120q-39 -71 -50 -144z" />
<glyph unicode="&#xe7;" horiz-adv-x="1011" d="M94 414q0 123 42 231t116 191q73 82 174 130q100 48 217 48q128 0 216 -47q86 -46 138 -133l-82 -62q-44 77 -114 111q-73 35 -154 35q-101 0 -184 -42q-79 -40 -138 -113q-57 -71 -87 -162q-31 -95 -31 -189q0 -86 25 -148t72 -106t108 -65q62 -21 133 -21q84 0 152 34 t116 93l61 -74q-67 -67 -146 -108q-81 -42 -193 -42q-11 0 -16 1t-13 1l-55 -92q31 23 69 23q52 0 86 -31q33 -30 33 -86q0 -79 -58 -128q-59 -50 -157 -50q-72 0 -125 21q-52 21 -88 55l47 61q33 -33 80 -52q42 -17 90 -17q69 0 102 30t33 74q0 31 -21 50q-22 20 -61 20 q-45 0 -75 -37l-50 32l78 134q-154 29 -247 137t-93 293z" />
<glyph unicode="&#xe8;" horiz-adv-x="1161" d="M94 412q0 124 43 232q43 110 117 192q73 82 174 130q100 48 215 48q97 0 177 -33t132 -90q54 -59 82 -136q29 -81 29 -169q0 -32 -6 -70q-7 -42 -10 -55h-836q-1 -11 -3 -27q-1 -11 -1 -31q0 -69 22 -129q22 -59 68 -107q44 -46 114 -73q66 -26 158 -26q78 0 155 26 q76 26 144 80l41 -78q-68 -53 -155 -86q-91 -35 -189 -35q-108 0 -198 32q-88 31 -149 89t-92 138q-32 82 -32 178zM221 545h731h6q3 15 3 21v24q0 69 -22 133q-21 61 -63 105q-44 46 -104 69q-64 25 -141 25q-72 0 -143 -31q-64 -28 -123 -82q-57 -53 -94 -120 q-39 -71 -50 -144zM475 1434h127l250 -295h-90z" />
<glyph unicode="&#xe9;" horiz-adv-x="1161" d="M94 412q0 124 43 232q43 110 117 192q73 82 174 130q100 48 215 48q97 0 177 -33t132 -90q54 -59 82 -136q29 -81 29 -169q0 -32 -6 -70q-7 -42 -10 -55h-836q-1 -11 -3 -27q-1 -11 -1 -31q0 -69 22 -129q22 -59 68 -107q44 -46 114 -73q66 -26 158 -26q78 0 155 26 q76 26 144 80l41 -78q-68 -53 -155 -86q-91 -35 -189 -35q-108 0 -198 32q-88 31 -149 89t-92 138q-32 82 -32 178zM221 545h731h6q3 15 3 21v24q0 69 -22 133q-21 61 -63 105q-44 46 -104 69q-64 25 -141 25q-72 0 -143 -31q-64 -28 -123 -82q-57 -53 -94 -120 q-39 -71 -50 -144zM604 1139l381 295h129l-418 -295h-92z" />
<glyph unicode="&#xea;" horiz-adv-x="1161" d="M94 412q0 124 43 232q43 110 117 192q73 82 174 130q100 48 215 48q97 0 177 -33t132 -90q54 -59 82 -136q29 -81 29 -169q0 -32 -6 -70q-7 -42 -10 -55h-836q-1 -11 -3 -27q-1 -11 -1 -31q0 -69 22 -129q22 -59 68 -107q44 -46 114 -73q66 -26 158 -26q78 0 155 26 q76 26 144 80l41 -78q-68 -53 -155 -86q-91 -35 -189 -35q-108 0 -198 32q-88 31 -149 89t-92 138q-32 82 -32 178zM221 545h731h6q3 15 3 21v24q0 69 -22 133q-21 61 -63 105q-44 46 -104 69q-64 25 -141 25q-72 0 -143 -31q-64 -28 -123 -82q-57 -53 -94 -120 q-39 -71 -50 -144zM475 1139l264 295h111l137 -295h-78l-127 231l-221 -231h-86z" />
<glyph unicode="&#xeb;" horiz-adv-x="1161" d="M94 412q0 124 43 232q43 110 117 192q73 82 174 130q100 48 215 48q97 0 177 -33t132 -90q54 -59 82 -136q29 -81 29 -169q0 -32 -6 -70q-7 -42 -10 -55h-836q-1 -11 -3 -27q-1 -11 -1 -31q0 -69 22 -129q22 -59 68 -107q44 -46 114 -73q66 -26 158 -26q78 0 155 26 q76 26 144 80l41 -78q-68 -53 -155 -86q-91 -35 -189 -35q-108 0 -198 32q-88 31 -149 89t-92 138q-32 82 -32 178zM221 545h731h6q3 15 3 21v24q0 69 -22 133q-21 61 -63 105q-44 46 -104 69q-64 25 -141 25q-72 0 -143 -31q-64 -28 -123 -82q-57 -53 -94 -120 q-39 -71 -50 -144zM463 1223q0 35 25 59q27 25 61 25q28 0 48 -20q19 -19 19 -48q0 -35 -25 -59q-27 -25 -61 -25q-28 0 -48 20q-19 19 -19 48zM881 1223q0 35 25 59q27 25 61 25q28 0 48 -20q19 -19 19 -48q0 -35 -24 -59q-25 -25 -60 -25q-27 0 -49 20q-20 19 -20 48z" />
<glyph unicode="&#xec;" horiz-adv-x="438" d="M55 0l219 989h107l-219 -989h-107zM104 1434h127l250 -295h-90z" />
<glyph unicode="&#xed;" horiz-adv-x="438" d="M55 0l219 989h107l-219 -989h-107zM236 1139l380 295h129l-417 -295h-92z" />
<glyph unicode="&#xee;" horiz-adv-x="438" d="M55 0l219 989h107l-219 -989h-107zM104 1139l265 295h110l137 -295h-77l-127 231l-222 -231h-86z" />
<glyph unicode="&#xef;" horiz-adv-x="438" d="M55 0l219 989h107l-219 -989h-107zM94 1223q0 35 26 59q27 25 60 25q28 0 48 -20t20 -48q0 -35 -26 -59q-27 -25 -60 -25q-28 0 -48 20t-20 48zM512 1223q0 35 26 59q27 25 60 25q28 0 48 -20t20 -48q0 -34 -25 -59t-59 -25q-28 0 -50 20q-20 19 -20 48z" />
<glyph unicode="&#xf0;" d="M94 395q0 124 41 235q39 106 112 191q71 83 165 129q96 47 200 47q52 0 97 -11q49 -12 95 -37q44 -24 86 -66q37 -37 66 -101q-42 111 -103 202q-67 101 -146 181l-320 -94l-14 68l276 82q-57 52 -143 118l80 82q60 -46 98 -79q50 -43 90 -85l244 74l14 -67l-205 -62 q116 -133 181 -280q65 -148 65 -306q0 -133 -40 -249q-42 -120 -111 -204q-73 -88 -171 -137q-102 -51 -216 -51q-98 0 -180 32q-81 32 -139 88q-59 57 -90 133q-32 78 -32 167zM209 410q0 -74 21 -136q20 -59 64 -106q43 -46 103 -71t140 -25q86 0 160 40q77 42 132 108 q59 72 91 160q32 89 32 193q0 57 -18 116q-19 61 -58 106q-40 46 -103 76t-150 30q-83 0 -159 -38t-132 -103q-57 -66 -90 -156t-33 -194z" />
<glyph unicode="&#xf1;" horiz-adv-x="1105" d="M59 0l220 989h106l-33 -149q34 34 73 63q47 35 86 55q53 27 95 40q53 16 103 16q126 0 207 -60t81 -182q0 -17 -4 -41q-6 -35 -8 -43l-151 -688h-107l147 672q5 17 9 34t4 37q0 93 -63 134q-64 41 -158 41q-48 0 -94 -15q-44 -14 -89 -39q-37 -20 -82 -55 q-36 -28 -69 -64l-166 -745h-107zM383 1147q12 55 32 107q19 50 48 87q30 39 65 59q38 21 84 21q59 0 85 -32q28 -35 47 -72q18 -35 41 -72q21 -33 67 -33q48 0 82 46t61 151h74q-12 -58 -33 -107q-23 -53 -49 -88q-28 -37 -66 -58q-37 -21 -83 -21q-59 0 -85 32 q-28 35 -47 72q-18 35 -41 72q-20 32 -67 32q-48 0 -82 -46q-36 -48 -59 -150h-74z" />
<glyph unicode="&#xf2;" d="M92 410q0 115 41 226q39 106 114 193q74 86 173 135q102 50 217 50q98 0 180 -31q79 -30 137 -88t88 -137q31 -82 31 -178q0 -116 -41 -227q-40 -108 -113 -193q-72 -84 -174 -134q-104 -51 -217 -51q-97 0 -181 31q-78 29 -137 88q-57 57 -87 137q-31 82 -31 179z M209 414q0 -156 84 -249t237 -93q92 0 171 43q80 44 136 113t88 161q31 89 31 186q0 156 -84 249q-85 94 -237 94q-91 0 -171 -44q-78 -43 -135 -113q-56 -69 -88 -161q-32 -91 -32 -186zM473 1434h127l250 -295h-90z" />
<glyph unicode="&#xf3;" d="M92 410q0 115 41 226q39 106 114 193q74 86 173 135q102 50 217 50q98 0 180 -31q79 -30 137 -88t88 -137q31 -82 31 -178q0 -116 -41 -227q-40 -108 -113 -193q-72 -84 -174 -134q-104 -51 -217 -51q-97 0 -181 31q-78 29 -137 88q-57 57 -87 137q-31 82 -31 179z M209 414q0 -156 84 -249t237 -93q92 0 171 43q80 44 136 113t88 161q31 89 31 186q0 156 -84 249q-85 94 -237 94q-91 0 -171 -44q-78 -43 -135 -113q-56 -69 -88 -161q-32 -91 -32 -186zM602 1139l381 295h129l-418 -295h-92z" />
<glyph unicode="&#xf4;" d="M92 410q0 115 41 226q39 106 114 193q74 86 173 135q102 50 217 50q98 0 180 -31q79 -30 137 -88t88 -137q31 -82 31 -178q0 -116 -41 -227q-40 -108 -113 -193q-72 -84 -174 -134q-104 -51 -217 -51q-97 0 -181 31q-78 29 -137 88q-57 57 -87 137q-31 82 -31 179z M209 414q0 -156 84 -249t237 -93q92 0 171 43q80 44 136 113t88 161q31 89 31 186q0 156 -84 249q-85 94 -237 94q-91 0 -171 -44q-78 -43 -135 -113q-56 -69 -88 -161q-32 -91 -32 -186zM473 1139l264 295h111l137 -295h-78l-127 231l-221 -231h-86z" />
<glyph unicode="&#xf5;" d="M92 410q0 115 41 226q39 106 114 193q74 86 173 135q102 50 217 50q98 0 180 -31q79 -30 137 -88t88 -137q31 -82 31 -178q0 -116 -41 -227q-40 -108 -113 -193q-72 -84 -174 -134q-104 -51 -217 -51q-97 0 -181 31q-78 29 -137 88q-57 57 -87 137q-31 82 -31 179z M209 414q0 -156 84 -249t237 -93q92 0 171 43q80 44 136 113t88 161q31 89 31 186q0 156 -84 249q-85 94 -237 94q-91 0 -171 -44q-78 -43 -135 -113q-56 -69 -88 -161q-32 -91 -32 -186zM414 1147q13 61 31 107q18 47 49 87q30 39 65 59q37 21 84 21q59 0 85 -32 q28 -35 47 -72q18 -35 41 -72q21 -33 67 -33q48 0 82 46t61 151h74q-12 -58 -33 -107q-23 -53 -49 -88q-27 -36 -67 -58q-37 -21 -83 -21q-59 0 -85 32q-28 35 -47 72q-18 35 -41 72q-20 32 -66 32q-48 0 -82 -46q-37 -50 -60 -150h-73z" />
<glyph unicode="&#xf6;" d="M92 410q0 115 41 226q39 106 114 193q74 86 173 135q102 50 217 50q98 0 180 -31q79 -30 137 -88t88 -137q31 -82 31 -178q0 -116 -41 -227q-40 -108 -113 -193q-72 -84 -174 -134q-104 -51 -217 -51q-97 0 -181 31q-78 29 -137 88q-57 57 -87 137q-31 82 -31 179z M209 414q0 -156 84 -249t237 -93q92 0 171 43q80 44 136 113t88 161q31 89 31 186q0 156 -84 249q-85 94 -237 94q-91 0 -171 -44q-78 -43 -135 -113q-56 -69 -88 -161q-32 -91 -32 -186zM461 1223q0 35 25 59q27 25 61 25q28 0 48 -20q19 -19 19 -48q0 -35 -25 -59 q-27 -25 -61 -25q-28 0 -48 20q-19 19 -19 48zM879 1223q0 35 25 59q27 25 61 25q28 0 48 -20q19 -19 19 -48q0 -35 -24 -59q-25 -25 -60 -25q-27 0 -49 20q-20 19 -20 48z" />
<glyph unicode="&#xf7;" horiz-adv-x="1046" d="M92 647l19 86h927l-18 -86h-928zM395 279q0 37 26 61q27 25 62 25q31 0 53 -22q21 -21 21 -52q0 -38 -27 -62t-63 -24q-30 0 -51 21t-21 53zM571 1081q0 35 27 61q26 25 61 25q33 0 54 -21q20 -20 20 -52q0 -38 -25 -62q-26 -24 -63 -24q-31 0 -52 21q-22 22 -22 52z" />
<glyph unicode="&#xf8;" d="M39 0l135 135q-82 110 -82 275q0 115 41 226q39 106 114 193q74 86 173 135q102 50 217 50q184 0 301 -105l78 80h94l-125 -127q88 -112 88 -282q0 -116 -41 -227q-40 -108 -113 -193q-72 -84 -174 -134q-104 -51 -217 -51q-194 0 -311 111l-84 -86h-94zM209 414 q0 -119 45 -197l608 617q-41 41 -98 62q-60 22 -129 22q-91 0 -171 -44q-78 -43 -135 -113q-56 -69 -88 -161q-32 -91 -32 -186zM295 164q86 -92 235 -92q92 0 171 43q80 44 136 113t88 161q31 89 31 186q0 120 -53 205z" />
<glyph unicode="&#xf9;" horiz-adv-x="1105" d="M111 217q0 17 4 41q6 35 8 43l149 688h109l-150 -670q-4 -14 -7 -34q-3 -21 -3 -39q0 -92 63 -133q64 -41 156 -41q95 0 184 53q88 52 152 121l166 743h107l-220 -989h-106l33 150q-38 -38 -73 -64q-47 -35 -86 -55q-51 -26 -96 -40q-53 -16 -102 -16q-127 0 -208 60 q-80 59 -80 182zM444 1434h127l250 -295h-90z" />
<glyph unicode="&#xfa;" horiz-adv-x="1105" d="M111 217q0 17 4 41q6 35 8 43l149 688h109l-150 -670q-4 -14 -7 -34q-3 -21 -3 -39q0 -92 63 -133q64 -41 156 -41q95 0 184 53q88 52 152 121l166 743h107l-220 -989h-106l33 150q-38 -38 -73 -64q-47 -35 -86 -55q-51 -26 -96 -40q-53 -16 -102 -16q-127 0 -208 60 q-80 59 -80 182zM571 1139l381 295h129l-417 -295h-93z" />
<glyph unicode="&#xfb;" horiz-adv-x="1105" d="M111 217q0 17 4 41q6 35 8 43l149 688h109l-150 -670q-4 -14 -7 -34q-3 -21 -3 -39q0 -92 63 -133q64 -41 156 -41q95 0 184 53q88 52 152 121l166 743h107l-220 -989h-106l33 150q-38 -38 -73 -64q-47 -35 -86 -55q-51 -26 -96 -40q-53 -16 -102 -16q-127 0 -208 60 q-80 59 -80 182zM438 1139l264 295h111l137 -295h-78l-127 231l-221 -231h-86z" />
<glyph unicode="&#xfc;" horiz-adv-x="1105" d="M111 217q0 17 4 41q6 35 8 43l149 688h109l-150 -670q-4 -14 -7 -34q-3 -21 -3 -39q0 -92 63 -133q64 -41 156 -41q95 0 184 53q88 52 152 121l166 743h107l-220 -989h-106l33 150q-38 -38 -73 -64q-47 -35 -86 -55q-51 -26 -96 -40q-53 -16 -102 -16q-127 0 -208 60 q-80 59 -80 182zM436 1223q0 35 26 59q27 25 60 25q28 0 48 -20t20 -48q0 -35 -26 -59q-27 -25 -60 -25q-28 0 -48 20t-20 48zM854 1223q0 35 26 59q27 25 60 25q28 0 48 -20t20 -48q0 -34 -25 -59t-59 -25q-28 0 -50 20q-20 19 -20 48z" />
<glyph unicode="&#xfd;" horiz-adv-x="985" d="M-94 -381l41 102q20 -9 42 -13q28 -5 54 -5q41 0 76 24q37 26 80 89l118 178l-194 995h115l165 -864l551 864h125l-780 -1206q-61 -93 -125 -138q-65 -46 -151 -46q-29 0 -62 5q-32 5 -55 15zM510 1139l381 295h129l-418 -295h-92z" />
<glyph unicode="&#xfe;" horiz-adv-x="1161" d="M-29 -377l385 1743h107l-115 -526q60 78 147 126t193 48q82 0 155 -28q71 -27 122 -80q51 -52 79 -128q29 -78 29 -170q0 -127 -37 -239q-39 -119 -105 -202q-68 -86 -164 -139q-95 -53 -212 -53q-120 0 -214 54q-90 52 -142 139l-121 -545h-107zM217 252 q39 -76 122 -127q86 -53 206 -53q93 0 170 44q76 43 129 116q53 72 83 165q29 88 29 191q0 154 -81 241q-83 89 -218 89q-49 0 -102 -16q-48 -14 -92 -42q-47 -29 -79 -60q-34 -33 -62 -73z" />
<glyph unicode="&#xff;" horiz-adv-x="985" d="M-94 -381l41 102q20 -9 42 -13q28 -5 54 -5q41 0 76 24q37 26 80 89l118 178l-194 995h115l165 -864l551 864h125l-780 -1206q-61 -93 -125 -138q-65 -46 -151 -46q-29 0 -62 5q-32 5 -55 15zM369 1223q0 35 25 59q27 25 61 25q28 0 48 -20q19 -19 19 -48q0 -35 -25 -59 q-27 -25 -61 -25q-28 0 -48 20q-19 19 -19 48zM786 1223q0 35 26 59q27 25 60 25q29 0 49 -20q19 -19 19 -48q0 -34 -25 -59t-59 -25q-27 0 -49 20q-21 19 -21 48z" />
<glyph unicode="&#x2c6;" horiz-adv-x="512" d="M141 1139l265 295h110l137 -295h-78l-126 231l-222 -231h-86z" />
<glyph unicode="&#x2dc;" horiz-adv-x="628" d="M143 1147q12 55 32 107q19 50 48 87q29 38 66 59t84 21q59 0 85 -32q28 -35 47 -72q18 -35 41 -72q21 -33 66 -33q48 0 82 46q35 48 62 151h73q-13 -63 -32 -107q-23 -53 -49 -88q-27 -36 -67 -58q-37 -21 -83 -21q-59 0 -85 32q-28 35 -47 72q-18 35 -41 72 q-20 32 -67 32q-48 0 -82 -46q-36 -48 -59 -150h-74z" />
<glyph unicode="&#x2000;" horiz-adv-x="905" />
<glyph unicode="&#x2001;" horiz-adv-x="1810" />
<glyph unicode="&#x2002;" horiz-adv-x="905" />
<glyph unicode="&#x2003;" horiz-adv-x="1810" />
<glyph unicode="&#x2004;" horiz-adv-x="603" />
<glyph unicode="&#x2005;" horiz-adv-x="452" />
<glyph unicode="&#x2006;" horiz-adv-x="301" />
<glyph unicode="&#x2007;" horiz-adv-x="301" />
<glyph unicode="&#x2008;" horiz-adv-x="226" />
<glyph unicode="&#x2009;" horiz-adv-x="362" />
<glyph unicode="&#x200a;" horiz-adv-x="100" />
<glyph unicode="&#x2010;" horiz-adv-x="614" d="M49 446l21 99h491l-20 -99h-492z" />
<glyph unicode="&#x2011;" horiz-adv-x="614" d="M49 446l21 99h491l-20 -99h-492z" />
<glyph unicode="&#x2012;" horiz-adv-x="614" d="M49 446l21 99h491l-20 -99h-492z" />
<glyph unicode="&#x2013;" horiz-adv-x="1214" d="M49 446l21 99h1091l-20 -99h-1092z" />
<glyph unicode="&#x2014;" horiz-adv-x="1705" d="M49 446l21 99h1583l-21 -99h-1583z" />
<glyph unicode="&#x2018;" horiz-adv-x="448" d="M238 1087q0 47 17 88q18 44 47 83q28 38 68 73q34 30 79 55l49 -53q-59 -29 -102 -77q-42 -47 -58 -95h14q28 0 49 -21t21 -55q0 -41 -29 -68q-30 -28 -67 -28q-36 0 -63 25q-25 24 -25 73z" />
<glyph unicode="&#x2019;" horiz-adv-x="448" d="M236 1042q57 29 101 77q42 47 58 95h-14q-27 0 -49 22q-21 21 -21 52q0 41 29 70q28 28 68 28q36 0 62 -24t26 -74q0 -44 -18 -87q-19 -47 -47 -84q-29 -39 -67 -74q-32 -30 -79 -54z" />
<glyph unicode="&#x201a;" horiz-adv-x="448" d="M-37 -184q61 30 102 76q42 46 58 96h-14q-29 0 -50 21q-20 20 -20 52q0 41 29 70t67 29q37 0 63 -26q25 -25 25 -73q0 -46 -17 -88q-19 -47 -47 -85q-26 -35 -68 -72q-36 -32 -79 -54z" />
<glyph unicode="&#x201c;" horiz-adv-x="739" d="M258 1087q0 47 17 88q16 39 47 83q28 39 66 73q34 30 79 55l51 -53q-57 -29 -101 -77q-44 -49 -59 -95h15q28 0 49 -21q20 -20 20 -55q0 -42 -29 -68q-31 -28 -69 -28q-33 0 -60 25q-26 24 -26 73zM547 1087q0 47 17 88q18 43 46 83q26 37 67 73q34 30 79 55l49 -53 q-54 -28 -100 -77q-45 -48 -60 -95h14q30 0 51 -21t21 -55q0 -41 -30 -68q-31 -28 -68 -28t-62 25q-24 24 -24 73z" />
<glyph unicode="&#x201d;" horiz-adv-x="739" d="M236 1042q57 29 101 77q42 47 58 95h-14q-27 0 -49 22q-21 21 -21 52q0 41 29 70q28 28 68 28q36 0 62 -24t26 -74q0 -44 -18 -87q-19 -47 -47 -84q-29 -39 -67 -74q-32 -30 -79 -54zM524 1042q59 29 102 77q42 47 58 95h-14q-27 0 -49 22q-21 21 -21 52q0 41 29 70 q28 28 67 28q38 0 62 -24t24 -74q0 -46 -17 -87q-19 -45 -46 -84q-25 -35 -67 -74q-32 -30 -79 -54z" />
<glyph unicode="&#x201e;" horiz-adv-x="739" d="M-37 -184q61 30 102 76q42 46 58 96h-14q-29 0 -50 21q-20 20 -20 52q0 41 29 70t67 29q37 0 63 -26q25 -25 25 -73q0 -46 -17 -88q-19 -47 -47 -85q-26 -35 -68 -72q-36 -32 -79 -54zM252 -184q55 28 100 76q44 47 60 96h-15q-29 0 -50 21t-21 52q0 42 29 70 q31 29 69 29q37 0 61 -26q25 -27 25 -73t-17 -88t-47 -85q-26 -37 -66 -72q-36 -32 -79 -54z" />
<glyph unicode="&#x2022;" horiz-adv-x="733" d="M154 477q0 48 19 89q20 44 51 73q33 32 75 49q46 19 90 19q81 0 136 -55t55 -136q0 -46 -20 -89q-20 -44 -51 -73q-33 -32 -75 -49q-44 -18 -90 -18q-82 0 -136 54t-54 136z" />
<glyph unicode="&#x2026;" horiz-adv-x="1345" d="M39 63q0 42 29 69q30 28 69 28q35 0 59 -24q23 -23 23 -58q0 -41 -29 -70q-28 -28 -69 -28q-35 0 -59 24q-23 23 -23 59zM487 63q0 42 29 69q30 28 70 28q34 0 58 -24t24 -58q0 -41 -29 -70q-28 -28 -70 -28q-34 0 -58 24t-24 59zM936 63q0 42 29 69q30 28 69 28 q35 0 59 -24q23 -23 23 -58q0 -41 -29 -70q-28 -28 -69 -28q-35 0 -59 24q-23 23 -23 59z" />
<glyph unicode="&#x202f;" horiz-adv-x="362" />
<glyph unicode="&#x2039;" horiz-adv-x="567" d="M59 498l410 362h125l-418 -373l238 -358h-109z" />
<glyph unicode="&#x203a;" horiz-adv-x="567" d="M-23 129l418 373l-237 358h108l246 -368l-410 -363h-125z" />
<glyph unicode="&#x205f;" horiz-adv-x="452" />
<glyph unicode="&#x2122;" horiz-adv-x="929" d="M215 1313l10 53h312l-11 -53h-127l-88 -398h-57l88 398h-127zM512 915l98 451h88l60 -328l203 328h88l-99 -451h-57l82 373l-236 -373h-16l-72 373l-82 -373h-57z" />
<glyph unicode="&#xe000;" horiz-adv-x="993" d="M0 0v993h993v-993h-993z" />
</font>
</defs>
</svg>
