<?xml version="1.0" encoding="utf-8"?>
<!-- Generator: Adobe Illustrator 16.0.0, SVG Export Plug-In . SVG Version: 6.00 Build 0)  -->
<!DOCTYPE svg PUBLIC "-//W3C//DTD SVG 1.1//EN" "http://www.w3.org/Graphics/SVG/1.1/DTD/svg11.dtd">
<svg version="1.1" xmlns="http://www.w3.org/2000/svg" xmlns:xlink="http://www.w3.org/1999/xlink" x="0px" y="0px" width="72px"
	 height="72px" viewBox="0 0 72 72" enable-background="new 0 0 72 72" xml:space="preserve">
<g id="Layer_2">
</g>
<g id="Layer_1">
	<g>
		<circle fill="#F1AD46" cx="36" cy="36" r="36"/>
		<g>
			<path fill-rule="evenodd" clip-rule="evenodd" fill="#FFFFFF" d="M37.177,61.879c0.659-10.874,4.47-15.049,15.395-17.324
				C53.149,54.476,48.262,60.095,37.177,61.879z"/>
			<path fill-rule="evenodd" clip-rule="evenodd" fill="#FFFFFF" d="M34.823,61.879c-0.659-10.874-4.47-15.049-15.395-17.324
				C18.851,54.476,23.738,60.095,34.823,61.879z"/>
			<path fill-rule="evenodd" clip-rule="evenodd" fill="#FFFFFF" d="M36.945,47.017c0.586-9.673,3.976-13.388,13.693-15.411
				C51.152,40.431,46.805,45.43,36.945,47.017z"/>
			<path fill-rule="evenodd" clip-rule="evenodd" fill="#FFFFFF" d="M35.055,47.017c-0.586-9.673-3.976-13.388-13.693-15.411
				C20.848,40.431,25.195,45.43,35.055,47.017z"/>
			<path fill-rule="evenodd" clip-rule="evenodd" fill="#FFFFFF" d="M37.058,32.762c0.455-7.509,3.086-10.393,10.629-11.963
				C48.085,27.65,44.711,31.53,37.058,32.762z"/>
			<path fill-rule="evenodd" clip-rule="evenodd" fill="#FFFFFF" d="M35.927,24.463c-4.645-5.9-4.597-9.796-0.016-15.973
				C40.755,13.333,40.815,18.465,35.927,24.463z"/>
			<path fill-rule="evenodd" clip-rule="evenodd" fill="#FFFFFF" d="M34.942,32.762c-0.455-7.509-3.086-10.393-10.629-11.963
				C23.915,27.65,27.289,31.53,34.942,32.762z"/>
		</g>
	</g>
</g>
</svg>
