<?xml version="1.0" encoding="utf-8"?>
<!-- Generator: Adobe Illustrator 16.0.0, SVG Export Plug-In . SVG Version: 6.00 Build 0)  -->
<!DOCTYPE svg PUBLIC "-//W3C//DTD SVG 1.1//EN" "http://www.w3.org/Graphics/SVG/1.1/DTD/svg11.dtd">
<svg version="1.1" xmlns="http://www.w3.org/2000/svg" xmlns:xlink="http://www.w3.org/1999/xlink" x="0px" y="0px" width="72px"
	 height="72px" viewBox="0 0 72 72" enable-background="new 0 0 72 72" xml:space="preserve">
<g id="Layer_3">
	<rect x="-321.934" y="-233.515" fill="#FFFFFF" width="1190.526" height="321.458"/>
</g>
<g id="Layer_2" display="none">
</g>
<g id="Layer_1">
	<g>
		<circle fill="#F19946" cx="36" cy="36" r="36"/>
	</g>
	<g>
		<path fill="#FFFFFF" d="M26.206,48.659c-7.847,0-13.247-5.508-13.247-12.959v-0.072c0-7.163,5.579-13.03,13.21-13.03
			c4.535,0,7.271,1.225,9.899,3.456l-3.492,4.211c-1.944-1.619-3.671-2.556-6.587-2.556c-4.031,0-7.235,3.563-7.235,7.848v0.071
			c0,4.607,3.167,7.991,7.631,7.991c2.016,0,3.815-0.504,5.219-1.512v-3.6h-5.579v-4.787h10.942v10.942
			C34.377,46.859,30.813,48.659,26.206,48.659z"/>
		<path fill="#FFFFFF" d="M46.402,28.069v5.363h12.022v5.039H46.402v9.755h-5.543V23.03h19.186v5.039H46.402z"/>
	</g>
</g>
</svg>
