<?xml version="1.0" encoding="utf-8"?>
<!-- Generator: Adobe Illustrator 16.0.0, SVG Export Plug-In . SVG Version: 6.00 Build 0)  -->
<!DOCTYPE svg PUBLIC "-//W3C//DTD SVG 1.1//EN" "http://www.w3.org/Graphics/SVG/1.1/DTD/svg11.dtd">
<svg version="1.1" id="GF_2_" xmlns="http://www.w3.org/2000/svg" xmlns:xlink="http://www.w3.org/1999/xlink" x="0px" y="0px"
	 width="1200px" height="1200px" viewBox="0 0 1200 1200" enable-background="new 0 0 1200 1200" xml:space="preserve">
<g id="GF">
	<g>
		<path fill="#FC6E51" d="M600.006,196.014c-224.22,0-405.994,181.312-405.994,404.986c0,223.668,181.774,404.986,405.994,404.986
			c224.224,0,406.003-181.318,406.003-404.986C1006.009,377.326,824.229,196.014,600.006,196.014z M597.06,721.935
			c-10.37,13.166-21.997,23.354-34.882,30.563c-12.884,7.21-28.281,10.814-46.193,10.814c-16.97,0-31.661-3.918-44.073-11.755
			c-12.413-7.837-22.626-18.965-30.64-33.384c-8.013-14.42-13.983-31.504-17.912-51.252c-3.928-19.748-5.892-41.691-5.892-65.828
			s1.964-46.158,5.892-66.063c3.929-19.904,9.978-36.988,18.148-51.251c8.17-14.263,18.383-25.312,30.639-33.149
			s26.868-11.755,43.838-11.755c10.998,0,20.818,1.959,29.46,5.877c8.642,3.919,16.263,9.248,22.861,15.987
			c6.6,6.739,12.099,14.576,16.498,23.51s7.856,18.416,10.37,28.447l-47.608,17.397c-2.514-10.972-6.049-20.141-10.605-27.507
			s-11.549-11.05-20.976-11.05c-11.941,0-21.212,8.777-27.812,26.331c-6.599,17.555-9.898,45.296-9.898,83.226
			c0,37.616,3.3,65.279,9.898,82.99c6.6,17.711,15.87,26.566,27.812,26.566c12.884,0,22.468-4.702,28.753-14.106V639.65h-35.353
			v-52.192h87.675V721.935z M782.577,496.239H704.33v75.702h74.947v52.192H704.33V757.67h-59.394V444.047h137.641V496.239z"/>
	</g>
</g>
</svg>
