<?xml version="1.0" encoding="utf-8"?>
<!-- Generator: Adobe Illustrator 16.0.0, SVG Export Plug-In . SVG Version: 6.00 Build 0)  -->
<!DOCTYPE svg PUBLIC "-//W3C//DTD SVG 1.1//EN" "http://www.w3.org/Graphics/SVG/1.1/DTD/svg11.dtd">
<svg version="1.1" id="Layer_1" xmlns="http://www.w3.org/2000/svg" xmlns:xlink="http://www.w3.org/1999/xlink" x="0px" y="0px"
	 width="812px" height="809.97px" viewBox="0 0 812 809.97" enable-background="new 0 0 812 809.97" xml:space="preserve">
<g id="GF">
	<g>
		<path fill="#F36F54" d="M406.006,0.014C181.786,0.014,0.012,181.326,0.012,405c0,223.668,181.774,404.986,405.994,404.986
			c224.225,0,406.003-181.318,406.003-404.986C812.009,181.326,630.229,0.014,406.006,0.014z M403.06,525.935
			c-10.369,13.166-21.997,23.354-34.882,30.563c-12.884,7.21-28.281,10.814-46.192,10.814c-16.971,0-31.661-3.919-44.073-11.756
			c-12.413-7.837-22.626-18.965-30.641-33.384c-8.013-14.42-13.982-31.504-17.911-51.252s-5.893-41.69-5.893-65.828
			c0-24.137,1.964-46.158,5.893-66.062s9.978-36.988,18.147-51.251c8.17-14.264,18.383-25.312,30.64-33.149
			c12.256-7.837,26.867-11.755,43.838-11.755c10.998,0,20.817,1.959,29.46,5.877c8.642,3.919,16.263,9.248,22.86,15.987
			c6.601,6.739,12.1,14.576,16.498,23.51c4.399,8.934,7.856,18.416,10.37,28.447l-47.607,17.396
			c-2.515-10.972-6.05-20.141-10.605-27.507s-11.549-11.05-20.976-11.05c-11.941,0-21.212,8.777-27.812,26.331
			c-6.599,17.555-9.897,45.296-9.897,83.226c0,37.616,3.3,65.279,9.897,82.99c6.601,17.711,15.87,26.566,27.812,26.566
			c12.884,0,22.468-4.702,28.753-14.106V443.65h-35.354v-52.192h87.676L403.06,525.935L403.06,525.935z M588.577,300.239H510.33
			v75.702h74.947v52.191H510.33V561.67h-59.395V248.047h137.642V300.239z"/>
	</g>
</g>
</svg>
