<?xml version="1.0" encoding="utf-8"?>
<!-- Generator: Adobe Illustrator 16.0.0, SVG Export Plug-In . SVG Version: 6.00 Build 0)  -->
<!DOCTYPE svg PUBLIC "-//W3C//DTD SVG 1.1//EN" "http://www.w3.org/Graphics/SVG/1.1/DTD/svg11.dtd">
<svg version="1.1" xmlns="http://www.w3.org/2000/svg" xmlns:xlink="http://www.w3.org/1999/xlink" x="0px" y="0px"
	 width="71.994px" height="72px" viewBox="0 0 71.994 72" enable-background="new 0 0 71.994 72" xml:space="preserve">
<g id="Layer_3">
	<rect x="-758.323" y="-233.515" fill="#FFFFFF" width="1190.526" height="321.458"/>
</g>
<g id="Layer_2" display="none">
</g>
<g id="Layer_1">
	<g>
		<circle fill="#43BF43" cx="35.997" cy="36" r="35.997"/>
		<g>
			<path fill="#FFFFFF" d="M12.619,23.297h4.836l2.574,17.784l2.574-17.784h4.68l-4.875,27.379h-4.914L12.619,23.297z"/>
			<path fill="#FFFFFF" d="M27.869,37.415v-0.936c0-8.814,3.744-13.378,9.125-13.378c1.443,0,2.652,0.312,3.627,0.78v4.953
				c-1.17-0.702-2.223-1.17-3.471-1.17c-2.73,0-4.445,2.73-4.445,8.619v1.326c0,7.138,2.105,8.775,4.055,8.775
				c0.156,0,0.195,0,0.43-0.039v-6.981h-2.34v-4.251h6.67v14.509c-1.717,0.741-3.121,1.17-4.953,1.17
				C31.807,50.793,27.869,46.932,27.869,37.415z"/>
			<path fill="#FFFFFF" d="M44.131,23.297h4.447l4.797,13.807V23.297h4.641v27.301h-4.213l-5.029-14.47v14.47h-4.643V23.297z"/>
		</g>
	</g>
</g>
</svg>
