<?xml version="1.0" encoding="utf-8"?>
<!-- Generator: Adobe Illustrator 16.0.0, SVG Export Plug-In . SVG Version: 6.00 Build 0)  -->
<!DOCTYPE svg PUBLIC "-//W3C//DTD SVG 1.1//EN" "http://www.w3.org/Graphics/SVG/1.1/DTD/svg11.dtd">
<svg version="1.1" id="Layer_1" xmlns="http://www.w3.org/2000/svg" xmlns:xlink="http://www.w3.org/1999/xlink" x="0px" y="0px"
	 width="812px" height="809.97px" viewBox="0 0 812 809.97" enable-background="new 0 0 812 809.97" xml:space="preserve">
<g id="Veg">
	<g>
		<path fill="#3DBB9B" d="M610.301,337.941c-5.971,0-10.842,1.724-14.612,5.172c-3.771,3.447-6.834,8.229-9.191,14.342
			c-2.356,6.112-4.007,13.322-4.949,21.629c-0.941,8.307-1.414,17.476-1.414,27.507c0,10.03,0.473,19.199,1.414,27.507
			c0.942,8.308,2.593,15.517,4.949,21.629c2.357,6.112,5.421,10.814,9.191,14.105c3.771,3.292,8.643,4.938,14.612,4.938
			c5.656,0,10.92-2.663,15.791-7.992c4.87-5.329,8.562-11.755,11.077-19.278v-82.285c-2.515-7.837-6.207-14.341-11.077-19.514
			C621.221,340.527,615.957,337.941,610.301,337.941z M439.157,352.753c-2.357-5.486-5.578-9.953-9.663-13.401
			c-4.085-3.446-9.428-5.172-16.026-5.172c-6.6,0-11.94,1.804-16.026,5.407c-4.086,3.605-7.386,8.15-9.898,13.636
			c-2.514,5.486-4.242,11.521-5.186,18.104c-0.942,6.583-1.414,12.853-1.414,18.809h64.578c0-6.27-0.473-12.694-1.414-19.277
			C443.165,364.274,441.514,358.238,439.157,352.753z M406.006,0.014C181.786,0.014,0.012,181.326,0.012,405
			c0,223.668,181.774,404.986,405.994,404.986c224.225,0,406.003-181.318,406.003-404.986
			C812.009,181.326,630.229,0.014,406.006,0.014z M256.274,523.67h-68.35l-65.521-313.623h60.807l39.124,237.451l38.652-237.451
			h60.807L256.274,523.67z M496.429,427.75H380.942c0.313,16.927,4.007,30.876,11.077,41.848s18.306,16.457,33.702,16.457
			c6.285,0,12.807-1.96,19.562-5.878s12.806-9.481,18.146-16.691l25.927,29.623c-9.113,11.911-19.642,20.924-31.582,27.036
			c-11.941,6.111-24.513,9.169-37.71,9.169c-14.771,0-27.812-2.899-39.124-8.698c-11.312-5.8-20.74-14.028-28.282-24.687
			c-7.542-10.657-13.276-23.274-17.205-37.852c-3.928-14.576-5.893-30.642-5.893-48.195c0-16.3,1.808-31.737,5.422-46.313
			c3.612-14.576,8.956-27.193,16.025-37.853c7.07-10.657,15.948-19.121,26.633-25.391c10.685-6.271,23.098-9.403,37.238-9.403
			c14.455,0,26.789,3.057,37.002,9.168c10.213,6.113,18.619,14.42,25.219,24.921s11.471,22.962,14.612,37.381
			c3.143,14.421,4.714,29.938,4.714,46.551v18.808H496.429z M690.434,519.438c0,18.809-2.436,34.403-7.307,46.785
			s-11.312,22.256-19.326,29.622c-8.013,7.366-17.205,12.539-27.575,15.518c-10.369,2.978-21.212,4.467-32.523,4.467
			c-14.142,0-26.946-1.881-38.417-5.644c-11.47-3.761-21.918-10.188-31.346-19.276l17.911-42.318
			c6.285,6.271,13.435,11.363,21.447,15.281c8.015,3.919,16.419,5.878,25.219,5.878c11.312,0,20.583-3.997,27.812-11.99
			c7.228-7.993,10.842-20.768,10.842-38.32v-31.975c-5.028,11.285-11.628,19.827-19.798,25.626
			c-8.171,5.799-16.341,8.698-24.512,8.698c-22.625,0-39.518-10.03-50.673-30.093s-16.732-48.432-16.732-85.105
			c0-35.734,5.656-63.947,16.969-84.636c11.313-20.689,28.125-31.033,50.438-31.033c8.171,0,16.42,2.664,24.747,7.993
			s14.849,13.949,19.562,25.86v-28.212h53.266v222.874H690.434z"/>
	</g>
</g>
</svg>
