<?xml version="1.0" encoding="utf-8"?>
<!-- Generator: Adobe Illustrator 16.0.0, SVG Export Plug-In . SVG Version: 6.00 Build 0)  -->
<!DOCTYPE svg PUBLIC "-//W3C//DTD SVG 1.1//EN" "http://www.w3.org/Graphics/SVG/1.1/DTD/svg11.dtd">
<svg version="1.1" xmlns="http://www.w3.org/2000/svg" xmlns:xlink="http://www.w3.org/1999/xlink" x="0px" y="0px" width="72px"
	 height="72px" viewBox="0 0 72 72" enable-background="new 0 0 72 72" xml:space="preserve">
<g id="Layer_2">
</g>
<g id="Layer_1">
	<g>
		<circle fill="#9ED852" cx="36" cy="36" r="36"/>
		<g>
			<path fill="#FFFFFF" d="M14.151,23.297h4.836l2.574,17.784l2.574-17.784h4.68L23.94,50.676h-4.914L14.151,23.297z"/>
			<path fill="#FFFFFF" d="M31.038,23.297H41.49v4.524h-5.694v6.786h5.031v4.524h-5.031v6.942h5.812v4.524H31.038V23.297z"/>
			<path fill="#FFFFFF" d="M43.05,37.415v-0.936c0-8.814,3.744-13.377,9.127-13.377c1.442,0,2.651,0.312,3.627,0.78v4.953
				c-1.17-0.702-2.224-1.17-3.472-1.17c-2.729,0-4.446,2.73-4.446,8.619v1.326c0,7.137,2.106,8.775,4.057,8.775
				c0.156,0,0.195,0,0.429-0.039v-6.981h-2.34v-4.251H56.7v14.508c-1.716,0.741-3.12,1.17-4.953,1.17
				C46.989,50.792,43.05,46.932,43.05,37.415z"/>
		</g>
	</g>
</g>
</svg>
