<?xml version="1.0" encoding="utf-8"?>
<!-- Generator: Adobe Illustrator 16.0.0, SVG Export Plug-In . SVG Version: 6.00 Build 0)  -->
<!DOCTYPE svg PUBLIC "-//W3C//DTD SVG 1.1//EN" "http://www.w3.org/Graphics/SVG/1.1/DTD/svg11.dtd">
<svg version="1.1" id="vegetarian_1_" xmlns="http://www.w3.org/2000/svg" xmlns:xlink="http://www.w3.org/1999/xlink" x="0px"
	 y="0px" width="1200px" height="1200px" viewBox="0 0 1200 1200" enable-background="new 0 0 1200 1200" xml:space="preserve">
<g id="Veg">
	<g>
		<path fill="#37BC9B" d="M804.301,533.941c-5.971,0-10.842,1.724-14.613,5.172c-3.771,3.448-6.834,8.229-9.191,14.342
			c-2.356,6.112-4.007,13.322-4.949,21.629s-1.414,17.476-1.414,27.507c0,10.03,0.472,19.199,1.414,27.507
			c0.942,8.307,2.593,15.516,4.949,21.629c2.357,6.112,5.421,10.814,9.191,14.105c3.771,3.292,8.643,4.938,14.613,4.938
			c5.656,0,10.92-2.664,15.791-7.993c4.87-5.329,8.562-11.755,11.077-19.278v-82.285c-2.515-7.837-6.207-14.341-11.077-19.514
			C815.221,536.527,809.957,533.941,804.301,533.941z M633.157,548.753c-2.357-5.486-5.578-9.953-9.663-13.401
			c-4.085-3.447-9.428-5.172-16.026-5.172c-6.6,0-11.941,1.803-16.027,5.407c-4.085,3.605-7.385,8.15-9.898,13.636
			c-2.514,5.486-4.242,11.521-5.186,18.103c-0.942,6.583-1.414,12.853-1.414,18.809h64.578c0-6.27-0.472-12.695-1.414-19.278
			S635.514,554.238,633.157,548.753z M600.006,196.014c-224.22,0-405.994,181.312-405.994,404.986
			c0,223.668,181.774,404.986,405.994,404.986c224.224,0,406.003-181.318,406.003-404.986
			C1006.009,377.326,824.229,196.014,600.006,196.014z M450.274,719.67h-68.349l-65.521-313.623h60.807l39.124,237.451
			l38.652-237.451h60.807L450.274,719.67z M690.429,623.75H574.942c0.314,16.927,4.007,30.876,11.077,41.848
			c7.071,10.971,18.306,16.457,33.703,16.457c6.285,0,12.806-1.96,19.562-5.878c6.756-3.918,12.806-9.482,18.147-16.692
			l25.926,29.623c-9.113,11.911-19.641,20.924-31.582,27.036s-24.512,9.169-37.71,9.169c-14.77,0-27.811-2.899-39.124-8.698
			c-11.312-5.8-20.74-14.028-28.282-24.686c-7.542-10.658-13.276-23.275-17.205-37.852c-3.928-14.576-5.892-30.642-5.892-48.195
			c0-16.3,1.807-31.738,5.421-46.314c3.613-14.576,8.956-27.193,16.026-37.852c7.07-10.657,15.948-19.121,26.633-25.391
			c10.684-6.27,23.097-9.403,37.238-9.403c14.455,0,26.789,3.056,37.002,9.168c10.213,6.113,18.619,14.42,25.219,24.921
			c6.599,10.501,11.47,22.962,14.612,37.381c3.143,14.42,4.714,29.937,4.714,46.55V623.75z M884.434,715.438
			c0,18.808-2.436,34.403-7.307,46.785s-11.312,22.256-19.326,29.622c-8.013,7.366-17.205,12.539-27.575,15.517
			s-21.212,4.467-32.524,4.467c-14.141,0-26.946-1.881-38.417-5.643c-11.47-3.761-21.918-10.188-31.346-19.277l17.912-42.318
			c6.285,6.27,13.434,11.363,21.447,15.281c8.014,3.919,16.419,5.878,25.219,5.878c11.312,0,20.583-3.997,27.811-11.99
			s10.842-20.768,10.842-38.321v-31.974c-5.028,11.285-11.628,19.827-19.798,25.626c-8.171,5.799-16.341,8.698-24.512,8.698
			c-22.625,0-39.517-10.03-50.672-30.093c-11.156-20.062-16.733-48.431-16.733-85.105c0-35.735,5.656-63.947,16.969-84.636
			c11.313-20.689,28.125-31.033,50.437-31.033c8.171,0,16.42,2.664,24.747,7.993c8.328,5.329,14.849,13.949,19.562,25.86v-28.212
			h53.265V715.438z"/>
	</g>
</g>
</svg>
