<?xml version="1.0" encoding="utf-8"?>
<!-- Generator: Adobe Illustrator 16.0.0, SVG Export Plug-In . SVG Version: 6.00 Build 0)  -->
<!DOCTYPE svg PUBLIC "-//W3C//DTD SVG 1.1//EN" "http://www.w3.org/Graphics/SVG/1.1/DTD/svg11.dtd">
<svg version="1.1" xmlns="http://www.w3.org/2000/svg" xmlns:xlink="http://www.w3.org/1999/xlink" x="0px" y="0px" width="72px"
	 height="72px" viewBox="0 0 72 72" enable-background="new 0 0 72 72" xml:space="preserve">
<g id="Layer_2">
</g>
<g id="Layer_1">
	<rect x="-1180.11" y="-86.739" fill="#FFFFFF" width="1470.712" height="202.377"/>
	<g>
		<path fill="#358535" d="M36,0C16.117,0,0,16.117,0,36s16.117,36,36,36s36-16.117,36-36S55.883,0,36,0z"/>
		<g>
			<g>
				<path fill-rule="evenodd" clip-rule="evenodd" fill="#FFFFFF" d="M42.646,37c-0.103-1.618-0.206-3.236-0.308-4.855
					c-0.062-0.969-0.106-1.939-0.187-2.908c-0.076-0.926-0.235-1.837-0.732-2.648c-0.149-0.242-0.32-0.47-0.491-0.694
					c-0.357-0.467-0.365-0.794,0.061-1.208c0.464-0.452,0.94-0.902,1.464-1.282c1.001-0.732,2.071-1.342,3.291-1.661
					c0.608-0.159,1.167-0.056,1.708,0.194c0.568,0.261,0.763,0.776,0.696,1.345c-0.082,0.698-0.258,1.383-0.389,2.076
					c-0.156,0.827-0.316,1.653-0.459,2.483c-0.139,0.812-0.26,1.627-0.382,2.443c-0.537,3.608-0.949,7.229-1.032,10.879
					c-0.015,0.705-0.027,1.411,0.008,2.114c0.04,0.741,0.264,1.437,0.675,2.066c0.469,0.717,1.162,1.095,1.961,1.309
					c0.937,0.251,1.896,0.25,2.837,0.086c1.587-0.275,3.164-0.624,4.747-0.922c0.41-0.077,0.837-0.076,1.256-0.113
					c0.229-0.02,0.493-0.02,0.587-0.272c0.104-0.269-0.126-0.445-0.304-0.56c-0.552-0.353-1.114-0.699-1.702-0.989
					c-1.035-0.51-2.163-0.652-3.301-0.762c-0.9-0.087-1.803-0.203-2.691-0.369c-0.401-0.075-0.814-0.246-1.151-0.474
					c-0.472-0.319-0.473-0.804-0.085-1.229c0.349-0.383,0.806-0.601,1.273-0.789c1.218-0.489,2.494-0.726,3.799-0.805
					c0.426-0.026,0.864-0.045,1.285,0.01c0.962,0.128,1.814,0.56,2.615,1.083c1.242,0.812,2.457,1.663,3.699,2.472
					c0.627,0.41,1.269,0.812,1.945,1.13c0.398,0.188,0.874,0.227,1.321,0.298c0.36,0.056,0.729,0.044,1.093,0.088
					c0.917,0.107,1.22,0.81,1.146,1.635c-0.063,0.717-0.602,1.042-1.044,1.074c-1.386,0.098-2.64,0.666-3.947,1.05
					c-1.052,0.311-2.105,0.631-3.178,0.864c-1.431,0.312-2.872,0.588-4.32,0.801c-1.693,0.249-3.397,0.467-5.118,0.328
					c-1.521-0.122-2.972-0.479-4.229-1.386c-1.096-0.79-1.885-1.809-2.178-3.163c-0.016-0.077-0.093-0.141-0.143-0.21
					c-0.069,0.05-0.161,0.086-0.206,0.154c-1.05,1.564-2.411,2.776-4.11,3.588c-2.356,1.126-4.767,1.217-7.192,0.241
					c-1.031-0.415-1.917-1.052-2.59-1.97c-0.633-0.865-0.784-1.795-0.496-2.812c0.445-1.559,1.321-2.846,2.513-3.924
					c0.222-0.2,0.49-0.351,0.755-0.497c0.229-0.129,0.474-0.13,0.69,0.057c0.215,0.183,0.262,0.401,0.186,0.668
					c-0.174,0.606-0.372,1.209-0.503,1.825c-0.239,1.141,0.056,1.766,1.242,2.32c1.386,0.646,2.855,0.647,4.338,0.355
					c0.844-0.167,1.637-0.461,2.385-0.878c1.132-0.631,1.875-1.58,2.306-2.796c0.386-1.095,0.495-2.232,0.56-3.377
					c0.026-0.493,0.005-0.989,0.005-1.483C42.631,37,42.638,37,42.646,37z"/>
				<path fill-rule="evenodd" clip-rule="evenodd" fill="#FFFFFF" d="M25.364,33.122c-0.021,2.921-0.06,4.887-0.365,6.843
					c-0.2,1.285-0.479,2.538-1.001,3.729c-0.524,1.194-1.259,2.223-2.481,2.785c-0.519,0.24-1.08,0.404-1.635,0.556
					c-1.041,0.285-2.088,0.557-3.14,0.797c-1.981,0.454-3.983,0.744-6.023,0.616c-0.992-0.063-1.965-0.241-2.817-0.814
					c-0.726-0.487-1.107-1.183-1.223-2.03c-0.114-0.851-0.123-1.698,0.114-2.536c0.364-1.29,1.076-2.361,2.076-3.237
					c0.384-0.335,0.811-0.627,1.243-0.898c0.722-0.45,1.743-0.062,2.007,0.746c0.163,0.494-0.082,0.878-0.396,1.213
					c-0.23,0.247-0.517,0.44-0.754,0.682c-0.183,0.188-0.36,0.396-0.484,0.625c-0.314,0.576-0.21,1.193,0.253,1.662
					c0.468,0.474,1.062,0.717,1.691,0.868c1.474,0.354,2.958,0.309,4.447,0.064c0.825-0.136,1.636-0.315,2.388-0.695
					c0.991-0.499,1.57-1.299,1.795-2.389c0.27-1.312,0.201-2.633,0.087-3.941c-0.177-2.024-0.417-4.045-0.699-6.058
					c-0.203-1.449-0.536-2.88-0.775-4.326c-0.1-0.591-0.174-1.203-0.133-1.797c0.056-0.838,0.538-1.507,1.106-2.097
					c0.399-0.417,0.858-0.757,1.41-0.974c1.079-0.425,1.932,0.095,2.363,1.104c0.344,0.806,0.43,1.666,0.488,2.524
					C25.091,28.787,25.256,31.428,25.364,33.122z"/>
				<path fill-rule="evenodd" clip-rule="evenodd" fill="#FFFFFF" d="M41.055,39.232c-0.025,0.477-0.048,0.971-0.079,1.464
					c-0.008,0.118-0.036,0.237-0.075,0.347c-0.096,0.269-0.34,0.378-0.567,0.211c-0.27-0.198-0.536-0.423-0.727-0.691
					c-0.564-0.786-0.902-1.675-1.053-2.628c-0.358-2.28-1.539-4.102-3.149-5.683c-1.146-1.125-2.461-2.013-3.858-2.793
					c-0.512-0.287-1.012-0.592-1.378-1.071c-0.515-0.666-0.58-1.388-0.189-2.109c0.245-0.453,0.556-0.888,0.913-1.259
					c0.422-0.44,0.9-0.837,1.394-1.194c0.857-0.619,1.691-0.497,2.439,0.255c0.621,0.624,1.084,1.355,1.527,2.104
					c0.697,1.183,1.405,2.359,2.1,3.544c0.821,1.403,1.491,2.871,1.923,4.447C40.728,35.829,40.971,37.507,41.055,39.232z"/>
			</g>
		</g>
	</g>
</g>
</svg>
