<?xml version="1.0" encoding="utf-8"?>
<!-- Generator: Adobe Illustrator 16.0.0, SVG Export Plug-In . SVG Version: 6.00 Build 0)  -->
<!DOCTYPE svg PUBLIC "-//W3C//DTD SVG 1.1//EN" "http://www.w3.org/Graphics/SVG/1.1/DTD/svg11.dtd">
<svg version="1.1" id="Layer_1" xmlns="http://www.w3.org/2000/svg" xmlns:xlink="http://www.w3.org/1999/xlink" x="0px" y="0px"
	 width="812px" height="809.97px" viewBox="0 0 812 809.97" enable-background="new 0 0 812 809.97" xml:space="preserve">
<g id="DF">
	<g>
		<path fill="#F5BB42" d="M302.677,300.239h-19.326v209.239h19.326c15.398,0,26.868-9.014,34.41-27.037
			c7.542-18.024,11.313-43.808,11.313-77.349C348.4,335.19,333.159,300.239,302.677,300.239z M406.006,0.014
			C181.786,0.014,0.012,181.326,0.012,405c0,223.668,181.774,404.986,405.994,404.986c224.225,0,406.003-181.318,406.003-404.986
			C812.009,181.326,630.229,0.014,406.006,0.014z M403.314,467.63c-3.929,19.122-10.214,35.657-18.854,49.606
			s-19.719,24.842-33.231,32.679c-13.512,7.837-29.695,11.755-48.552,11.755h-78.719V248.047h78.248
			c18.854,0,35.038,3.997,48.551,11.99s24.59,19.043,33.231,33.148s15.006,30.721,19.091,49.842s6.128,39.811,6.128,62.065
			C409.207,427.663,407.243,448.509,403.314,467.63z M588.456,300.239h-78.247v75.702h74.947v52.191h-74.947V561.67h-59.393V248.047
			h137.64V300.239z"/>
	</g>
</g>
</svg>
