<?xml version="1.0" encoding="utf-8"?>
<!-- Generator: Adobe Illustrator 16.0.0, SVG Export Plug-In . SVG Version: 6.00 Build 0)  -->
<!DOCTYPE svg PUBLIC "-//W3C//DTD SVG 1.1//EN" "http://www.w3.org/Graphics/SVG/1.1/DTD/svg11.dtd">
<svg version="1.1" id="DF_2_" xmlns="http://www.w3.org/2000/svg" xmlns:xlink="http://www.w3.org/1999/xlink" x="0px" y="0px"
	 width="1200px" height="1200px" viewBox="0 0 1200 1200" enable-background="new 0 0 1200 1200" xml:space="preserve">
<g id="DF">
	<g>
		<path fill="#F6BB42" d="M496.677,496.239h-19.326v209.239h19.326c15.398,0,26.868-9.013,34.41-27.037s11.313-43.807,11.313-77.348
			C542.4,531.19,527.159,496.239,496.677,496.239z M600.006,196.014c-224.22,0-405.994,181.312-405.994,404.986
			c0,223.668,181.774,404.986,405.994,404.986c224.224,0,406.003-181.318,406.003-404.986
			C1006.009,377.326,824.229,196.014,600.006,196.014z M597.314,663.63c-3.928,19.122-10.213,35.657-18.854,49.606
			s-19.719,24.842-33.231,32.679s-29.696,11.755-48.552,11.755h-78.719V444.047h78.248c18.854,0,35.038,3.997,48.551,11.99
			s24.59,19.043,33.231,33.149c8.642,14.105,15.006,30.72,19.091,49.841s6.128,39.811,6.128,62.066
			C603.207,623.663,601.243,644.509,597.314,663.63z M782.456,496.239h-78.247v75.702h74.947v52.192h-74.947V757.67h-59.393V444.047
			h137.64V496.239z"/>
	</g>
</g>
</svg>
