<?xml version="1.0" encoding="utf-8"?>
<!-- Generator: Adobe Illustrator 16.0.0, SVG Export Plug-In . SVG Version: 6.00 Build 0)  -->
<!DOCTYPE svg PUBLIC "-//W3C//DTD SVG 1.1//EN" "http://www.w3.org/Graphics/SVG/1.1/DTD/svg11.dtd">
<svg version="1.1" id="Layer_1" xmlns="http://www.w3.org/2000/svg" xmlns:xlink="http://www.w3.org/1999/xlink" x="0px" y="0px"
	 width="72px" height="72px" viewBox="0 0 72 72" enable-background="new 0 0 72 72" xml:space="preserve">
<g id="Layer_2">
</g>
<g id="Layer_1_1_">
	<g>
		<circle fill="#EFCF48" cx="36" cy="36" r="36"/>
		<g>
			<path fill="#FFFFFF" d="M39.379,10.294L13.152,32.866l46.309-11.309C59.461,21.557,57.344,13.135,39.379,10.294z M34.699,21.784
				c-1.072-0.026-1.922-0.912-1.896-1.988c0.025-1.072,0.918-1.92,1.99-1.894c1.07,0.026,1.92,0.916,1.895,1.987
				C36.662,20.966,35.77,21.809,34.699,21.784z M41.578,19.426c-0.969-0.023-1.734-0.828-1.711-1.795
				c0.023-0.968,0.828-1.737,1.797-1.714s1.734,0.831,1.713,1.799C43.352,18.683,42.549,19.449,41.578,19.426z M52.957,22.23
				c-1.18-0.029-2.115-1.007-2.086-2.192c0.027-1.184,1.01-2.12,2.191-2.09c1.182,0.028,2.119,1.009,2.09,2.194
				S54.141,22.258,52.957,22.23z"/>
			<path fill="#FFFFFF" d="M59.766,23.035L13.143,34.427v22.796l24.595-6.041c0.849-2.732,3.437-5.721,6.38-6.365
				c2.991-0.655,5.528,0.554,6.377,3.285l9.422-2.271L59.766,23.035z M22.75,45.908c-0.734,0-1.328-0.592-1.328-1.327
				c0-0.731,0.594-1.327,1.328-1.327c0.732,0,1.328,0.596,1.328,1.327C24.078,45.316,23.482,45.908,22.75,45.908z M30.145,39.018
				c-1.01,0-1.83-0.819-1.83-1.832c0-1.008,0.82-1.833,1.83-1.833c1.014,0,1.832,0.825,1.832,1.833
				C31.977,38.198,31.158,39.018,30.145,39.018z M37.27,42.773c-1.469,0-2.658-1.189-2.658-2.654c0-1.467,1.189-2.658,2.658-2.658
				c1.465,0,2.656,1.191,2.656,2.658C39.926,41.584,38.734,42.773,37.27,42.773z M49.887,35.353c-1.484,0-2.686-1.196-2.686-2.682
				c0-1.481,1.201-2.685,2.686-2.685c1.482,0,2.687,1.203,2.687,2.685C52.572,34.156,51.369,35.353,49.887,35.353z"/>
		</g>
	</g>
</g>
</svg>
