<?xml version="1.0" encoding="utf-8"?>
<!-- Generator: Adobe Illustrator 16.0.0, SVG Export Plug-In . SVG Version: 6.00 Build 0)  -->
<!DOCTYPE svg PUBLIC "-//W3C//DTD SVG 1.1//EN" "http://www.w3.org/Graphics/SVG/1.1/DTD/svg11.dtd">
<svg version="1.1" xmlns="http://www.w3.org/2000/svg" xmlns:xlink="http://www.w3.org/1999/xlink" x="0px" y="0px"
	 width="71.992px" height="72px" viewBox="0 0 71.992 72" enable-background="new 0 0 71.992 72" xml:space="preserve">
<g id="Layer_3">
	<rect x="-121.234" y="-124.729" fill="#FFFFFF" width="1190.526" height="321.458"/>
</g>
<g id="Layer_2" display="none">
</g>
<g id="Layer_1">
	<g>
	</g>
	<g>
		<g>
			<path fill="#BF6E38" d="M71.992,36C71.992,16.118,55.879,0,36,0C16.117,0,0,16.118,0,36s16.117,36,36,36
				C55.879,72,71.992,55.882,71.992,36z"/>
		</g>
	</g>
	<g>
		<polygon fill="#FFFFFF" points="16.577,35.718 11.958,22.832 7.722,22.832 7.722,49.029 12.177,49.029 12.177,35.58 
			16.976,49.029 21.032,49.029 21.032,22.832 16.577,22.832 		"/>
		<path fill="#FFFFFF" d="M33.485,41.762c0,1.513-0.351,3.315-2.02,3.315c-1.64,0-1.984-1.803-1.984-3.315v-18.93h-4.527v18.605
			c0,4.956,2.434,7.915,6.511,7.915s6.511-2.959,6.511-7.915V22.832h-4.492V41.762z"/>
		<polygon fill="#FFFFFF" points="40.106,27.18 43.526,27.18 43.526,49.029 48.054,49.029 48.054,27.18 51.437,27.18 51.437,22.832 
			40.106,22.832 		"/>
		<path fill="#FFFFFF" d="M60.1,33.7c-2.282-2.709-2.654-3.35-2.654-4.645c0-1.42,1.051-2.056,2.092-2.056
			c0.982,0,1.828,0.301,3.232,1.152l0.759,0.459v-4.936l-0.271-0.14c-1.314-0.679-2.507-0.956-4.117-0.956
			c-3.627,0-6.259,2.799-6.259,6.727c0,2.991,1.187,4.694,4.327,8.455c2.254,2.712,2.656,3.651,2.656,5.007
			c0,1.888-1.513,2.092-2.164,2.092c-1.077,0-2.262-0.433-3.842-1.402l-0.762-0.467v4.942l0.271,0.14
			c1.582,0.812,3.104,1.207,4.656,1.207c3.71,0,6.403-2.814,6.403-6.763C64.429,39.581,63.539,37.768,60.1,33.7z"/>
	</g>
</g>
</svg>
