<?xml version="1.0" encoding="utf-8"?>
<!-- Generator: Adobe Illustrator 16.0.0, SVG Export Plug-In . SVG Version: 6.00 Build 0)  -->
<!DOCTYPE svg PUBLIC "-//W3C//DTD SVG 1.1//EN" "http://www.w3.org/Graphics/SVG/1.1/DTD/svg11.dtd">
<svg version="1.1" id="Shape_1_1_" xmlns="http://www.w3.org/2000/svg" xmlns:xlink="http://www.w3.org/1999/xlink" x="0px" y="0px"
	 width="1200px" height="1200px" viewBox="0 0 1200 1200" enable-background="new 0 0 1200 1200" xml:space="preserve">
<g id="Shape_1">
	<g>
		<path fill="#BA9B65" d="M599.996,196.062c-224.084,0-405.748,181.291-405.748,404.938c0,223.64,181.664,404.938,405.748,404.938
			c224.088,0,405.756-181.298,405.756-404.938C1005.752,377.354,824.084,196.062,599.996,196.062z M451.086,745.646H395.5
			L331.435,566.06v179.587H272.08V432.074h59.354l60.297,173.476V432.074h59.354V745.646z M648.837,745.646h-53.23v-28.678
			c-2.198,4.701-5.182,9.089-8.95,13.164c-3.769,4.074-8.087,7.679-12.955,10.812c-4.867,3.134-9.971,5.642-15.31,7.521
			c-5.339,1.881-10.835,2.821-16.487,2.821c-16.959,0-29.128-4.466-36.508-13.398s-11.07-21.548-11.07-37.845V518.577h52.76V680.77
			c0,15.671,5.967,23.506,17.9,23.506c6.909,0,13.111-2.978,18.607-8.932c5.496-5.955,9.5-12.537,12.013-19.746V518.577h53.23
			V745.646z M770.843,748.232c-6.281,2.037-13.661,3.056-22.141,3.056c-18.843,0-32.189-4.701-40.041-14.104
			c-7.851-9.402-11.776-23.977-11.776-43.722V564.648h-21.198v-46.071h21.198v-62.057h53.23v62.057h28.735v46.071h-28.735V683.12
			c0,7.209,0.942,12.536,2.826,15.984c1.885,3.447,5.183,5.171,9.893,5.171c5.339,0,9.579-2.037,12.719-6.111l10.835,41.841
			C782.306,743.452,777.123,746.195,770.843,748.232z M927.42,732.483c-6.596,5.954-14.446,10.577-23.554,13.868
			s-19,4.937-29.678,4.937c-16.958,0-31.64-2.664-44.045-7.992c-12.404-5.328-22.219-12.537-29.441-21.626l21.669-36.669
			c6.281,6.895,13.426,12.693,21.434,17.395c8.009,4.701,16.566,7.052,25.674,7.052c8.479,0,15.31-2.194,20.491-6.582
			s7.772-10.343,7.772-17.864c0-6.269-2.198-11.44-6.595-15.515s-9.893-7.913-16.487-11.518l-21.67-11.283
			c-7.851-3.918-15.074-8.775-21.669-14.574c-6.595-5.798-12.091-13.085-16.487-21.86s-6.595-19.745-6.595-32.908
			c0-8.775,1.57-17.003,4.711-24.682c3.14-7.679,7.772-14.495,13.896-20.45s13.661-10.656,22.611-14.104
			c8.95-3.448,19.392-5.172,31.326-5.172c13.189,0,25.438,2.429,36.743,7.287c11.306,4.857,21.198,11.361,29.678,19.51
			l-21.198,35.729c-4.397-5.328-10.521-10.108-18.372-14.339s-16.33-6.347-25.438-6.347c-7.224,0-13.111,2.037-17.665,6.112
			c-4.554,4.074-6.831,9.089-6.831,15.043c0,5.642,2.277,10.421,6.831,14.339s10.128,7.679,16.723,11.283
			s13.896,7.365,21.904,11.282c8.009,3.918,15.311,8.933,21.905,15.045c6.595,6.111,12.169,13.634,16.723,22.565
			c4.554,8.933,6.831,19.98,6.831,33.144c0,10.029-1.885,19.197-5.653,27.503C939.196,719.397,934.015,726.528,927.42,732.483z"/>
	</g>
</g>
</svg>
