<?xml version="1.0" encoding="utf-8"?>
<!-- Generator: Adobe Illustrator 16.0.0, SVG Export Plug-In . SVG Version: 6.00 Build 0)  -->
<!DOCTYPE svg PUBLIC "-//W3C//DTD SVG 1.1//EN" "http://www.w3.org/Graphics/SVG/1.1/DTD/svg11.dtd">
<svg version="1.1" id="Layer_1" xmlns="http://www.w3.org/2000/svg" xmlns:xlink="http://www.w3.org/1999/xlink" x="0px" y="0px"
	 width="812px" height="809.97px" viewBox="0 0 812 809.97" enable-background="new 0 0 812 809.97" xml:space="preserve">
<g id="Shape_1">
	<g>
		<path fill="#BA9B64" d="M405.996,0.062C181.912,0.062,0.248,181.353,0.248,405c0,223.64,181.664,404.938,405.748,404.938
			c224.088,0,405.756-181.298,405.756-404.938C811.752,181.354,630.084,0.062,405.996,0.062z M257.086,549.646H201.5L137.435,370.06
			v179.587H78.08V236.074h59.354l60.298,173.476V236.074h59.354L257.086,549.646L257.086,549.646z M454.837,549.646h-53.229v-28.679
			c-2.198,4.701-5.183,9.089-8.95,13.164c-3.77,4.074-8.087,7.679-12.955,10.812c-4.867,3.134-9.972,5.642-15.311,7.521
			c-5.339,1.881-10.835,2.821-16.486,2.821c-16.959,0-29.128-4.466-36.509-13.398c-7.38-8.932-11.069-21.548-11.069-37.845V322.577
			h52.76V484.77c0,15.672,5.967,23.507,17.9,23.507c6.909,0,13.11-2.979,18.606-8.933c5.496-5.955,9.5-12.537,12.014-19.746V322.577
			h53.229V549.646z M576.843,552.232c-6.28,2.036-13.661,3.056-22.141,3.056c-18.843,0-32.189-4.701-40.041-14.104
			c-7.852-9.401-11.776-23.977-11.776-43.722V368.648h-21.197v-46.071h21.197V260.52h53.23v62.058h28.734v46.071h-28.734V487.12
			c0,7.209,0.941,12.536,2.826,15.983s5.183,5.172,9.893,5.172c5.339,0,9.579-2.037,12.719-6.111l10.835,41.841
			C588.306,547.452,583.123,550.195,576.843,552.232z M733.42,536.483c-6.596,5.953-14.446,10.576-23.554,13.867
			c-9.108,3.291-19,4.938-29.679,4.938c-16.957,0-31.64-2.664-44.045-7.992c-12.403-5.328-22.219-12.537-29.44-21.626l21.669-36.669
			c6.281,6.896,13.426,12.693,21.434,17.396c8.01,4.7,16.566,7.052,25.675,7.052c8.479,0,15.31-2.194,20.49-6.582
			c5.182-4.388,7.772-10.343,7.772-17.864c0-6.269-2.198-11.439-6.595-15.515c-4.397-4.075-9.894-7.913-16.487-11.519l-21.67-11.283
			c-7.852-3.918-15.074-8.774-21.669-14.573c-6.595-5.798-12.091-13.085-16.487-21.86c-4.396-8.775-6.595-19.745-6.595-32.908
			c0-8.774,1.57-17.003,4.711-24.682c3.14-7.679,7.771-14.495,13.896-20.45s13.661-10.656,22.611-14.104
			c8.95-3.448,19.393-5.173,31.326-5.173c13.189,0,25.438,2.43,36.743,7.287s21.198,11.361,29.678,19.511l-21.198,35.729
			c-4.396-5.328-10.521-10.108-18.372-14.339c-7.851-4.231-16.33-6.347-25.438-6.347c-7.225,0-13.111,2.036-17.665,6.111
			c-4.554,4.074-6.831,9.089-6.831,15.043c0,5.643,2.277,10.421,6.831,14.339s10.128,7.68,16.723,11.283
			c6.596,3.604,13.896,7.365,21.904,11.282c8.009,3.918,15.311,8.933,21.905,15.045c6.595,6.111,12.169,13.634,16.723,22.565
			c4.554,8.933,6.831,19.979,6.831,33.144c0,10.029-1.885,19.197-5.653,27.503C745.196,523.396,740.015,530.528,733.42,536.483z"/>
	</g>
</g>
</svg>
