<?xml version="1.0" encoding="utf-8"?>
<!-- Generator: Adobe Illustrator 16.0.0, SVG Export Plug-In . SVG Version: 6.00 Build 0)  -->
<!DOCTYPE svg PUBLIC "-//W3C//DTD SVG 1.1//EN" "http://www.w3.org/Graphics/SVG/1.1/DTD/svg11.dtd">
<svg version="1.1" id="Layer_1" xmlns="http://www.w3.org/2000/svg" xmlns:xlink="http://www.w3.org/1999/xlink" x="0px" y="0px"
	 width="71.992px" height="72px" viewBox="0 0 71.992 72" enable-background="new 0 0 71.992 72" xml:space="preserve">
<g id="Layer_1_1_">
	<g>
		<g>
			<path fill="#BF6E38" d="M71.992,36C71.992,16.118,55.879,0,36,0C16.117,0,0,16.118,0,36s16.117,36,36,36
				C55.879,72,71.992,55.882,71.992,36z"/>
		</g>
	</g>
	<g enable-background="new    ">
		<path fill="#FFFFFF" d="M10.455,23.331h3.384l5.471,15.263V23.331h3.456v25.197h-3.204L13.91,32.69v15.838h-3.456V23.331z"/>
	</g>
	<g enable-background="new    ">
		<path fill="#FFFFFF" d="M26.438,41.438V23.331h3.527v18.43c0,2.628,1.008,3.816,2.484,3.816c1.512,0,2.52-1.188,2.52-3.816v-18.43
			h3.492v18.106c0,4.967-2.484,7.415-6.011,7.415C28.922,48.853,26.438,46.404,26.438,41.438z"/>
		<path fill="#FFFFFF" d="M43.825,26.679h-3.419v-3.348h10.33v3.348h-3.383v21.85h-3.528V26.679z"/>
		<path fill="#FFFFFF" d="M52.07,47.629v-3.744c1.584,0.972,2.879,1.476,4.104,1.476c1.512,0,2.664-0.863,2.664-2.592v-0.071
			c0-1.44-0.469-2.484-2.771-5.256c-3.096-3.707-4.212-5.291-4.212-8.135v-0.072c0-3.707,2.52-6.155,5.759-6.155
			c1.691,0,2.771,0.324,3.888,0.9v3.743c-1.368-0.827-2.339-1.224-3.491-1.224c-1.439,0-2.592,0.972-2.592,2.556v0.072
			c0,1.403,0.468,2.159,2.771,4.896c3.348,3.959,4.211,5.651,4.211,8.494v0.072c0,3.708-2.627,6.191-5.902,6.191
			C54.842,48.78,53.402,48.312,52.07,47.629z"/>
	</g>
</g>
</svg>
