<?xml version="1.0" encoding="utf-8"?>
<!-- Generator: Adobe Illustrator 16.0.0, SVG Export Plug-In . SVG Version: 6.00 Build 0)  -->
<!DOCTYPE svg PUBLIC "-//W3C//DTD SVG 1.1//EN" "http://www.w3.org/Graphics/SVG/1.1/DTD/svg11.dtd">
<svg version="1.1" id="spicy_1_" xmlns="http://www.w3.org/2000/svg" xmlns:xlink="http://www.w3.org/1999/xlink" x="0px" y="0px"
	 width="1200px" height="1200px" viewBox="0 0 1200 1200" enable-background="new 0 0 1200 1200" xml:space="preserve">
<g id="pepper">
	<g>
		<path fill="#ED5565" d="M600.006,196.014c-224.22,0-405.994,181.312-405.994,404.986c0,223.668,181.774,404.986,405.994,404.986
			c224.224,0,406.003-181.318,406.003-404.986C1006.009,377.326,824.229,196.014,600.006,196.014z M816.94,527.648
			c-0.607,5.297-5.263,2.724-8.188,2.64c-4.337-0.151-8.648-1.13-14.942-2.029c17.371,28.233,11.476,54.891,2.278,81.004
			c-16.602,47.154-40.758,90.534-74.756,127.15c-23.069,24.888-49.605,46.31-78.847,64.668
			c-28.222,17.707-56.495,34.829-87.669,46.466c-44.971,16.771-91.142,27.763-139.604,20.691
			c-19.185-2.82-38.635-6.505-51.689-23.62c-7.588-9.971-5.922-22.314-2.648-31.217c5.3-14.452,64.294-20.787,78.9-27.979
			c115.067-56.745,136.507-182.591,166.161-294.485c7.497-28.186,19.713-35.771,48.643-30.48c-1.972-5.58-5.427-10.653-2.392-17.146
			c14.271,7.018,28.595,14.156,43.027,21.113c4.708,2.271,8.61,3.146,13.963-1.051c38.32-30.1,50.2-83.704,27.194-126.619
			c-3.976-7.416-11.883-10.985-18.622-15.14c-3.406-2.096-7.012-1.474-9.775,5.271c-3.146,7.622-9.96,17.23-22.028,13.595
			c-10.554-3.165-14.914-10.853-11.62-21.21c3.195-10.122,8.922-18.263,20.542-21.391c30.008-8.087,58.38,4.65,71.587,34.889
			c18.088,41.345,22.723,84.175,8.151,127.682c-3.47,10.46-3.097,20.986-4.014,31.471c-0.916,10.768,7.879,15.539,15.835,19.657
			c7.929,4.113,16.377,7.338,24.753,10.473C814.179,523.191,817.249,524.804,816.94,527.648z"/>
	</g>
</g>
</svg>
