<?xml version="1.0" encoding="utf-8"?>
<!-- Generator: Adobe Illustrator 16.0.0, SVG Export Plug-In . SVG Version: 6.00 Build 0)  -->
<!DOCTYPE svg PUBLIC "-//W3C//DTD SVG 1.1//EN" "http://www.w3.org/Graphics/SVG/1.1/DTD/svg11.dtd">
<svg version="1.1" id="Layer_1" xmlns="http://www.w3.org/2000/svg" xmlns:xlink="http://www.w3.org/1999/xlink" x="0px" y="0px"
	 width="812px" height="809.97px" viewBox="0 0 812 809.97" enable-background="new 0 0 812 809.97" xml:space="preserve">
<g id="pepper">
	<g>
		<path fill="#ED5766" d="M406.006,0.014C181.786,0.014,0.012,181.326,0.012,405c0,223.668,181.774,404.986,405.994,404.986
			c224.225,0,406.003-181.318,406.003-404.986C812.009,181.326,630.229,0.014,406.006,0.014z M622.94,331.648
			c-0.607,5.297-5.264,2.724-8.188,2.64c-4.337-0.151-8.648-1.13-14.942-2.029c17.371,28.233,11.477,54.892,2.278,81.004
			c-16.602,47.154-40.758,90.534-74.756,127.15c-23.069,24.888-49.605,46.31-78.847,64.668
			c-28.223,17.707-56.495,34.829-87.669,46.466c-44.972,16.771-91.143,27.764-139.604,20.691
			c-19.185-2.82-38.635-6.505-51.688-23.62c-7.589-9.971-5.923-22.314-2.648-31.217c5.3-14.452,64.294-20.787,78.9-27.979
			c115.066-56.745,136.507-182.591,166.16-294.484c7.497-28.187,19.714-35.771,48.644-30.48c-1.972-5.58-5.427-10.653-2.392-17.146
			c14.271,7.018,28.595,14.155,43.026,21.112c4.708,2.271,8.61,3.146,13.963-1.051c38.32-30.1,50.2-83.704,27.194-126.619
			c-3.977-7.416-11.883-10.985-18.622-15.14c-3.406-2.096-7.012-1.474-9.775,5.271c-3.146,7.622-9.96,17.23-22.027,13.595
			c-10.555-3.165-14.914-10.853-11.62-21.21c3.194-10.122,8.922-18.263,20.542-21.391c30.008-8.087,58.38,4.65,71.587,34.889
			c18.088,41.345,22.723,84.175,8.15,127.682c-3.47,10.46-3.097,20.986-4.014,31.471c-0.916,10.769,7.879,15.539,15.835,19.657
			c7.929,4.113,16.377,7.338,24.753,10.473C620.179,327.191,623.249,328.804,622.94,331.648z"/>
	</g>
</g>
</svg>
