<?xml version="1.0" encoding="utf-8"?>
<!-- Generator: Adobe Illustrator 16.0.0, SVG Export Plug-In . SVG Version: 6.00 Build 0)  -->
<!DOCTYPE svg PUBLIC "-//W3C//DTD SVG 1.1//EN" "http://www.w3.org/Graphics/SVG/1.1/DTD/svg11.dtd">
<svg version="1.1" id="Layer_1" xmlns="http://www.w3.org/2000/svg" xmlns:xlink="http://www.w3.org/1999/xlink" x="0px" y="0px"
	 width="71.992px" height="72px" viewBox="0 0 71.992 72" enable-background="new 0 0 71.992 72" xml:space="preserve">
<g id="Layer_1_1_">
	<g>
		<path fill="#D9554F" d="M51.5,29.377c1.369,2.229,0.904,4.334,0.18,6.396c-1.309,3.723-3.213,7.148-5.893,10.04
			c-1.818,1.965-3.91,3.656-6.215,5.105c-2.225,1.398-4.453,2.75-6.91,3.669c-3.545,1.324-7.184,2.192-11.004,1.634
			c-1.512-0.223-3.045-0.514-4.074-1.865c-0.598-0.787-0.467-1.762-0.209-2.465c0.418-1.141,5.068-1.641,6.219-2.209
			c9.07-4.481,10.76-14.417,13.097-23.252c0.591-2.225,1.554-2.824,3.834-2.406c-0.155-0.441-0.428-0.842-0.188-1.354
			c1.125,0.554,2.254,1.118,3.391,1.667c0.371,0.179,0.679,0.248,1.101-0.083c3.021-2.377,3.957-6.609,2.144-9.997
			c-0.314-0.586-0.937-0.868-1.468-1.196c-0.269-0.165-0.553-0.116-0.771,0.416c-0.248,0.602-0.785,1.361-1.736,1.074
			c-0.832-0.25-1.176-0.857-0.916-1.675c0.252-0.799,0.703-1.442,1.619-1.689c2.365-0.638,4.602,0.367,5.643,2.755
			c1.426,3.264,1.791,6.646,0.643,10.081c-0.274,0.826-0.245,1.657-0.317,2.485c-0.073,0.85,0.621,1.227,1.248,1.552
			c0.625,0.325,1.291,0.579,1.951,0.827c0.237,0.09,0.479,0.217,0.454,0.442c-0.047,0.418-0.415,0.215-0.645,0.208
			C52.336,29.526,51.996,29.448,51.5,29.377z"/>
	</g>
</g>
</svg>
