<?xml version="1.0" encoding="utf-8"?>
<!-- Generator: Adobe Illustrator 16.0.0, SVG Export Plug-In . SVG Version: 6.00 Build 0)  -->
<!DOCTYPE svg PUBLIC "-//W3C//DTD SVG 1.1//EN" "http://www.w3.org/Graphics/SVG/1.1/DTD/svg11.dtd">
<svg version="1.1" xmlns="http://www.w3.org/2000/svg" xmlns:xlink="http://www.w3.org/1999/xlink" x="0px" y="0px"
	 width="71.992px" height="72px" viewBox="0 0 71.992 72" enable-background="new 0 0 71.992 72" xml:space="preserve">
<g id="Layer_3">
	<rect x="-121.234" y="-235.531" fill="#FFFFFF" width="1190.526" height="321.458"/>
</g>
<g id="Layer_2" display="none">
</g>
<g id="Layer_1">
	<g>
	</g>
	<g>
		<path fill-rule="evenodd" clip-rule="evenodd" fill="#D9554F" d="M52.753,29.62c1.519,2.473,1.003,4.81,0.199,7.098
			c-1.452,4.131-3.565,7.933-6.539,11.141c-2.018,2.18-4.339,4.057-6.896,5.665c-2.469,1.551-4.942,3.052-7.668,4.072
			c-3.934,1.469-7.972,2.433-12.211,1.812c-1.678-0.246-3.379-0.569-4.521-2.069c-0.663-0.872-0.518-1.954-0.232-2.734
			c0.464-1.266,5.625-1.821,6.901-2.452c10.065-4.974,11.94-16,14.535-25.804c0.654-2.469,1.723-3.134,4.254-2.67
			c-0.173-0.49-0.475-0.934-0.208-1.502c1.249,0.615,2.501,1.241,3.763,1.851c0.412,0.198,0.752,0.274,1.22-0.093
			c3.353-2.638,4.391-7.334,2.377-11.094c-0.349-0.65-1.038-0.963-1.627-1.327c-0.297-0.183-0.614-0.128-0.856,0.461
			c-0.275,0.668-0.871,1.51-1.927,1.192c-0.923-0.278-1.305-0.952-1.017-1.858c0.28-0.887,0.78-1.601,1.797-1.875
			c2.625-0.708,5.106,0.407,6.262,3.057c1.582,3.622,1.987,7.375,0.713,11.187c-0.306,0.916-0.273,1.838-0.353,2.758
			c-0.083,0.943,0.689,1.361,1.385,1.722c0.694,0.36,1.433,0.642,2.166,0.917c0.264,0.1,0.533,0.241,0.505,0.49
			c-0.052,0.464-0.462,0.238-0.715,0.231C53.681,29.785,53.303,29.699,52.753,29.62z"/>
	</g>
</g>
</svg>
