<?xml version="1.0" encoding="utf-8"?>
<!-- Generator: Adobe Illustrator 16.0.0, SVG Export Plug-In . SVG Version: 6.00 Build 0)  -->
<!DOCTYPE svg PUBLIC "-//W3C//DTD SVG 1.1//EN" "http://www.w3.org/Graphics/SVG/1.1/DTD/svg11.dtd">
<svg version="1.1" id="Layer_1" xmlns="http://www.w3.org/2000/svg" xmlns:xlink="http://www.w3.org/1999/xlink" x="0px" y="0px"
	 width="53px" height="50px" viewBox="0 0 53 50" enable-background="new 0 0 53 50" xml:space="preserve">
<path fill="#FFFFFF" d="M51.789,1.444c-0.381-0.604-1.162-0.821-1.807-0.486c-0.77,0.402-18.793,9.998-34.954,32.047l-12.12-5.058
	c-0.582-0.245-1.271-0.058-1.646,0.462c-0.375,0.518-0.347,1.225,0.071,1.709l16.021,18.604c0.263,0.307,0.646,0.479,1.044,0.479
	c0.073,0,0.147-0.006,0.22-0.018c0.471-0.076,0.871-0.392,1.054-0.834C32.254,17.873,51.257,3.425,51.446,3.282
	C52.023,2.852,52.17,2.051,51.789,1.444z"/>
</svg>
