<svg xmlns="http://www.w3.org/2000/svg" xmlns:xlink="http://www.w3.org/1999/xlink" version="1.1" id="Layer_1" x="0px" y="0px" width="100px" height="100px" viewBox="0 0 100 100" enable-background="new 0 0 100 100" xml:space="preserve">
<path fill="#C49A6C" d="M82.572,57.661c0,0,3.886-11.809-7.407-11.683c-11.292,0.125-25.165,0-25.165,0s-13.873,0.125-25.166,0  c-11.292-0.126-7.407,11.683-7.407,11.683"/>
<path d="M17.428,57.661c-0.42,0-0.812-0.267-0.95-0.688c-0.082-0.248-1.966-6.116,0.83-9.935c1.516-2.07,4.065-3.136,7.538-3.061  c11.153,0.122,25.007,0.002,25.146,0c0.157,0.001,14.01,0.123,25.163,0c3.517-0.042,6.023,0.99,7.538,3.061  c2.796,3.818,0.911,9.687,0.83,9.935c-0.172,0.524-0.735,0.81-1.261,0.637c-0.524-0.171-0.811-0.736-0.639-1.261  c0.017-0.051,1.644-5.15-0.547-8.134c-1.113-1.516-3.123-2.3-5.898-2.237c-11.173,0.121-25.046,0.001-25.185,0  c-0.121,0.002-13.993,0.122-25.168,0c-2.805-0.039-4.79,0.722-5.902,2.242c-2.195,2.998-0.561,8.077-0.544,8.128  c0.173,0.524-0.112,1.09-0.637,1.263C17.637,57.646,17.531,57.661,17.428,57.661z"/>
<polygon fill="#BAB1D7" points="27.297,95 73.012,95 85.078,54.738 76.425,58.086 70.8,53.961 63.77,58.086 57.28,53.961   50.033,58.086 49.968,58.086 42.721,53.961 36.23,58.086 29.2,53.961 23.575,58.086 14.922,54.738 "/>
<path d="M73.012,96H27.297c-0.439,0-0.827-0.286-0.956-0.706L13.966,55.032c-0.112-0.366-0.006-0.765,0.274-1.025  c0.28-0.262,0.686-0.339,1.042-0.201l8.142,3.15l5.184-3.802c0.322-0.235,0.753-0.257,1.097-0.056l6.504,3.815l5.975-3.797  c0.312-0.2,0.709-0.208,1.031-0.025L50,56.954l6.785-3.862c0.322-0.182,0.719-0.174,1.031,0.025l5.974,3.797l6.504-3.815  c0.344-0.202,0.775-0.181,1.097,0.056l5.184,3.802l8.142-3.15c0.356-0.136,0.759-0.061,1.04,0.198  c0.28,0.26,0.388,0.655,0.279,1.021L73.97,95.287C73.843,95.71,73.454,96,73.012,96z M28.036,94h44.232l11.266-37.592l-6.748,2.61  c-0.317,0.123-0.678,0.074-0.952-0.126l-5.095-3.736l-6.464,3.792c-0.323,0.189-0.725,0.184-1.042-0.019l-5.981-3.802l-6.724,3.827  c-0.302,0.172-0.752,0.172-1.054,0l-6.725-3.827l-5.982,3.802c-0.316,0.202-0.719,0.208-1.042,0.019l-6.464-3.792l-5.095,3.736  c-0.275,0.2-0.634,0.249-0.952,0.126l-6.73-2.604L28.036,94z"/>
<path fill="#D283B7" d="M27.992,23.675c-7.104,0-10.211,7.103-7.104,10.876c0,0-11.098,12.606,5.993,14.423h47.058  c0,0,8.111,0.022,9.36-8.191c0.476-3.135-0.59-6.231-6.756-10.732"/>
<path fill="#D283B7" d="M60.619,33.051c0,0,12.21,0.205,15.925-3.001c0,0,2.968-8.495-8.598-9.705  C55.218,19.013,55.293,8.802,58.18,6.361c0,0-22.198,1.554-28.856,8.879c-1.076,1.183-4.661,5.327-1.332,8.435  c0,0,7.991,2.663,12.208,2.441"/>
<path d="M77.681,29.654c0.259-1.205,0.528-3.708-0.93-6.008c-1.526-2.406-4.454-3.853-8.701-4.296  c-7.289-0.764-9.469-4.423-10.12-6.536c-0.745-2.417-0.115-4.835,0.896-5.689c0.331-0.279,0.444-0.739,0.281-1.14  c-0.163-0.401-0.569-0.646-0.996-0.622c-0.923,0.065-22.677,1.669-29.526,9.204c-2.782,3.058-3.619,5.981-2.454,8.29  c-2.973,0.53-5.449,2.3-6.681,4.91c-1.09,2.31-1.005,4.818,0.183,6.742c-1.279,1.651-4.401,6.258-2.872,10.182  c1.136,2.916,4.506,4.691,10.016,5.276c0.035,0.004,0.07,0.006,0.105,0.006h47.055c0,0,0,0,0,0c0.115,0,8.991-0.092,10.352-9.041  C84.895,36.935,82.967,33.635,77.681,29.654z M82.311,40.632c-1.101,7.239-8.075,7.341-8.372,7.342H26.935  c-4.673-0.505-7.469-1.852-8.31-4.006c-1.089-2.789,1.231-6.409,2.397-7.975c2.033,1.571,7.852,4.976,20.111,4.976  c1.129,0,2.316-0.029,3.557-0.091c0.552-0.027,0.977-0.497,0.949-1.049c-0.027-0.552-0.503-0.973-1.048-0.949  c-16.711,0.831-22.532-4.578-22.942-4.983c-1.125-1.381-1.275-3.399-0.39-5.275c1.148-2.434,3.612-3.895,6.601-3.938  c1.237,0.401,8.336,2.631,12.394,2.433c0.551-0.029,0.975-0.5,0.946-1.052c-0.029-0.551-0.491-0.989-1.051-0.946  c-3.606,0.199-10.333-1.906-11.623-2.321c-2.006-2.075-0.287-4.876,1.539-6.883c5.146-5.661,20.493-7.768,26.104-8.36  c-0.684,1.657-0.774,3.818-0.149,5.85c0.796,2.586,3.392,7.055,11.824,7.937c3.597,0.377,6.023,1.508,7.209,3.363  c1.197,1.871,0.802,4.041,0.62,4.767c-3.038,2.267-11.82,2.632-15.035,2.582c-0.526,0.003-1.007,0.431-1.017,0.983  c-0.009,0.552,0.431,1.007,0.983,1.017c0.054,0.001,0.235,0.003,0.523,0.003c2.31,0,11.413-0.172,15.408-2.761  C81.86,35.318,82.717,37.954,82.311,40.632z"/>
<circle fill="#F1F2F2" cx="38.478" cy="11.007" r="1.951"/>
<path d="M38.478,13.958c-1.627,0-2.951-1.324-2.951-2.951s1.324-2.951,2.951-2.951s2.951,1.324,2.951,2.951  S40.105,13.958,38.478,13.958z M38.478,10.056c-0.524,0-0.951,0.427-0.951,0.951s0.427,0.951,0.951,0.951s0.951-0.427,0.951-0.951  S39.002,10.056,38.478,10.056z"/>
<circle fill="#F1F2F2" cx="48.421" cy="6.951" r="1.951"/>
<path d="M48.421,9.902c-1.627,0-2.952-1.324-2.952-2.951S46.794,4,48.421,4c1.627,0,2.951,1.324,2.951,2.951  S50.048,9.902,48.421,9.902z M48.421,6c-0.525,0-0.952,0.427-0.952,0.951s0.427,0.951,0.952,0.951c0.524,0,0.951-0.427,0.951-0.951  S48.946,6,48.421,6z"/>
<circle fill="#F1F2F2" cx="45.026" cy="19.751" r="1.951"/>
<path d="M45.026,22.702c-1.627,0-2.951-1.324-2.951-2.951s1.324-2.951,2.951-2.951s2.951,1.324,2.951,2.951  S46.654,22.702,45.026,22.702z M45.026,18.8c-0.524,0-0.951,0.427-0.951,0.951s0.427,0.951,0.951,0.951s0.951-0.427,0.951-0.951  S45.551,18.8,45.026,18.8z"/>
<circle fill="#F1F2F2" cx="34.051" cy="19.707" r="1.951"/>
<path d="M34.051,22.659c-1.627,0-2.951-1.324-2.951-2.952c0-1.627,1.324-2.951,2.951-2.951s2.952,1.324,2.952,2.951  C37.002,21.335,35.678,22.659,34.051,22.659z M34.051,18.756c-0.524,0-0.951,0.427-0.951,0.951c0,0.525,0.427,0.952,0.951,0.952  c0.525,0,0.952-0.427,0.952-0.952C35.002,19.183,34.576,18.756,34.051,18.756z"/>
<circle fill="#F1F2F2" cx="44.639" cy="31.102" r="1.951"/>
<path d="M44.639,34.054c-1.627,0-2.952-1.324-2.952-2.952c0-1.627,1.324-2.95,2.952-2.95c1.627,0,2.951,1.323,2.951,2.95  C47.59,32.729,46.266,34.054,44.639,34.054z M44.639,30.151c-0.525,0-0.952,0.426-0.952,0.95c0,0.525,0.427,0.952,0.952,0.952  c0.524,0,0.951-0.427,0.951-0.952C45.59,30.577,45.164,30.151,44.639,30.151z"/>
<circle fill="#F1F2F2" cx="51.746" cy="14.631" r="1.951"/>
<path d="M51.746,17.583c-1.627,0-2.951-1.324-2.951-2.952c0-1.627,1.324-2.95,2.951-2.95s2.952,1.323,2.952,2.95  C54.698,16.259,53.374,17.583,51.746,17.583z M51.746,13.681c-0.524,0-0.951,0.426-0.951,0.95c0,0.525,0.427,0.952,0.951,0.952  c0.525,0,0.952-0.427,0.952-0.952C52.698,14.106,52.271,13.681,51.746,13.681z"/>
<circle fill="#F1F2F2" cx="55.613" cy="22.896" r="1.951"/>
<path d="M55.613,25.848c-1.627,0-2.952-1.324-2.952-2.951s1.324-2.951,2.952-2.951s2.951,1.324,2.951,2.951  S57.241,25.848,55.613,25.848z M55.613,21.945c-0.525,0-0.952,0.427-0.952,0.951s0.427,0.951,0.952,0.951  c0.524,0,0.951-0.427,0.951-0.951S56.138,21.945,55.613,21.945z"/>
<circle fill="#F1F2F2" cx="53.697" cy="36.595" r="1.951"/>
<path d="M53.698,39.546c-1.627,0-2.952-1.324-2.952-2.951s1.324-2.951,2.952-2.951c1.627,0,2.951,1.324,2.951,2.951  S55.325,39.546,53.698,39.546z M53.698,35.644c-0.525,0-0.952,0.427-0.952,0.951s0.427,0.951,0.952,0.951  c0.524,0,0.951-0.427,0.951-0.951S54.222,35.644,53.698,35.644z"/>
<circle fill="#F1F2F2" cx="63.418" cy="27.296" r="1.951"/>
<path d="M63.418,30.247c-1.627,0-2.952-1.324-2.952-2.951s1.324-2.951,2.952-2.951s2.951,1.324,2.951,2.951  S65.046,30.247,63.418,30.247z M63.418,26.345c-0.525,0-0.952,0.427-0.952,0.951s0.427,0.951,0.952,0.951  c0.524,0,0.951-0.427,0.951-0.951S63.943,26.345,63.418,26.345z"/>
<circle fill="#F1F2F2" cx="30.06" cy="33.054" r="1.951"/>
<path d="M30.06,36.005c-1.627,0-2.951-1.324-2.951-2.951c0-1.628,1.324-2.952,2.951-2.952s2.951,1.324,2.951,2.952  C33.011,34.681,31.688,36.005,30.06,36.005z M30.06,32.102c-0.524,0-0.951,0.427-0.951,0.952c0,0.524,0.427,0.951,0.951,0.951  s0.951-0.427,0.951-0.951C31.011,32.528,30.584,32.102,30.06,32.102z"/>
<circle fill="#F1F2F2" cx="69.566" cy="21.038" r="1.951"/>
<path d="M69.566,23.989c-1.627,0-2.951-1.324-2.951-2.951s1.324-2.951,2.951-2.951s2.951,1.324,2.951,2.951  S71.193,23.989,69.566,23.989z M69.566,20.087c-0.524,0-0.951,0.427-0.951,0.951s0.427,0.951,0.951,0.951s0.951-0.427,0.951-0.951  S70.09,20.087,69.566,20.087z"/>
<circle cx="37.736" cy="73.289" r="3.547"/>
<circle cx="62.802" cy="73.289" r="3.547"/>
<path d="M56.706,76.438c-0.315-0.214-0.723-0.23-1.055-0.043c-1.273,0.72-2.669,1.085-4.149,1.085c-2.808,0-5.002-1.319-5.022-1.331  c-0.348-0.215-0.79-0.196-1.117,0.045c-0.329,0.241-0.478,0.657-0.377,1.052c0.059,0.229,1.482,5.623,6.063,5.627  c0,0,0.004,0,0.005,0c4.207,0,5.817-3.578,6.08-5.47C57.186,77.026,57.02,76.652,56.706,76.438z M51.053,81.873L51.053,81.873  L51.053,81.873L51.053,81.873z"/>
</svg>