<svg version="1.1" xmlns="http://www.w3.org/2000/svg" xmlns:xlink="http://www.w3.org/1999/xlink" x="0px" y="0px"
   width="95.039px" height="18px" viewBox="0 0 95.039 18" enable-background="new 0 0 95.039 18" xml:space="preserve">
<g id="Layer_1" display="none">
</g>
<g id="Layer_2" display="none">
</g>
<g id="totals">
</g>
<g id="order_summary_info">
</g>
<g id="Layer_2_copy">
</g>
<g id="GB_info">
  <g>
    <g>
      <path fill="#DA1F26" d="M11.482,6.741H7.195c-0.849,0-0.95,1.328,0,1.328h3.639v2.678c-0.89,1.188-2.447,1.832-3.943,1.812
        c-2.606-0.061-4.911-2.436-4.952-5.274c0-2.637,1.942-4.59,4.165-5.113C7.62,1.789,9.5,2.252,10.631,3.56
        c0.627,0.726,1.658-0.24,1.052-0.945c-1.111-1.289-2.991-1.893-4.751-1.893c-0.363,0-0.748,0.021-1.05,0.061
        C2.788,1.366,0.483,4.164,0.483,7.224c-0.08,3.805,2.911,6.684,6.389,6.704c1.961,0.021,3.962-0.846,5.154-2.416
        c0.183-0.181,0.223-0.442,0.223-0.664V7.485C12.249,7.043,12.067,6.741,11.482,6.741z M20.963,3.521
        c-0.527-0.141-1.011-0.182-1.497-0.182c-0.505,0-1.052,0.041-1.535,0.182c-2.226,0.623-3.538,2.496-3.741,4.73
        c-0.059,1.51,0.324,2.798,1.234,3.865c0.99,1.188,2.424,1.812,4.042,1.812c1.598,0,3.053-0.624,4.044-1.812
        c0.89-1.067,1.293-2.355,1.213-3.865C24.539,5.996,23.166,4.144,20.963,3.521z M22.378,11.229
        c-0.708,0.806-1.821,1.329-2.912,1.329c-1.111,0-2.183-0.483-2.892-1.329c-0.604-0.704-0.888-1.65-0.888-2.557
        c0-1.811,0.99-3.381,2.688-3.824c0.304-0.08,0.686-0.141,1.071-0.141c0.384,0,0.789,0.061,1.11,0.141
        c1.719,0.443,2.71,2.033,2.71,3.865C23.267,9.579,22.943,10.546,22.378,11.229z M32.864,3.521
        c-0.526-0.141-1.013-0.182-1.496-0.182c-0.506,0-1.052,0.041-1.538,0.182c-2.223,0.623-3.536,2.496-3.74,4.73
        c-0.06,1.51,0.324,2.798,1.234,3.865c0.991,1.188,2.426,1.812,4.044,1.812c1.597,0,3.052-0.624,4.043-1.812
        c0.888-1.067,1.293-2.355,1.212-3.865C36.441,5.996,35.067,4.144,32.864,3.521z M34.278,11.229
        c-0.707,0.806-1.818,1.329-2.91,1.329c-1.112,0-2.185-0.483-2.892-1.329c-0.607-0.704-0.889-1.65-0.889-2.557
        c0-1.811,0.989-3.381,2.688-3.824c0.304-0.08,0.688-0.141,1.071-0.141c0.385,0,0.788,0.061,1.113,0.141
        c1.718,0.443,2.709,2.033,2.709,3.865C35.169,9.579,34.845,10.546,34.278,11.229z M46.461,1.004V5.01
        c-0.606-1.067-1.922-1.63-3.274-1.63c-3.034,0-5.097,2.153-5.176,5.012c-0.062,2.335,1.05,4.328,3.253,5.234l-0.019-0.021
        c0.627,0.262,1.313,0.382,1.941,0.382c1.213,0,2.626-0.523,3.314-1.771v0.947c0,0.442,0.222,0.704,0.687,0.704
        s0.748-0.262,0.748-0.704V1.004C47.936,0.077,46.461,0.077,46.461,1.004z M46.461,9.458c0,1.973-1.557,3.141-3.396,3.141
        c-0.768-0.061-1.496-0.302-2.082-0.765c-1.092-0.905-1.517-2.114-1.496-3.423c0.02-0.522,0.142-1.066,0.303-1.488
        c0.587-1.39,2.022-2.154,3.457-2.154c1.842,0.08,3.215,1.328,3.215,3.1V9.458z M58.431,3.762l-3.862,7.79l-3.9-7.77
        c-0.405-0.906-1.74-0.223-1.375,0.584l4.426,8.676l-1.777,3.604c-0.385,0.945,0.889,1.449,1.374,0.503l6.49-12.843
        C60.128,3.46,58.794,2.977,58.431,3.762z M65.902,3.38c-1.354,0-2.67,0.562-3.274,1.63V1.004c0-0.927-1.477-0.927-1.477,0v12.159
        c0,0.442,0.283,0.704,0.748,0.704s0.688-0.262,0.688-0.704v-0.947c0.686,1.248,2.102,1.771,3.314,1.771
        c0.626,0,1.312-0.12,1.939-0.382l-0.019,0.021c2.203-0.906,3.314-2.899,3.254-5.234C70.997,5.533,68.935,3.38,65.902,3.38z
         M68.106,11.834c-0.587,0.463-1.315,0.704-2.083,0.765c-1.84,0-3.396-1.168-3.396-3.141v-1.59c0-1.771,1.374-3.02,3.214-3.1
        c1.434,0,2.871,0.765,3.457,2.154c0.161,0.422,0.282,0.966,0.303,1.488C69.621,9.72,69.199,10.929,68.106,11.834z M81.743,3.46
        c-0.465,0-0.728,0.302-0.728,0.725v0.765c-0.728-1.188-2.043-1.55-3.195-1.569c-0.767-0.021-1.496,0.08-2.162,0.382l0.021-0.021
        c-1.94,0.745-3.072,2.617-3.114,4.65c-0.059,1.973,0.729,3.684,2.265,4.73c0.85,0.604,1.941,0.865,2.911,0.865
        c1.193,0,2.689-0.664,3.275-1.831v0.966c0,0.443,0.263,0.725,0.728,0.725c0.444,0,0.747-0.281,0.747-0.725V4.185
        C82.49,3.762,82.188,3.46,81.743,3.46z M81.016,9.458c-0.102,2.014-1.557,3.141-3.417,3.141
        c-0.747-0.061-1.476-0.302-2.083-0.765c-1.092-0.905-1.515-2.114-1.475-3.423c0.02-0.522,0.122-1.066,0.303-1.488
        c0.566-1.41,2.021-2.175,3.458-2.154c1.819,0.08,3.214,1.107,3.214,3.1V9.458z M93.809,3.439c-0.465,0-0.728,0.282-0.728,0.725
        v0.765c-0.668-1.107-2.083-1.57-3.315-1.57c-0.607,0-1.275,0.102-1.9,0.343c-2.204,0.905-3.297,2.899-3.234,5.233
        c0.041,2.033,1.192,3.865,3.072,4.631c0.688,0.281,1.414,0.402,2.184,0.383c1.213-0.021,2.526-0.504,3.234-1.771v1.086
        c0,2.074-1.718,3-3.558,3c-1.133,0-1.86-0.242-2.872-1.007c-0.686-0.664-1.798,0.262-0.99,1.047
        c1.093,1.026,2.325,1.39,3.862,1.39c2.77,0,4.993-1.51,4.993-4.43V4.164C94.557,3.722,94.254,3.439,93.809,3.439z M93.081,9.458
        c0,1.709-1.412,3.017-3.229,3.1c-1.43,0.016-2.879-0.748-3.443-2.152c-0.181-0.424-0.283-0.967-0.302-1.49
        c-0.042-1.309,0.384-2.516,1.496-3.422h-0.021c1.112-0.846,2.566-0.926,3.779-0.383c1.193,0.523,1.72,1.49,1.72,2.758V9.458z"/>
    </g>
  </g>
</g>
<g id="no_print_zone" display="none">
</g>
<g id="Layer_8">
</g>
</svg>