<?xml version="1.0" encoding="utf-8"?>
<!-- Generator: Adobe Illustrator 16.0.0, SVG Export Plug-In . SVG Version: 6.00 Build 0)  -->
<!DOCTYPE svg PUBLIC "-//W3C//DTD SVG 1.1//EN" "http://www.w3.org/Graphics/SVG/1.1/DTD/svg11.dtd">
<svg version="1.1" xmlns="http://www.w3.org/2000/svg" xmlns:xlink="http://www.w3.org/1999/xlink" x="0px" y="0px" width="774px"
	 height="126px" viewBox="0 0 774 126" enable-background="new 0 0 774 126" xml:space="preserve">
<g id="THANKYOUshadow.svg_copy_1_" enable-background="new    ">
	<g>
		<path fill="none" d="M569.045,62.526c-9.09,15.139-13.844,29.061-14.869,37.769c0.237,1.28,0.667,2.217,1.286,2.753
			c4.701,4.164,18.46-4.515,34.475-32.112c10.817-18.667,15.803-33.065,16.887-41.661c-0.212-1.043-0.561-1.831-1.038-2.332
			C601.43,22.431,583.149,39.092,569.045,62.526z"/>
		<path fill="none" d="M204.283,77.703c2.239-11.681,5.374-24.748,8.501-35.606c-8.664,10.748-19.363,24.401-29.725,38.028
			C190.698,79.084,197.557,78.274,204.283,77.703z"/>
		<path d="M98.945,65.901c1.214-0.218,2.405-0.433,3.582-0.646c6.919-12.648,13.99-24.533,19.924-34.146
			c2.618-4.145,3.19-6.119,1.603-8.801c-0.401,0.826-0.931,1.742-1.603,2.805C115.487,36.394,106.957,50.801,98.945,65.901z"/>
		<path d="M69.001,28.332c8.707-1.041,17.064-1.909,22.636-2.778c4.181-0.693,5.224-2.777,2.266-6.594
			c-0.012-0.015-0.025-0.029-0.037-0.043c-0.598,0.278-1.337,0.493-2.229,0.641c-5.571,0.869-13.929,1.737-22.636,2.778
			c-0.348,0.693-0.871,1.562-1.566,2.603c-17.412,24.126-39.875,63.18-51.019,90.086c-1.218,2.949-2.61,3.299-5.224,1.387
			c-2.263-1.562-4.526-3.469-6.964-6.596c-0.734-0.901-1.283-1.788-1.664-2.711c-1.166,3.678-0.441,6.126,1.664,8.709
			c2.438,3.124,4.701,5.035,6.964,6.597c2.613,1.907,4.006,1.562,5.224-1.391C27.56,94.117,50.023,55.061,67.435,30.935
			C68.13,29.893,68.653,29.025,69.001,28.332z"/>
		<path d="M88.324,86.557c-5.049,10.24-9.402,20.135-12.711,28.988c-1.22,3.124-2.96,3.124-5.224,1.387
			c-2.09-1.562-4.526-3.469-7.312-6.246c-0.893-0.891-1.528-1.719-1.943-2.563c-1.133,3.76-0.75,5.875,1.943,8.558
			c2.786,2.778,5.222,4.689,7.312,6.251c2.263,1.736,4.004,1.736,5.224-1.391c3.309-8.85,7.662-18.744,12.711-28.984
			c8.53-2.475,18.436-4.946,26.406-6.561c0.897-2.144,1.843-4.329,2.847-6.556C109.22,81.001,97.902,83.779,88.324,86.557z"/>
		<path d="M40.098,24.765c-9.734,0.341-15.115-2.001-20.902-7.985c-1.982,1.208-2.366,3.487-0.341,5.651
			c5.483,5.788,10.526,8.295,19.127,8.357c1.231-2.042,2.46-4.061,3.681-6.023H40.098z"/>
		<path d="M569.045,56.529c-11.633,19.371-16.167,36.757-14.869,43.766c1.025-8.708,5.779-22.63,14.869-37.769
			c14.104-23.434,32.385-40.095,36.74-35.583c0.478,0.5,0.826,1.289,1.038,2.332c0.538-4.272,0.118-7.118-1.038-8.328
			C601.43,16.432,583.149,33.096,569.045,56.529z"/>
		<path d="M481.96,26.078c-0.089,11.84,0.356,25.779,1.646,40.573c0.158-0.309,0.311-0.616,0.47-0.925
			C482.664,51.514,482.05,37.943,481.96,26.078z"/>
		<path d="M338.376,20.753c-0.399,2.109-1.208,4.347-2.461,6.79c-9.75,18.919-28.905,54.33-42.137,84.359
			c-1.743,3.819-4.006,4.164-7.837,2.603c-4.179-1.736-8.183-4.168-11.318-6.421c-3.182-2.34-5.215-5.661-5.367-10.85
			c-0.041,1.921-0.052,3.731-0.029,5.388c0,5.555,2.088,9.024,5.396,11.456c3.136,2.257,7.14,4.689,11.318,6.422
			c3.831,1.565,6.094,1.216,7.837-2.603c13.231-30.03,32.386-65.438,42.137-84.357C338.416,28.663,339.151,24.598,338.376,20.753z"
			/>
		<path d="M358.72,55.836c2.24-1.922,4.583-3.892,6.993-5.888c3.954-6.607,7.762-12.76,11.29-18.146
			c2.592-3.951,3.181-6.04,1.534-8.596c-0.391,0.779-0.899,1.631-1.534,2.6C371.431,34.312,365.162,44.725,358.72,55.836z"/>
		<path d="M380.658,115.545c-2.958,0.866-5.396,0.866-10.272-2.952c-6.095-4.86-18.806-20.48-25.422-31.241
			c-6.27,12.147-11.841,24.124-15.847,34.369c-1.218,3.123-2.786,3.123-5.222,1.211c-1.916-1.562-4.702-3.123-7.314-6.071
			c-0.815-0.922-1.384-1.83-1.77-2.765c-1.088,3.548-0.594,6.086,1.77,8.759c2.613,2.953,5.398,4.515,7.314,6.076
			c2.436,1.907,4.003,1.907,5.222-1.216c4.006-10.24,9.577-22.218,15.847-34.369c6.616,10.761,19.327,26.386,25.422,31.246
			c4.876,3.818,7.314,3.818,10.272,2.948c3.134-0.866,6.094-1.907,8.53-3.299c2.266-1.387,3.136-2.773,0.524-5.726
			c-0.109-0.123-0.228-0.261-0.339-0.387c-0.062,0.039-0.121,0.079-0.186,0.118C386.752,113.634,383.792,114.675,380.658,115.545z"
			/>
		<path d="M558.521,13.636c-0.71,3.387-2.752,6.712-6.706,10.261c-10.277,9.372-32.738,30.55-49.628,50.684
			c-8.008,14.408-15.324,28.813-20.371,40.965c-1.22,2.949-2.786,2.949-5.051,1.217c-1.916-1.566-4.526-3.474-7.312-6.597
			c-0.716-0.814-1.229-1.634-1.59-2.479c-1.097,3.424-0.624,5.953,1.59,8.473c2.786,3.124,5.396,5.035,7.312,6.597
			c2.265,1.736,3.831,1.736,5.051-1.216c5.047-12.147,12.363-26.557,20.371-40.962c16.89-20.135,39.351-41.311,49.628-50.685
			C558.055,24.292,559.534,19.248,558.521,13.636z"/>
		<path d="M366.38,75.275c0.747,1.228,1.55,2.493,2.389,3.777c19.672-18.141,46.219-39.627,55.418-48.464
			c6.369-6.181,8.696-11.404,7.618-18.287c-0.757,4.213-3.222,8.022-7.618,12.291C414.61,33.792,386.23,56.702,366.38,75.275z"/>
		<path d="M624.284,37.692c-0.146,2.36-0.447,4.824-0.914,7.38c-3.135,17.357-17.76,53.286-43.007,68.911
			c-6.441,3.99-14.453,5.206-23.506,1.907c-5.052-1.907-10.273-5.555-14.454-9.72c-3.044-3.033-6.813-7.602-7.536-15.954
			c-0.949,12.297,3.831,18.258,7.536,21.953c4.181,4.164,9.402,7.809,14.454,9.72c9.053,3.298,17.064,2.082,23.506-1.911
			c25.247-15.621,39.872-51.552,43.007-68.909C624.25,46.249,624.566,41.742,624.284,37.692z"/>
		<path d="M769.099,21.64c-12.363,16.491-28.732,42.875-39.181,64.396c-1.74,3.474-2.785,3.474-5.047,1.391
			c-1.565-1.565-3.656-3.818-5.921-7.292c-0.452-0.714-0.779-1.384-1.028-2.046c-0.861,3.185-0.692,5.331,1.028,8.045
			c2.265,3.469,4.355,5.727,5.921,7.288c2.262,2.082,3.307,2.082,5.047-1.387c10.448-21.526,26.817-47.908,39.181-64.399
			c3.125-4.207,3.578-6.179,2-9.05C770.628,19.476,769.967,20.472,769.099,21.64z"/>
		<path d="M711.113,117.803c-4.683,0-8.701-3.268-9.922-7.811c-0.169,0.728-0.296,1.457-0.352,2.178
			c-0.521,6.422,4.355,11.627,10.273,11.627c6.966,0,11.317-5.556,12.018-11.802c0.191-1.831,0.134-3.579-0.12-5.198
			C722.042,112.713,717.779,117.803,711.113,117.803z"/>
		<path d="M637.084,100.858c2.188-12.715,14.641-39.304,33.466-67.319c2.952-4.344,3.746-8.01,2.659-11.363
			c-0.487,1.679-1.361,3.456-2.659,5.366C647.825,61.36,634.382,93.107,637.084,100.858z"/>
		<path d="M722.453,20.405c-0.182,0.762-0.401,1.561-0.709,2.451c-12.014,35.583-31.344,65.263-47.188,82.1
			c-15.323,16.316-27.162,13.889-34.999,11.281c-4.876-1.907-11.839-5.376-17.064-10.932c-2.889-3.04-4.358-6.715-4.795-10.991
			c-0.6,6.925,0.636,12.608,4.795,16.986c5.226,5.555,12.188,9.028,17.064,10.936c7.837,2.603,19.676,5.035,34.999-11.281
			c15.845-16.837,35.175-46.521,47.188-82.102C723.031,25.129,723.17,22.642,722.453,20.405z"/>
		<path d="M174.078,19.801c-0.408,0.838-0.955,1.775-1.653,2.879c-15.322,23.433-38.48,63.705-49.101,90.607
			c-1.22,3.299-2.786,3.123-5.224,1.387c-2.09-1.562-4.529-3.298-7.14-6.421c-0.697-0.833-1.215-1.567-1.578-2.282
			c-1.155,3.722-0.811,5.425,1.578,8.28c2.611,3.123,5.049,4.86,7.14,6.422c2.438,1.736,4.003,1.907,5.224-1.391
			c10.621-26.902,33.779-67.173,49.101-90.604C175.082,24.474,175.627,22.64,174.078,19.801z"/>
		<path d="M183.059,80.125c10.361-13.627,21.061-27.281,29.725-38.028c1.008-3.5,2.016-6.775,2.992-9.694
			c-10.448,12.845-24.727,31.071-37.785,48.429C179.727,80.583,181.404,80.351,183.059,80.125z"/>
		<path d="M238.629,21.974c-0.176,0.561-0.369,1.141-0.564,1.75c-8.882,26.904-18.806,64.049-22.116,88.523
			c-0.521,3.298-1.741,3.644-4.702,2.603c-2.263-0.866-3.831-1.562-7.137-3.989c-1.864-1.421-2.896-2.845-3.321-4.828
			c-0.063,0.632-0.118,1.231-0.162,1.798c-0.348,4.511,0.522,6.768,3.483,9.024c3.306,2.429,4.875,3.124,7.137,3.994
			c2.961,1.041,4.181,0.691,4.702-2.607c3.31-24.474,13.233-61.617,22.116-88.521C239.019,26.747,239.971,24.426,238.629,21.974z"/>
		<path d="M164.234,99.925c-3.831,5.205-7.139,10.065-9.925,14.404c-2.786,4.165-4.179,3.994-6.617,1.216
			c-1.916-2.082-2.958-3.298-4.004-5.38c-0.467-0.698-0.837-1.397-1.107-2.11c-1.005,3.111-0.563,5.608,1.107,8.104
			c1.045,2.082,2.088,3.299,4.004,5.381c2.438,2.777,3.831,2.952,6.617-1.212c2.786-4.34,6.094-9.199,9.925-14.409
			c12.983-3.063,25.291-5.12,36.603-6.347c0.183-1.782,0.419-3.795,0.66-6.073C190.006,94.715,177.468,96.797,164.234,99.925z"/>
		<path d="M287.856,79.269c0.258-0.527,0.524-1.064,0.79-1.601c1.875-16.825,4.808-36.225,7.22-47.948
			c0.698-3.475,1.155-5.634,0.301-7.512c-0.093,0.479-0.193,0.978-0.301,1.516C293.081,37.262,289.6,61.042,287.856,79.269z"/>
		<path d="M239.451,115.721c-1.22,2.773-2.961,2.603-5.399,1.211c-3.133-1.907-6.267-5.03-7.662-7.462
			c-0.275-0.503-0.536-1.046-0.754-1.622c-0.037,0.106-0.08,0.222-0.116,0.328c-1.043,2.953-0.173,5.381,0.87,7.292
			c1.395,2.429,4.529,5.552,7.662,7.463c2.438,1.387,4.179,1.562,5.399-1.216c6.721-15.746,20.9-45.229,32.837-66.769
			c0.4-2.872,0.829-5.668,1.29-8.309C261.39,68.333,246.416,99.4,239.451,115.721z"/>
		<path fill="#FFFFFF" d="M713.553,91.417c-6.441,0.521-12.188,7.983-12.713,14.754c-0.108,1.341,0.029,2.623,0.352,3.821
			c1.221,4.543,5.239,7.811,9.922,7.811c6.666,0,10.929-5.09,11.897-11.006c0.044-0.267,0.09-0.532,0.12-0.801
			C724.001,97.667,719.995,90.896,713.553,91.417z"/>
		<path fill="#FFFFFF" d="M431.675,5.498c-0.695-3.298-2.956-2.95-5.396-1.216c-14.487,9.783-40.114,28.731-60.565,45.666
			c-2.41,1.996-4.753,3.966-6.993,5.888c6.442-11.111,12.711-21.524,18.283-30.03c0.635-0.969,1.143-1.82,1.534-2.6
			c1.432-2.85,1.213-4.666-0.837-7.12c-2.438-2.778-5.051-6.076-7.837-8.506c-3.133-2.603-5.224-2.255-7.312,0.868
			c-16.542,24.647-37.438,65.265-47.363,92.517c-1.079,2.864-1.224,5.069-0.376,7.13c0.385,0.935,0.955,1.843,1.77,2.765
			c2.613,2.948,5.398,4.51,7.314,6.071c2.436,1.912,4.003,1.912,5.222-1.211c4.006-10.245,9.577-22.222,15.847-34.369
			c6.616,10.761,19.327,26.381,25.422,31.241c4.876,3.818,7.314,3.818,10.272,2.952c3.134-0.87,6.094-1.911,8.53-3.298
			c0.064-0.039,0.124-0.079,0.186-0.118c2.122-1.35,2.876-2.743,0.339-5.608c-5.849-6.6-14.551-17.674-20.944-27.468
			c-0.839-1.284-1.642-2.55-2.389-3.777c19.85-18.573,48.23-41.484,57.808-50.683c4.396-4.268,6.861-8.078,7.618-12.291
			C432.188,10.174,432.144,7.945,431.675,5.498z"/>
		<path fill="#FFFFFF" d="M724.871,87.427c2.262,2.083,3.307,2.083,5.047-1.391c10.448-21.521,26.817-47.905,39.181-64.396
			c0.868-1.168,1.529-2.164,2-3.054c1.416-2.681,1.091-4.406-0.609-7.012c-1.565-2.432-4.526-5.73-7.658-8.333
			c-2.96-2.43-4.705-2.083-7.142,1.041c-11.143,14.582-30.993,47.733-37.09,65.612c-1.227,3.538-1.58,5.797-0.678,8.194
			c0.249,0.662,0.576,1.332,1.028,2.046C721.215,83.608,723.306,85.861,724.871,87.427z"/>
		<path fill="#FFFFFF" d="M204.11,110.86c3.306,2.428,4.875,3.123,7.137,3.989c2.961,1.041,4.181,0.695,4.702-2.603
			c3.31-24.475,13.233-61.619,22.116-88.523c0.195-0.609,0.389-1.188,0.564-1.75c1.076-3.437,1.415-6.102-3.525-9.534
			c-4.876-3.471-6.094-4.339-11.666-7.29c-5.573-2.95-7.662-1.041-10.274,1.91c-21.417,23.954-55.718,70.297-68.256,90.257
			c-2.814,4.49-3.466,7.734-2.326,10.737c0.271,0.713,0.64,1.412,1.107,2.11c1.045,2.082,2.088,3.298,4.004,5.38
			c2.438,2.778,3.831,2.949,6.617-1.216c2.786-4.339,6.094-9.199,9.925-14.404c13.233-3.128,25.771-5.21,37.263-6.426
			c-0.24,2.278-0.477,4.291-0.66,6.073c-0.082,0.797-0.156,1.562-0.21,2.26c-0.129,1.672-0.088,3.032,0.162,4.2
			C201.213,108.016,202.246,109.439,204.11,110.86z M212.784,42.097c-3.127,10.858-6.262,23.926-8.501,35.606
			c-6.726,0.571-13.585,1.381-21.224,2.422c-1.655,0.226-3.333,0.458-5.068,0.706c13.059-17.357,27.337-35.583,37.785-48.429
			C214.799,35.322,213.792,38.596,212.784,42.097z"/>
		<path fill="#FFFFFF" d="M556.857,115.891c9.053,3.299,17.064,2.083,23.506-1.907c25.247-15.625,39.872-51.553,43.007-68.911
			c0.467-2.557,0.768-5.02,0.914-7.38c0.51-8.218-0.956-15.113-4.745-19.697c-3.83-4.514-7.836-7.638-12.537-10.588
			c-9.054-5.729-17.236-3.471-25.072,2.082c-18.806,13.191-39.006,42.7-44.923,63.358c-2.025,7.157-2.533,12.822-2.14,17.369
			c0.723,8.353,4.492,12.921,7.536,15.954C546.584,110.336,551.806,113.983,556.857,115.891z M606.823,29.274
			c-1.084,8.596-6.069,22.994-16.887,41.661c-16.015,27.598-29.773,36.276-34.475,32.112c-0.619-0.536-1.049-1.473-1.286-2.753
			c-1.298-7.009,3.236-24.395,14.869-43.766c14.104-23.434,32.385-40.097,36.74-35.583
			C606.941,22.157,607.361,25.002,606.823,29.274z"/>
		<path fill="#FFFFFF" d="M476.765,116.762c2.265,1.732,3.831,1.732,5.051-1.217c5.047-12.151,12.363-26.557,20.371-40.965
			c16.89-20.133,39.351-41.312,49.628-50.684c3.954-3.548,5.996-6.874,6.706-10.261c0.541-2.577,0.312-5.19-0.439-7.965
			c-0.87-3.296-2.961-2.777-5.396-0.693c-11.493,8.158-33.783,26.557-49.104,41.484c-0.699-9.199-1.045-18.051-1.569-25.688
			c-0.346-4.167-1.392-7.292-4.002-9.374c-2.961-2.257-7.491-4.339-11.493-5.556c-3.311-1.041-4.526,1.564-4.355,4.514
			c-0.168,4.77-0.243,10.053-0.201,15.72c0.09,11.865,0.704,25.436,2.116,39.648c-0.159,0.309-0.312,0.616-0.47,0.925
			c-6.239,12.182-11.638,24.148-15.374,33.965c-1.107,2.822-1.237,5.033-0.37,7.07c0.36,0.845,0.874,1.664,1.59,2.479
			C472.238,113.288,474.849,115.195,476.765,116.762z"/>
		<path fill="#FFFFFF" d="M274.623,108.083c3.136,2.253,7.14,4.685,11.318,6.421c3.831,1.562,6.094,1.217,7.837-2.603
			c13.231-30.029,32.386-65.44,42.137-84.359c1.252-2.442,2.062-4.681,2.461-6.79c0.877-4.637-0.23-8.648-2.984-12.825
			c-2.438-3.125-4.354-2.257-5.919,0c-11.905,16.106-29.625,47.116-40.826,69.74c-0.266,0.536-0.532,1.073-0.79,1.601
			c1.743-18.227,5.224-42.006,8.01-55.545c0.108-0.538,0.208-1.037,0.301-1.516c0.806-4.157,0.89-6.235-2.389-8.727
			c-4.876-3.644-10.448-6.767-14.454-8.156c-3.133-1.043-6.094-1.563-8.532,2.603c-13.581,24.126-37.262,70.82-45.272,94.25
			c-0.768,2.173-0.496,4.062,0.116,5.67c0.219,0.576,0.479,1.119,0.754,1.622c1.395,2.432,4.529,5.555,7.662,7.462
			c2.438,1.392,4.179,1.562,5.399-1.211c6.964-16.32,21.938-47.388,34.127-69.084c-0.461,2.641-0.89,5.438-1.29,8.309
			c-2.017,14.491-3.208,31.104-3.062,41.68c0,0.212,0.023,0.401,0.029,0.607C269.408,102.422,271.441,105.743,274.623,108.083z"/>
		<path fill="#FFFFFF" d="M118.1,114.675c2.438,1.736,4.003,1.912,5.224-1.387c10.621-26.902,33.779-67.174,49.101-90.607
			c0.698-1.104,1.246-2.042,1.653-2.879c1.321-2.717,1.122-4.36-0.608-7.013c-1.566-2.43-5.049-6.249-7.834-8.506
			c-3.134-2.43-5.399-2.255-7.487,0.868c-10.1,14.927-22.114,35.931-32.214,56.412c-6.323,0.616-14.29,2.049-23.407,3.694
			c-1.177,0.213-2.368,0.428-3.582,0.646c8.012-15.101,16.542-29.507,23.506-40.789c0.671-1.063,1.202-1.979,1.603-2.805
			c1.366-2.815,1.154-4.54-0.73-7.09c-1.916-2.603-5.399-6.076-7.836-8.158c-3.309-2.778-5.049-2.603-7.487,1.041
			c-16.367,24.822-36.913,65.613-46.49,92.865c-1.095,3.149-1.336,5.2-0.375,7.156c0.415,0.845,1.05,1.673,1.943,2.563
			c2.786,2.777,5.222,4.685,7.312,6.246c2.263,1.737,4.004,1.737,5.224-1.387c3.309-8.854,7.662-18.748,12.711-28.988
			c9.578-2.777,20.896-5.556,29.253-7.117c-1.004,2.227-1.95,4.412-2.847,6.556c-1.902,4.542-3.569,8.877-4.989,12.889
			c-1.148,3.307-1.356,5.123-0.358,7.088c0.363,0.715,0.881,1.449,1.578,2.282C113.571,111.377,116.01,113.113,118.1,114.675z"/>
		<path fill="#FFFFFF" d="M11.192,116.411c2.613,1.912,4.006,1.562,5.224-1.387c11.144-26.906,33.607-65.96,51.019-90.086
			c0.695-1.042,1.218-1.91,1.566-2.603c8.707-1.041,17.064-1.909,22.636-2.778c0.892-0.148,1.631-0.363,2.229-0.641
			c2.206-1.024,2.364-2.95,0.037-5.953c-4.354-5.555-12.711-9.374-21.243-9.547c-11.493-0.348-35.697,2.255-52.064,6.769
			c-3.133,0.866-4.179,3.644-1.74,6.247c0.114,0.121,0.227,0.23,0.341,0.348c5.787,5.984,11.168,8.326,20.902,7.985h1.565
			c-1.221,1.962-2.45,3.981-3.681,6.023C24.301,53.483,10.344,80.524,2.835,100.271c-1.06,2.813-1.064,4.91-0.271,6.834
			c0.381,0.923,0.93,1.81,1.664,2.711C6.666,112.942,8.929,114.85,11.192,116.411z"/>
		<path fill="#FFFFFF" d="M639.557,116.236c7.837,2.607,19.676,5.035,34.999-11.281c15.845-16.837,35.175-46.517,47.188-82.1
			c0.308-0.89,0.527-1.688,0.709-2.451c0.842-3.549,0.374-5.882-1.059-8.312c-1.741-2.951-4.352-4.86-7.138-7.115
			c-2.786-2.257-4.876-1.389-6.271,1.562c-29.253,67.521-61.462,100.673-69.819,95.813c-0.494-0.295-0.844-0.812-1.082-1.494
			c-2.702-7.751,10.741-39.498,33.466-73.316c1.298-1.91,2.172-3.687,2.659-5.366c0.886-3.05,0.48-5.771-1.093-8.347
			c-1.566-2.43-2.786-4.512-4.702-6.769c-2.785-3.124-4.176-2.778-6.962,0.173c-16.369,17.705-36.395,54.156-40.571,69.604
			c-1.785,6.644-2.694,12.474-2.184,17.477c0.437,4.276,1.906,7.951,4.795,10.991C627.718,110.86,634.681,114.329,639.557,116.236z"
			/>
	</g>
</g>
<g id="THANKYOU.svg_copy_1_" enable-background="new    ">
</g>
</svg>
